<?xml version="1.0" standalone="no"?>
<!DOCTYPE svg PUBLIC "-//W3C//DTD SVG 1.1//EN" "http://www.w3.org/Graphics/SVG/1.1/DTD/svg11.dtd" >
<svg xmlns="http://www.w3.org/2000/svg">
<metadata></metadata>
<defs>
<font id="volvo_sans_proregular" horiz-adv-x="555" >
<font-face units-per-em="2048" ascent="1495" descent="-553" />
<missing-glyph horiz-adv-x="500" />
<glyph unicode="&#xfb01;" horiz-adv-x="987" d="M23 829v136h159v82v73q0 96 17.5 161t74.5 110q56 45 162 45q39 0 119 -13v-129q-50 11 -90 11q-35 0 -59 -11.5t-36.5 -26.5t-19 -41.5t-7.5 -44.5t-1 -48v-168h182v-136h-182v-829h-160v829h-159zM694 0v965h160v-965h-160zM694 1257v189h160v-189h-160z" />
<glyph unicode="&#xfb02;" horiz-adv-x="980" d="M23 829v136h159v82v73q0 96 17.5 161t74.5 110q56 45 162 45q39 0 119 -13v-129q-50 11 -90 11q-35 0 -59 -11.5t-36.5 -26.5t-19 -41.5t-7.5 -44.5t-1 -48v-168h182v-136h-182v-829h-160v829h-159zM690 0v1446h158v-1446h-158z" />
<glyph unicode="&#xd;" horiz-adv-x="2048" />
<glyph unicode=" " />
<glyph unicode="!" d="M197 0v184h161v-184h-161zM197 879v567h161v-590l-49 -555h-63z" />
<glyph unicode="&#x22;" horiz-adv-x="811" d="M117 1446h215l-35 -588h-143zM479 1446h215l-35 -588h-143z" />
<glyph unicode="#" horiz-adv-x="1366" d="M86 469v158h305l33 221h-291v158h311l64 438h164l-64 -438h226l65 438h160l-62 -438h283v-158h-303l-33 -221h285v-158h-307l-68 -469h-162l68 469h-228l-67 -469h-166l72 469h-285zM553 627h229l31 221h-227z" />
<glyph unicode="$" horiz-adv-x="1280" d="M41 418l209 24q29 -132 119.5 -214t218.5 -103v518q-166 45 -265 108.5t-151 153.5q-41 74 -41 162q0 65 24.5 127t75.5 120t143 98.5t214 53.5v226h137v-226q19 -3 29.5 -5t50.5 -12.5t69.5 -22.5t74.5 -35.5t79 -51t69.5 -69t59.5 -90.5q12 -24 18.5 -41t11 -36 t5.5 -24l-191 -18q-5 21 -19 52.5t-53.5 81t-90.5 77.5q-36 22 -113 37v-484q50 -14 91.5 -27t95.5 -35.5t96 -46.5t85 -59t71.5 -74t46.5 -91t18 -111q0 -31 -6 -65t-26 -81t-51.5 -88.5t-89.5 -82.5t-134 -68q-111 -33 -177 -33h-20v-244h-137v244q-81 8 -179 42.5 t-167 86.5q-68 50 -115 121q-62 90 -86 205zM338 1090q0 -41 15.5 -74.5t36.5 -54.5t57 -40.5t61 -29t65 -22.5q10 -3 15 -5v451q-126 -11 -188 -78.5t-62 -146.5zM725 119q40 3 66.5 7.5t64.5 16t70 36t57 61.5q33 50 33 112q0 44 -15.5 79t-47 61t-62.5 43t-76 36 q-41 20 -90 33v-485z" />
<glyph unicode="%" horiz-adv-x="1835" d="M76 924q0 322 188 436q70 39 144 39q148 0 241.5 -127.5t93.5 -343.5q0 -131 -34 -232q-79 -237 -299 -237q-151 0 -242.5 118.5t-91.5 346.5zM223 932q0 -159 49.5 -248.5t141.5 -89.5q88 0 134 88t46 244q0 97 -16 164q-21 92 -68.5 132t-101.5 40q-94 0 -139.5 -88.5 t-45.5 -241.5zM524 -2l643 1403l127 -62l-641 -1402zM1092 446q0 323 188 437q70 39 143 39q148 0 242 -127.5t94 -343.5q0 -129 -35 -232q-80 -237 -299 -237q-151 0 -242 118t-91 346zM1239 455q0 -159 49.5 -248.5t141.5 -89.5q88 0 134 88t46 244q0 91 -17 163 q-21 92 -68.5 132t-101.5 40q-94 0 -139 -88t-45 -241z" />
<glyph unicode="&#x26;" horiz-adv-x="1236" d="M78 379q0 66 18 126t48.5 104.5t61 76t64.5 55.5q25 19 72.5 45.5t73.5 44.5q-49 128 -60 181q-8 43 -8 88q0 138 88.5 237t233.5 99q123 0 211 -79.5t88 -207.5q0 -34 -8 -67.5t-18.5 -59.5t-32.5 -54.5t-37 -47t-45.5 -42.5t-44.5 -35t-47.5 -31.5t-41.5 -25t-39 -22.5 q52 -138 205 -365q57 108 96 267h158q-7 -57 -34.5 -149t-78.5 -183q-8 -15 -23.5 -38.5t-21.5 -33.5q32 -42 83 -74t118 -32q19 0 57 6v-170q-33 -8 -73 -8q-58 0 -107 13t-87 38.5t-60 45.5t-49 50q-14 -9 -36 -27t-36 -28q-140 -94 -291 -94q-170 0 -283.5 114.5 t-113.5 282.5zM252 397q0 -104 74.5 -180t177.5 -76q41 0 77.5 9.5t69 30t48 32.5t42.5 35q-48 72 -136 220t-113 204l-9 18q-106 -46 -168.5 -122t-62.5 -171zM512 1128q0 -36 17 -91.5t29.5 -84t21.5 -45.5l14 6q89 38 151 106t62 146q0 62 -36.5 104t-98.5 42 q-24 0 -49.5 -9.5t-51.5 -29t-42.5 -57t-16.5 -87.5z" />
<glyph unicode="'" horiz-adv-x="425" d="M104 1446h218l-37 -588h-144z" />
<glyph unicode="(" horiz-adv-x="641" d="M178 651q0 101 18 210t46.5 199.5t52.5 151.5t45 105q19 39 53.5 101t60.5 105.5t27 43.5h133q-7 -11 -39 -68q-36 -67 -68 -140t-73 -187t-65.5 -250t-24.5 -269q0 -140 29 -289.5t73.5 -269.5t87.5 -208.5t80 -143.5h-133q-41 54 -88.5 142.5t-98 209t-83.5 269.5 t-33 288z" />
<glyph unicode=")" horiz-adv-x="641" d="M27 -258q38 61 69 131q201 399 201 782q0 142 -28.5 291t-73.5 268.5t-87 207t-81 145.5h133q13 -17 59 -94q76 -131 128.5 -262t75 -238.5t30.5 -180t8 -137.5t-8.5 -138.5t-32 -182t-76.5 -240.5t-131 -264q-34 -63 -53 -88h-133z" />
<glyph unicode="*" horiz-adv-x="743" d="M41 1157l37 121l231 -74v242h125v-242l234 74l34 -121l-233 -74l154 -190l-101 -82l-145 197l-137 -197l-105 68l146 204z" />
<glyph unicode="+" horiz-adv-x="1193" d="M10 508v156h510v505h156v-505h508v-156h-508v-508h-156v508h-510z" />
<glyph unicode="," horiz-adv-x="468" d="M133 0v223h203v-104v-10q0 -237 -84 -428h-96q67 195 67 319h-90z" />
<glyph unicode="-" horiz-adv-x="598" d="M92 526v156h416v-156h-416z" />
<glyph unicode="." horiz-adv-x="468" d="M133 0v231h203v-231h-203z" />
<glyph unicode="/" horiz-adv-x="681" d="M27 0l477 1438h153l-473 -1438h-157z" />
<glyph unicode="0" horiz-adv-x="1271" d="M102 713q0 179 34 318t86.5 222t125 137t141.5 73.5t144 19.5q54 0 105 -9.5t106 -34t102 -62.5t90 -98.5t73 -137.5t47.5 -184.5t17.5 -235.5q0 -85 -12.5 -170.5t-38 -171.5t-69 -160t-101 -132t-138.5 -91t-176 -33q-137 0 -242 59t-168.5 163t-95 237t-31.5 291z M285 723q0 -175 37 -307.5t118.5 -212.5t198.5 -80q60 0 111 24t86.5 63t63 92t44 107.5t27 114t14.5 106.5t4 89q0 72 -8 144.5t-31.5 158t-60.5 149.5t-101.5 107t-148.5 43q-92 0 -161.5 -46t-110.5 -128.5t-61.5 -188.5t-20.5 -235z" />
<glyph unicode="1" horiz-adv-x="1177" d="M242 1077v127q91 0 151.5 14.5t97 47.5t55.5 74.5t32 107.5h137v-1448h-193v1137q-31 -33 -105 -46.5t-138 -13.5h-37z" />
<glyph unicode="2" horiz-adv-x="1249" d="M121 1022q0 106 32.5 189t83 133t118 82.5t131.5 44.5t130 12q227 0 366.5 -121.5t139.5 -351.5q0 -81 -25.5 -162.5t-67 -150.5t-101 -138t-120 -124t-133 -109.5t-130.5 -92.5t-121 -75h717v-158h-959v176q45 32 128 89.5t134 93t124.5 92t119.5 99.5t98.5 102.5 t82 113t49.5 119.5t20 133q0 141 -94.5 223t-229.5 82q-154 0 -238.5 -83t-84.5 -222q0 -99 24 -162l-170 16q-24 79 -24 150z" />
<glyph unicode="3" horiz-adv-x="1247" d="M111 432h184q2 -42 10.5 -79t31.5 -80t59.5 -74t99.5 -51.5t145 -20.5q51 0 97 8.5t89 29t74.5 51t50.5 78.5t19 107q0 65 -21 114.5t-53.5 78.5t-78.5 47t-90 24.5t-93 6.5q-57 0 -127 -6v165q78 -4 102 -4q159 0 243.5 69.5t84.5 203.5q0 99 -80 163t-225 64 q-56 0 -105.5 -16t-93 -51t-69 -99.5t-25.5 -152.5l-182 8q3 101 32 182t75 133t108 87t127 50t135 15q124 0 219.5 -31.5t153 -86.5t86 -125t28.5 -153q0 -107 -71 -206.5t-183 -124.5q108 -8 202.5 -109t94.5 -229q0 -66 -16.5 -128.5t-55 -122.5t-96 -104.5t-146 -72 t-198.5 -27.5q-118 0 -213 29.5t-155 76.5t-100.5 109.5t-57 125.5t-16.5 128z" />
<glyph unicode="4" horiz-adv-x="1247" d="M86 365v165l713 916h143v-926h201v-155h-201v-365h-178v365h-678zM272 520h500v651z" />
<glyph unicode="5" horiz-adv-x="1249" d="M106 406l183 12q5 -38 12 -69.5t29.5 -76.5t55.5 -75.5t93 -53t139 -22.5q159 0 245.5 102t86.5 260q0 160 -85.5 257.5t-239.5 97.5q-112 0 -190 -50t-111 -129h-166l45 787h839v-162h-700l-18 -399q44 49 134.5 80.5t200.5 31.5q102 0 190 -35t153 -100t102 -165 t37 -222q0 -103 -34.5 -195.5t-98.5 -163t-162 -112t-217 -41.5q-241 0 -376 120t-147 323z" />
<glyph unicode="6" horiz-adv-x="1286" d="M121 715q0 347 149.5 557.5t395.5 210.5q190 0 314 -86.5t161 -270.5l-178 -24q-2 33 -21 70.5t-53.5 72.5t-92.5 58.5t-126 23.5q-83 0 -149 -38t-107.5 -98t-69 -140t-38.5 -158t-11 -158q34 87 143.5 152t251.5 65q135 0 246 -60t176.5 -172.5t65.5 -256.5 q0 -230 -137.5 -365t-370.5 -135q-117 0 -211.5 41t-156.5 110.5t-103.5 166.5t-59.5 204.5t-18 229.5zM344 455q0 -142 95 -235t231 -93q145 0 236 88.5t91 239.5q0 38 -8 78.5t-31 87.5t-57.5 83t-94.5 60t-136 24q-146 0 -236 -97.5t-90 -235.5z" />
<glyph unicode="7" horiz-adv-x="1304" d="M197 1282v164h936v-164q-129 -149 -257 -389.5t-213 -483.5t-98 -409h-217q27 165 87.5 338t127.5 306.5t152 269t143 214.5t119 154h-780z" />
<glyph unicode="8" horiz-adv-x="1296" d="M104 410q0 128 75 234.5t177 141.5q-96 27 -156.5 115t-60.5 184q0 60 17 116t56 108t96 90t143.5 61t193.5 23q237 0 365.5 -110.5t128.5 -287.5q0 -56 -22.5 -107t-58 -87t-71 -60t-69.5 -38q109 -27 182.5 -141t73.5 -238q0 -59 -16 -118t-55.5 -120t-98 -107.5 t-152.5 -76t-211 -29.5q-120 0 -215.5 29t-154.5 75t-98 106.5t-54 119t-15 117.5zM291 412q0 -73 29 -129t79.5 -88t111.5 -48t130 -16q90 0 167 31t128 97.5t51 156.5q0 71 -32 127.5t-84 89.5t-111 50t-119 17q-84 0 -152.5 -24t-110.5 -65t-64.5 -92t-22.5 -107z M322 1094q0 -42 17 -82t52.5 -76.5t100 -59t149.5 -22.5q145 0 230 65t85 175q0 76 -46.5 129.5t-117 77.5t-155.5 24q-157 0 -236 -66.5t-79 -164.5z" />
<glyph unicode="9" horiz-adv-x="1288" d="M109 973q0 142 61.5 257.5t179 184t271.5 68.5q267 0 408.5 -185.5t141.5 -552.5q0 -228 -61 -402t-187.5 -277t-304.5 -103q-94 0 -174 25.5t-131 63.5t-88.5 86.5t-55 91t-22.5 79.5l179 35q9 -100 90.5 -161.5t204.5 -61.5q98 0 168.5 39t113 114t64.5 170t30 222 q-47 -65 -154 -121t-225 -56q-226 0 -367.5 134.5t-141.5 349.5zM287 983q0 -142 86.5 -236t244.5 -94q96 0 174 35.5t127.5 113t49.5 185.5q0 147 -99.5 244.5t-253.5 97.5q-105 0 -182 -54t-112 -131t-35 -161z" />
<glyph unicode=":" d="M176 0v231h203v-231h-203zM176 772v229h203v-229h-203z" />
<glyph unicode=";" d="M176 0v227h203v-125q0 -209 -51 -350q-5 -14 -14.5 -35t-14.5 -34h-92q51 166 51 305v12h-82zM176 778v226h203v-226h-203z" />
<glyph unicode="&#x3c;" horiz-adv-x="1193" d="M10 514v143l1174 521v-168l-957 -424l957 -428v-168z" />
<glyph unicode="=" horiz-adv-x="1193" d="M10 354v146h1174v-146h-1174zM10 688v148h1174v-148h-1174z" />
<glyph unicode="&#x3e;" horiz-adv-x="1193" d="M10 -10v168l957 428l-957 424v168l1174 -521v-143z" />
<glyph unicode="?" horiz-adv-x="1034" d="M41 965v14v16q0 32 3 63t18 85.5t41 100.5t78.5 95t123.5 80q90 39 195 39q90 0 174.5 -30.5t151 -85.5t107 -140t40.5 -186q0 -130 -64 -221.5t-155 -135.5q-19 -9 -42 -16t-44 -11.5t-38.5 -7t-31 -4.5t-14.5 -2v-311h-162v484h29q115 0 185 21t114 73q53 63 53 153 q0 86 -48 149t-116 90.5t-143 27.5q-57 0 -102.5 -15.5t-73.5 -38t-48.5 -56.5t-30.5 -62t-15.5 -63.5t-6 -52t-0.5 -36.5v-16h-178zM410 0v199h182v-199h-182z" />
<glyph unicode="@" horiz-adv-x="1835" d="M141 487q0 186 71 362t193 310.5t298.5 216.5t375.5 82q130 0 241 -38t194.5 -111t131.5 -187t48 -258q0 -141 -42 -275.5t-108.5 -231t-152 -155.5t-170.5 -59q-11 0 -22 1t-34.5 7.5t-42 17.5t-37.5 35t-28 56q-6 20 -6 59q-25 -32 -47 -55.5t-60 -54t-86 -47.5 t-102 -17q-50 0 -96 19t-85.5 57t-62.5 104t-23 152q0 83 20.5 171t77 185t140.5 158q93 68 195 68q133 0 208 -117q13 -19 27 -55l31 127h139l-67 -307q-58 -260 -58 -353q0 -43 17 -65.5t47 -22.5q63 0 133 84q88 102 132 244t44 262q0 238 -138 365t-368 127 q-171 0 -324 -75t-259 -196.5t-168 -278t-62 -317.5q0 -146 51 -264.5t142 -196t214.5 -119.5t268.5 -42q112 0 220 29t195 77.5t149 94.5t116 98l67 -84q-59 -59 -128 -110.5t-164 -103.5t-214 -83t-245 -31q-184 0 -357 72q-87 36 -157 88t-114 103.5t-76 115t-47.5 112 t-24 105.5t-10 85t-1.5 60zM651 487q0 -107 47 -159t117 -52q86 0 163.5 82.5t111.5 227.5q16 70 16 127v8q0 47 -6 70q-12 43 -34 73t-48 43t-46 18t-38 5q-68 0 -129 -53q-79 -65 -116.5 -180t-37.5 -210z" />
<glyph unicode="A" horiz-adv-x="1277" d="M0 0l551 1446h201l526 -1446h-203l-157 442h-551l-162 -442h-205zM428 604h432l-211 604z" />
<glyph unicode="B" horiz-adv-x="1421" d="M160 0v1446h596h20q64 0 105.5 -3t100.5 -15t110 -42t94 -77q84 -92 84 -232q0 -107 -46 -179t-116 -112q-12 -7 -24 -12t-22.5 -8t-12.5 -4q37 -9 71.5 -26t70 -47t62 -68.5t43.5 -96t17 -125.5q0 -158 -86 -256q-35 -40 -79.5 -68.5t-82.5 -43t-90 -22t-83.5 -8.5 t-82.5 -1h-649zM342 170h428q38 0 61 0.5t59.5 3.5t59.5 10t51.5 18t46.5 29.5t34.5 43t24 60t7.5 79.5q0 100 -53 164q-50 62 -115 79t-162 17h-34h-408v-504zM342 838h303q237 0 291 22q52 22 86 64q45 57 45 143q0 209 -262 209h-463v-438z" />
<glyph unicode="C" horiz-adv-x="1568" d="M102 727q0 223 86.5 393.5t254 266.5t393.5 96q116 0 215.5 -26t170.5 -68.5t126.5 -101t89.5 -119.5t55 -128l-195 -41q-35 102 -79 156q-62 77 -159 125.5t-226 48.5q-73 0 -143 -17.5t-139.5 -61.5t-121 -110t-83.5 -171.5t-32 -237.5q0 -91 17 -175.5t56 -164 t97 -138.5t147 -94.5t199 -35.5q191 0 320.5 112.5t161.5 313.5l209 -25q-14 -69 -45 -140t-90.5 -148t-136.5 -136.5t-192 -98t-249 -38.5q-136 0 -251 39t-198.5 109t-142 165.5t-87 209.5t-28.5 241z" />
<glyph unicode="D" horiz-adv-x="1449" d="M160 0v1446h508h4q60 0 92.5 -1t83 -8.5t92.5 -21.5q89 -30 161.5 -86t128.5 -140t87 -204.5t31 -267.5q0 -110 -18.5 -208t-66 -193t-120 -163.5t-189 -110.5t-264.5 -42h-530zM358 168h256q102 0 156 6.5t104 24.5q69 26 121.5 74t81 101t46.5 118.5t23 117t5 105.5 q0 51 -4.5 97.5t-15.5 105t-33.5 108t-55.5 96t-85.5 81.5t-118.5 52q-83 21 -222 21h-258v-1108z" />
<glyph unicode="E" horiz-adv-x="1214" d="M160 0v1446h995v-170h-811v-447h705v-167h-705v-494h836v-168h-1020z" />
<glyph unicode="F" horiz-adv-x="1110" d="M160 0v1446h927v-172h-735v-426h684v-168h-684v-680h-192z" />
<glyph unicode="G" horiz-adv-x="1662" d="M102 705q0 125 30 236.5t82.5 196t116.5 147.5t138 106q159 92 381 92q109 0 206 -25.5t168 -66t130.5 -96.5t98 -113t65.5 -119l-201 -53q-21 64 -56.5 115.5t-72.5 83.5t-83 55.5t-81 34t-75.5 17t-57 7t-33.5 0.5q-172 0 -285 -72q-111 -68 -184.5 -204.5 t-73.5 -315.5q0 -190 71 -323.5t177 -200.5q118 -76 279 -76q153 0 267 59t175 150q66 101 66 244v6v12h-504v162h672v-764h-168v203q-30 -42 -60 -72q-172 -168 -465 -168q-322 0 -522.5 206t-200.5 536z" />
<glyph unicode="H" horiz-adv-x="1490" d="M160 0v1446h190v-615h787v615h194v-1446h-194v662h-787v-662h-190z" />
<glyph unicode="I" horiz-adv-x="514" d="M160 0v1446h194v-1446h-194z" />
<glyph unicode="J" horiz-adv-x="733" d="M0 -16v211q38 -22 87.5 -31.5t72.5 -9.5q47 0 83.5 7.5t61 19t41.5 32t26 39t14 47.5t6 50t1 54v1043h197v-1088q0 -107 -23 -174q-23 -62 -65.5 -107t-83.5 -66t-93 -33t-76.5 -13.5t-51.5 -1.5h-2q-29 0 -59.5 2.5t-47 4.5t-49 7.5t-39.5 6.5z" />
<glyph unicode="K" horiz-adv-x="1261" d="M160 0v1446h192v-707l686 707h238l-586 -598l610 -848h-235l-508 713l-205 -209v-504h-192z" />
<glyph unicode="L" horiz-adv-x="1056" d="M160 0v1446h192v-1274h701v-172h-893z" />
<glyph unicode="M" horiz-adv-x="1708" d="M160 0v1446h250l442 -1186l446 1186h250v-1446h-192l26 1212l-456 -1212h-150l-448 1194l20 -1194h-188z" />
<glyph unicode="N" horiz-adv-x="1449" d="M160 0v1446h182l782 -1159l-8 1159h174v-1446h-174l-792 1176l18 -1176h-182z" />
<glyph unicode="O" horiz-adv-x="1660" d="M102 723v16q0 29 1.5 57.5t9.5 82.5t22 103t42 110.5t66 113.5t98 104.5t134 90.5q160 82 361 82q215 0 387 -103q68 -40 122.5 -92.5t88.5 -103.5t59.5 -111.5t37.5 -106t19 -96.5t8 -75.5t1 -49.5v-8q0 -166 -48 -305q-43 -123 -115.5 -214.5t-164 -146.5t-193.5 -81.5 t-215 -26.5q-218 0 -383 98.5t-251.5 270t-86.5 391.5zM311 719q0 -89 17.5 -173t57.5 -163.5t99 -138t149 -94t200 -35.5q115 0 206 37.5t148 97.5t94.5 141.5t52.5 164t15 171.5q0 114 -23 209q-51 195 -182.5 293t-310.5 98q-110 0 -199.5 -33t-149 -90t-99.5 -135.5 t-57.5 -165.5t-17.5 -184z" />
<glyph unicode="P" horiz-adv-x="1304" d="M160 0v1446h657h23q98 0 168 -23q69 -23 119.5 -65t79 -96t42 -111t13.5 -119q0 -57 -14.5 -115t-44.5 -114.5t-84.5 -102t-127.5 -67.5q-74 -21 -186 -21h-17h-442v-612h-186zM346 784h467q77 0 129.5 24t89.5 81q39 60 39 151v7q0 47 -12.5 84.5t-30.5 61t-45 41 t-50.5 26t-52.5 13.5t-45 6t-34 1h-8h-447v-496z" />
<glyph unicode="Q" horiz-adv-x="1669" d="M102 723q0 223 91 395.5t259 268.5t388 96q173 0 312.5 -58.5t229 -162t137.5 -241.5t48 -300q0 -218 -86 -379q-8 -15 -23.5 -40t-23.5 -40l223 -192l-123 -144l-229 195q-98 -74 -206.5 -116t-269.5 -42q-166 0 -304 58.5t-230 161t-142.5 241.5t-50.5 299zM313 725 q0 -92 19 -178.5t60.5 -164.5t101.5 -136.5t148.5 -92.5t195.5 -34q176 0 307 94t186 279q29 101 29 229q0 167 -53 295q-17 43 -40 82t-63.5 83.5t-90 76.5t-122 53.5t-157.5 21.5q-84 0 -157.5 -23.5t-124.5 -59t-93 -84t-66.5 -92.5t-40.5 -89q-39 -115 -39 -260z" />
<glyph unicode="R" horiz-adv-x="1376" d="M160 0v1446h538h80q63 0 110.5 -4.5t107 -19t111 -48t91.5 -84.5q82 -101 82 -258q0 -278 -223 -373q-23 -10 -47 -17t-46.5 -11t-23.5 -4l406 -627h-230l-395 614h-373v-614h-188zM348 776h385q125 0 190.5 16.5t110.5 69.5q56 64 56 162q0 68 -23.5 119t-55.5 77.5 t-74 42t-70.5 19.5t-53.5 4h-465v-510z" />
<glyph unicode="S" horiz-adv-x="1366" d="M76 463l207 26q0 -38 7.5 -76.5t24.5 -82t49 -81t76 -68.5t111 -48.5t149 -17.5q62 0 121 15t114.5 46.5t89.5 91t34 138.5q0 36 -9 66t-22.5 51t-37 39.5t-43.5 29.5t-52.5 21.5t-54 16t-56.5 13.5l-122 27q-181 39 -263 73q-254 104 -254 340q0 132 92.5 236.5 t243.5 142.5q75 21 191 21q369 0 510 -252q16 -29 27.5 -62.5t16.5 -54t10 -47.5t5 -29l-194 -14q0 2 -1 13.5t-2 21.5t-3.5 24t-7.5 29.5t-11 30.5q-79 190 -346 190q-156 0 -244 -62t-88 -163q0 -25 5.5 -47.5t13.5 -39.5t23.5 -33t28 -26.5t34 -21.5t35.5 -17t39 -13.5 t37 -11t37.5 -9.5t33.5 -8l157 -39q21 -5 55.5 -13.5t55.5 -13.5q31 -8 53.5 -15t63.5 -24t71 -36t66 -51t59 -69t38.5 -90t15.5 -114q0 -91 -36 -171.5t-104.5 -144t-180.5 -100.5t-253 -37q-453 0 -579 324q-37 97 -37 176z" />
<glyph unicode="T" horiz-adv-x="1079" d="M10 1278v168h1059v-168h-432v-1278h-193v1278h-434z" />
<glyph unicode="U" horiz-adv-x="1376" d="M139 496v49v901h195v-924v-12q0 -29 1 -52t8.5 -65t20 -74.5t38.5 -70.5t61.5 -62.5t91 -41.5t125.5 -17q136 0 221 61q33 23 58 52t39.5 62.5t24 63.5t13.5 69t5 64.5t1 63.5v19v864h195v-924q0 -135 -27 -221q-46 -145 -183 -241.5t-347 -96.5q-113 0 -206 29 t-155 78.5t-102 109t-59 127.5t-19 189z" />
<glyph unicode="V" horiz-adv-x="1189" d="M0 1446h205l383 -1208l397 1208h205l-510 -1446h-191z" />
<glyph unicode="W" horiz-adv-x="2017" d="M0 1446h203l342 -1198l366 1198h189l381 -1198l338 1198h198l-442 -1446h-189l-380 1198l-369 -1198h-193z" />
<glyph unicode="X" horiz-adv-x="1196" d="M0 0l481 758l-454 688h229l338 -520l324 520h227l-443 -688l494 -758h-227l-375 588l-371 -588h-223z" />
<glyph unicode="Y" horiz-adv-x="1222" d="M0 1446h227l381 -612l385 612h230l-521 -784v-662h-194v662z" />
<glyph unicode="Z" horiz-adv-x="1236" d="M37 0v188l893 1082h-821v176h1040v-180l-889 -1092h909v-174h-1132z" />
<glyph unicode="[" horiz-adv-x="641" d="M233 -227v1753h385v-127h-212v-1503h212v-123h-385z" />
<glyph unicode="\" horiz-adv-x="681" d="M27 1438h157l473 -1438h-153z" />
<glyph unicode="]" horiz-adv-x="641" d="M23 -100h213v1501h-213v125h383v-1753h-383v127z" />
<glyph unicode="^" horiz-adv-x="993" d="M41 688l385 758h158l368 -758h-198l-254 533l-262 -533h-197z" />
<glyph unicode="_" horiz-adv-x="1024" d="M-20 -281h1064v-161h-1064v161z" />
<glyph unicode="`" d="M143 1362h183l86 -295h-99z" />
<glyph unicode="a" horiz-adv-x="1024" d="M66 248q0 82 49 153q54 74 158.5 112t267.5 52q91 7 168 15v16q0 50 -3.5 85t-16.5 73.5t-36 61.5t-64.5 38.5t-99.5 15.5q-20 0 -39 -2t-51.5 -12.5t-55.5 -28t-40.5 -54t-17.5 -85.5v-20l-170 10q3 43 14 84t38.5 84.5t67.5 75.5t105 52.5t147 20.5q51 0 101.5 -9 t105.5 -30.5t98.5 -65t63.5 -104.5q16 -51 16 -133v-26v-391q0 -52 17 -76.5t55 -24.5q27 0 51 8v-137q-54 -18 -102 -18h-4q-143 0 -166 143q-141 -158 -324 -158q-85 0 -158.5 28t-124 92.5t-50.5 154.5zM246 254q0 -60 45.5 -101.5t136.5 -41.5q31 0 63.5 5.5t73 23 t71.5 46.5t52 81.5t21 121.5v82q-7 -1 -55.5 -8.5t-79 -12.5t-75.5 -13.5t-78.5 -17.5t-55.5 -18q-16 -6 -32 -15.5t-38 -26.5t-35.5 -44.5t-13.5 -60.5z" />
<glyph unicode="b" horiz-adv-x="1155" d="M133 0v1446h164v-615q123 164 336 164q125 0 215 -55q60 -35 104 -86t66.5 -97.5t35.5 -101.5t16 -87t3 -64v-23q0 -101 -26.5 -191t-79 -163t-139.5 -115.5t-199 -42.5q-210 0 -332 156v-125h-164zM293 471q0 -110 39 -192q83 -170 266 -170q66 0 118.5 23t86 60.5 t56 88t31.5 103t9 108.5q0 93 -27 164t-72 111t-95.5 59.5t-104.5 19.5q-56 0 -107.5 -19.5t-97.5 -60.5t-74 -117t-28 -178z" />
<glyph unicode="c" horiz-adv-x="1064" d="M82 473q0 80 16.5 153.5t52.5 141.5t89 118t131.5 79.5t173.5 29.5t173 -24.5t125.5 -60.5t82 -82.5t49 -84t20.5 -71.5l-180 -19q-41 224 -270 224q-132 0 -207.5 -105.5t-75.5 -292.5q0 -52 7.5 -101t28.5 -101.5t54 -91.5t89 -64t128 -25q44 0 81 10t62.5 24.5 t46.5 38.5t32.5 42.5t21.5 47.5t13 42.5t8 38.5l4 25l178 -17q-7 -28 -11.5 -45t-16 -50.5t-23 -56t-32 -55t-43.5 -54.5t-56.5 -46t-72.5 -38.5t-90 -24t-110 -9.5q-106 0 -191 32.5t-137.5 84t-87.5 120t-49 134.5t-14 133z" />
<glyph unicode="d" horiz-adv-x="1153" d="M82 489v15q0 29 2.5 59t15.5 86t35.5 104t69 101t108.5 88q95 53 209 53q118 0 203.5 -46.5t130.5 -110.5v608h164v-1446h-164v125q-30 -38 -59 -62q-109 -94 -273 -94q-78 0 -144 21.5t-109.5 54.5t-78 77.5t-52.5 83.5t-31 81q-27 89 -27 202zM258 475q0 -49 8.5 -96.5 t30 -96.5t54.5 -85t86 -59t120 -23q65 0 117.5 22t86.5 57.5t57 84.5t32.5 100t9.5 106q0 96 -28 169.5t-73.5 113.5t-96 59t-103.5 19q-90 0 -158 -45q-143 -91 -143 -307v-19z" />
<glyph unicode="e" horiz-adv-x="1062" d="M82 489q0 113 33 203.5t83 145.5t114 92t122.5 51t112.5 14q64 0 124.5 -16t119.5 -54.5t102.5 -96.5t70.5 -149.5t27 -205.5v-18h-733v-17q0 -101 41 -179.5t96 -117.5q69 -49 164 -49h10q161 0 232 150q6 14 11.5 30.5t9.5 30.5l3 14l166 -22q-1 -3 -7 -19.5t-11.5 -30 t-16 -35t-22.5 -40.5q-35 -55 -81.5 -95.5t-86 -60t-85.5 -30.5t-69.5 -13t-48.5 -2h-10q-116 0 -207 40.5t-148 112t-86.5 165t-29.5 202.5zM262 571h551q0 120 -76 208.5t-200 88.5q-83 0 -144.5 -43.5t-92.5 -108.5t-38 -145z" />
<glyph unicode="f" d="M23 829v136h159v82v73q0 96 17.5 161t74.5 110q56 45 162 45q39 0 119 -13v-129q-50 11 -90 11q-35 0 -59 -11.5t-36.5 -26.5t-19 -41.5t-7.5 -44.5t-1 -48v-168h182v-136h-182v-829h-160v829h-159z" />
<glyph unicode="g" horiz-adv-x="1148" d="M82 477q0 111 27.5 201t72 148t104 97t120.5 55.5t124 16.5q73 0 137.5 -27t101 -58t77.5 -76v131h170v-951q0 -47 -2.5 -83.5t-10 -84t-24.5 -85.5t-42.5 -76t-67.5 -68.5t-97 -50.5q-95 -35 -205 -35q-66 0 -125.5 12t-114.5 39t-96.5 67.5t-69 102t-34.5 137.5h184 v-10q0 -88 65.5 -151.5t201.5 -63.5q111 0 170 41q29 19 48 44.5t29 48.5t14.5 66t5.5 72.5t1 92.5v110q-60 -76 -133.5 -123t-182.5 -47q-124 0 -219 56q-66 39 -113.5 94.5t-71.5 118.5t-34 120.5t-10 118.5zM250 489q0 -101 25 -176t69 -116t96.5 -60.5t114.5 -19.5 q60 0 111 20t94 62.5t67.5 118.5t24.5 178q0 79 -19.5 141.5t-50 101t-72 64t-82 35.5t-83.5 10q-69 0 -129 -31q-77 -40 -121.5 -124t-44.5 -204z" />
<glyph unicode="h" horiz-adv-x="1069" d="M133 0v1446h164v-578q62 62 126.5 94.5t172.5 32.5q47 0 91.5 -9.5t90 -32t81.5 -66.5t56 -105q21 -62 21 -178v-4v-600h-166v510v27q0 117 -12.5 173.5t-61.5 96.5q-55 45 -133 45q-91 0 -153 -47q-65 -49 -89 -119.5t-24 -193.5v-492h-164z" />
<glyph unicode="i" horiz-adv-x="423" d="M133 0v965h158v-965h-158zM133 1257v189h158v-189h-158z" />
<glyph unicode="j" horiz-adv-x="425" d="M-47 -315q2 0 29.5 -3.5t44.5 -3.5q36 0 58.5 9.5t32 29t12.5 38t3 48.5v29v1133h160v-1178v-25q0 -33 -2.5 -57.5t-15 -60t-34.5 -58t-65.5 -39t-103.5 -16.5q-41 0 -119 8v146zM133 1255v191h160v-191h-160z" />
<glyph unicode="k" horiz-adv-x="937" d="M133 0v1446h166v-891l385 410h201l-359 -381l441 -584h-205l-346 463l-117 -123v-340h-166z" />
<glyph unicode="l" horiz-adv-x="421" d="M133 0v1446h156v-1446h-156z" />
<glyph unicode="m" horiz-adv-x="1583" d="M133 0v965h154v-131q141 161 286 161h5q120 0 202 -90q10 -11 18 -23t13 -20t13.5 -22.5t13.5 -22.5q157 178 321 178q95 0 174 -59q52 -38 79.5 -92.5t32.5 -96.5t5 -106v-37v-604h-160v623q0 217 -178 217q-72 0 -149 -49q-59 -42 -77 -87t-18 -106v-55v-543h-159v621 q0 76 -18 120t-60 72q-41 27 -101 27q-64 0 -134.5 -39.5t-96.5 -108.5q-12 -34 -12 -119v-573h-154z" />
<glyph unicode="n" horiz-adv-x="1067" d="M133 0v965h164v-142q28 48 67.5 83t72.5 51.5t71.5 25.5t56 10.5t35.5 1.5q103 0 192.5 -53.5t125.5 -161.5q16 -47 16 -155v-15v-610h-162v592q0 33 -0.5 50.5t-5.5 46t-14.5 47t-28.5 40t-47 37.5q-52 29 -127 29q-91 0 -152 -49.5t-84 -110.5q-16 -47 -16 -152v-26 v-504h-164z" />
<glyph unicode="o" horiz-adv-x="1110" d="M82 477q0 172 71.5 292t176.5 175q98 51 233 51q114 0 204 -41.5t146.5 -113t85.5 -162.5t29 -195q0 -95 -27 -184q-17 -58 -48.5 -111t-83 -105t-132.5 -83t-180 -31q-151 0 -260.5 69.5t-162 183t-52.5 255.5zM260 471q0 -18 1 -37.5t7.5 -58.5t17.5 -72.5t33 -72.5 t52.5 -66t78.5 -45.5t107 -18.5q132 0 213.5 94.5t81.5 297.5q0 102 -23 176t-64 116t-90 61t-108 19q-71 0 -126.5 -24.5t-89 -63.5t-54.5 -91.5t-29 -103t-8 -104.5v-6z" />
<glyph unicode="p" horiz-adv-x="1153" d="M133 -459v1424h160v-140q46 57 100.5 94.5t106.5 52t83 19t62 4.5q66 0 130 -24.5t104 -55.5q192 -141 192 -434q0 -104 -28.5 -195t-82.5 -162.5t-141.5 -113t-197.5 -41.5q-212 0 -328 144v-572h-160zM293 465q0 -71 18.5 -133t54.5 -111.5t95 -78.5t135 -29 q95 0 166 41q63 40 102 124.5t39 202.5q0 55 -10.5 106.5t-33.5 98t-57 81t-84.5 55t-111.5 20.5q-99 0 -170 -49q-66 -43 -104.5 -127t-38.5 -201z" />
<glyph unicode="q" horiz-adv-x="1150" d="M82 471q0 113 27.5 204.5t71 149.5t101 97.5t115 56t115.5 16.5q224 0 340 -174v144h166v-1426h-166v576q-6 -6 -12.5 -15t-14.5 -17.5t-24 -21.5q-104 -92 -281 -92q-112 0 -198 41t-137.5 112t-77 159.5t-25.5 189.5zM260 471q0 -98 24.5 -171t67.5 -115t95 -62.5 t114 -20.5q95 0 172 50q131 87 131 294q0 73 -16 139.5t-49.5 126t-95 95t-144.5 35.5q-77 0 -135 -27q-164 -78 -164 -344z" />
<glyph unicode="r" horiz-adv-x="626" d="M133 0v965h164v-177q104 189 330 189v-176q-24 4 -66 4h-8q-85 0 -145 -41q-39 -27 -63 -62t-33.5 -77.5t-12 -71t-2.5 -72.5v-481h-164z" />
<glyph unicode="s" horiz-adv-x="980" d="M63 311l187 29v-18q0 -46 12.5 -83t30.5 -60t45 -40t50 -25.5t51 -13t42.5 -5.5t30.5 -1h4q113 0 170 44t57 118q0 71 -43.5 100.5t-156.5 53.5l-92 18q-37 7 -62 13t-65 18t-67 25.5t-58.5 35t-50 47t-31.5 62t-13 78.5q0 124 96 206t279 82q130 0 226 -51t141 -127 q35 -55 45 -139l-176 -23v7q0 55 -22 97t-59.5 65t-80.5 34.5t-90 11.5q-91 0 -144 -42.5t-53 -96.5q0 -23 7.5 -41.5t25.5 -33t35.5 -25t49 -21t54 -16.5t62.5 -16l92 -23q38 -10 62.5 -16.5t62 -20t62 -27.5t52.5 -35.5t45 -46.5t28 -59.5t11 -75.5q0 -59 -26 -113 t-75 -97t-128.5 -69t-177.5 -26q-277 0 -387 176q-47 77 -58 166z" />
<glyph unicode="t" horiz-adv-x="557" d="M12 829v136h156v305h168v-305h174v-136h-174v-553v-53q0 -57 13 -83.5t57 -26.5q30 0 104 22v-135q-2 0 -21.5 -3t-38 -5.5t-45 -5t-47.5 -2.5q-54 0 -91 11t-56.5 26t-29.5 43t-11.5 48t-1.5 56v661h-156z" />
<glyph unicode="u" horiz-adv-x="1062" d="M133 332v633h162v-613v-8q0 -18 0.5 -32t5 -38t12 -41.5t22.5 -38.5t35.5 -34t53.5 -22t74 -9q92 0 157 45q39 26 63.5 58.5t35 70.5t13.5 67t3 70v41v484h160v-965h-160v147q-4 -5 -13 -16t-19.5 -22.5t-26.5 -26.5q-116 -107 -275 -107q-95 0 -166 43q-38 23 -65 54.5 t-41 60.5t-21 69t-8.5 65.5t-1.5 64.5z" />
<glyph unicode="v" horiz-adv-x="847" d="M0 965h170l256 -740l254 740h168l-348 -965h-148z" />
<glyph unicode="w" horiz-adv-x="1449" d="M0 965h176l242 -717l237 717h144l227 -717l252 717h172l-354 -965h-144l-231 719l-236 -719h-149z" />
<glyph unicode="x" horiz-adv-x="774" d="M0 0l299 489l-285 476h189l192 -332l195 332h184l-291 -476l291 -489h-184l-205 344l-201 -344h-184z" />
<glyph unicode="y" horiz-adv-x="841" d="M-10 -309q51 -17 104 -17q75 0 111.5 39t68.5 127l13 35l41 119l-328 971h174l242 -766l256 766h170l-406 -1141q-63 -179 -123 -240t-174 -61q-75 0 -135 16l-14 4v148z" />
<glyph unicode="z" horiz-adv-x="854" d="M27 0v135l555 688h-502v142h704v-131l-561 -699h574v-135h-770z" />
<glyph unicode="{" horiz-adv-x="724" d="M113 506v102q98 25 130.5 101t32.5 227v199v79q0 51 4.5 90.5t18.5 87t45.5 84t79.5 58.5q43 19 156 29q20 1 43.5 2t42.5 2v-101q-54 -5 -89 -13t-61.5 -26.5t-40.5 -40t-22.5 -63.5t-10.5 -86.5t-2 -118.5v-96v-86q0 -137 -14.5 -213t-65.5 -119q-40 -35 -77 -47 q37 -12 77 -47q51 -43 65.5 -119t14.5 -213v-86v-96q0 -74 2 -118.5t10.5 -86.5t22.5 -63.5t40.5 -40t61.5 -26.5t89 -13v-101q-20 1 -43.5 2t-42.5 2q-113 10 -156 29q-48 22 -79.5 58.5t-45.5 84t-18.5 87t-4.5 90.5v80v198q0 151 -32.5 227t-130.5 101z" />
<glyph unicode="|" horiz-adv-x="468" d="M152 -512v2044h165v-2044h-165z" />
<glyph unicode="}" horiz-adv-x="724" d="M59 -352q54 5 89 13t61.5 26.5t40.5 40t22.5 63.5t10.5 86.5t2 118.5v96v86q0 137 14.5 213t65.5 119q40 35 77 47q-37 12 -77 47q-51 43 -65.5 119t-14.5 213v86v96q0 74 -2 118.5t-10.5 86.5t-22.5 63.5t-40.5 40t-61.5 26.5t-89 13v101q20 -1 43.5 -2t42.5 -2 q113 -10 156 -29q48 -22 79.5 -58.5t45.5 -84t18.5 -87t4.5 -90.5v-79v-199q0 -151 32.5 -227t130.5 -101v-102q-98 -25 -130.5 -101t-32.5 -227v-198v-80q0 -51 -4.5 -90.5t-18.5 -87t-45.5 -84t-79.5 -58.5q-43 -19 -156 -29q-19 -1 -42.5 -2t-43.5 -2v101z" />
<glyph unicode="~" horiz-adv-x="1067" d="M41 592q16 24 28 40t39 44t53.5 45.5t67 31t84.5 13.5q36 0 78.5 -11.5t67.5 -22t82 -36.5l67 -30q101 -43 137 -43q104 0 203 127l78 -146q-76 -94 -149 -129t-129 -35q-43 0 -86 13t-123 53l-58 29q-96 49 -164 49q-55 0 -92.5 -26t-83.5 -87l-18 -25z" />
<glyph unicode="&#xa0;" />
<glyph unicode="&#xa1;" d="M197 0v590l49 555h63l49 -578v-567h-161zM197 1262v184h161v-184h-161z" />
<glyph unicode="&#xa2;" horiz-adv-x="1024" d="M57 485q0 60 12 119.5t39 123t80 119t125 91.5q58 29 162 47v197h121v-195q40 -5 70.5 -12.5t79 -29.5t85.5 -54t76 -90.5t64 -136.5l-185 -17q-5 44 -21 79t-35 55.5t-46 37t-45.5 23t-42.5 12.5v-745q40 7 73.5 22.5t65.5 44t52 78t24 115.5l180 -17 q-56 -262 -254 -344q-51 -22 -141 -33v-211h-123v211q-1 0 -12 2t-21 4t-27.5 6.5t-33.5 9.5t-36.5 13t-39.5 17.5t-39.5 23.5t-38.5 29q-88 79 -128 190t-40 215zM231 485q0 -247 152 -340q23 -13 53 -23.5t37 -10.5v747q-58 -19 -67 -24q-81 -42 -128 -129.5t-47 -219.5z " />
<glyph unicode="&#xa3;" horiz-adv-x="1366" d="M74 575v134h268q-8 12 -19 31.5t-14 25.5q0 1 -10.5 19t-13.5 24l-12.5 25t-14 30.5t-12.5 31.5t-12 35.5t-8.5 36t-6.5 40.5t-2 41q0 76 24.5 141.5t66.5 112t95.5 82t114 56.5t119 31.5t113.5 10.5h12q28 0 57.5 -2.5t87 -16.5t106.5 -38.5t103 -74t90 -116.5 q54 -101 54 -213l-216 -23q5 35 5 39q0 134 -87 215.5t-221 81.5q-55 0 -107 -15.5t-97 -45.5t-72 -83t-27 -120q0 -45 10.5 -90t31 -85t36.5 -67t40.5 -61.5t29.5 -42.5l10 -16h428v-134h-354q43 -115 43 -188q0 -69 -23 -158q37 -23 112.5 -53.5t139.5 -30.5q53 0 93 19.5 t60.5 45.5t33 60t15.5 55.5t3 39.5l190 -13q-1 -16 -4.5 -37t-13.5 -59.5t-25 -73.5t-42 -74t-61 -67.5t-85.5 -47t-112.5 -18.5q-60 0 -125.5 15t-101.5 29.5t-91 40t-61 28.5q-15 -8 -36.5 -26t-34.5 -25q-103 -68 -217 -68q-36 0 -74 10t-74.5 30.5t-60 59t-23.5 87.5 q0 71 56 125.5t169 54.5q90 0 203 -37q4 20 4 33q0 15 -2 31.5t-5 30.5t-8.5 30.5t-10 28.5t-12 27.5t-12 24.5t-12.5 23t-11 19t-10 16t-7 12h-362zM256 145q0 -21 18 -36t48 -15q33 0 73.5 17.5t69.5 46.5q-28 11 -75.5 23t-67.5 12q-31 0 -48.5 -13.5t-17.5 -34.5z" />
<glyph unicode="&#xa4;" horiz-adv-x="1138" d="M51 297l113 119q-107 129 -107 299q0 88 28 168t83 135l-117 119l101 100l114 -115q58 49 140.5 77t168.5 28q81 0 159 -27.5t134 -75.5l117 115l102 -104l-112 -113q51 -56 78.5 -136t27.5 -167q0 -180 -106 -307l112 -115l-96 -96l-114 118q-57 -54 -137 -83t-167 -29 q-189 0 -311 110l-112 -118zM231 715q0 -149 99.5 -252t242.5 -103q141 0 237.5 105t96.5 254q0 146 -96 250t-236 104q-146 0 -245 -103.5t-99 -254.5z" />
<glyph unicode="&#xa5;" horiz-adv-x="1222" d="M0 1386h229l379 -587l387 587h228l-351 -505h230v-148h-326l-78 -106h404v-148h-400v-479h-192v479h-397v148h397l-66 104h-331v146h231z" />
<glyph unicode="&#xa6;" horiz-adv-x="468" d="M152 389h165v-780h-165v780zM152 631v780h165v-780h-165z" />
<glyph unicode="&#xa7;" horiz-adv-x="1280" d="M76 760q0 161 147 280q25 22 47 33q-47 47 -66.5 89t-19.5 93q0 57 25.5 113t75.5 104t135 77.5t192 29.5q72 0 157.5 -20.5t138.5 -42t122 -52.5t76 -34l-82 -146q-3 2 -33 19.5t-47.5 26.5t-52.5 26.5t-64 28t-66.5 22.5t-75.5 17.5t-75 5.5q-106 0 -172.5 -40 t-66.5 -106q0 -17 5.5 -33t11.5 -27.5t21.5 -24t23 -19t29 -16.5t27.5 -12.5t29.5 -12t24.5 -9.5l151 -57q100 -36 201 -84l14 -7q29 -13 46 -22t52 -30t58 -40t52 -50.5t46.5 -63.5t30 -76t12.5 -92q0 -107 -55.5 -189.5t-126.5 -125.5l-10 -6q102 -90 102 -209 q0 -53 -27 -109t-76.5 -106t-132 -81.5t-182.5 -31.5q-76 0 -163.5 19.5t-165 51.5t-117.5 50.5t-74 36.5l-16 8l82 152q32 -23 74 -46t103 -49.5t135.5 -43.5t145.5 -17q100 0 155.5 41t55.5 106q0 26 -10 48.5t-23 37t-36.5 29t-39 21.5t-42.5 18.5t-37 15.5l-129 58 q-208 90 -301 147q-102 63 -148 121q-71 89 -71 205zM262 776q0 -77 78 -145q17 -15 46 -32.5t55.5 -32t67 -34.5t61.5 -29.5t60.5 -27.5t43.5 -20l176 -80q76 29 127 88.5t51 126.5q0 52 -35 104q-13 19 -31.5 37t-35 31.5t-47 30.5t-48.5 27t-59.5 28t-61 26t-72.5 29.5 t-75 30.5l-131 53q-17 -6 -42 -21t-55.5 -40.5t-51.5 -65.5t-21 -84z" />
<glyph unicode="&#xa8;" d="M-14 1108v211h178v-211h-178zM387 1108v211h182v-211h-182z" />
<glyph unicode="&#xa9;" horiz-adv-x="1705" d="M94 723q0 155 60 295.5t161.5 242.5t242 162t294.5 60q155 0 295.5 -60t242.5 -162t162 -242.5t60 -295.5t-60 -295.5t-161.5 -242.5t-242 -162t-294.5 -60q-155 0 -295.5 60t-242.5 162t-162 242.5t-60 295.5zM207 723q0 -176 86.5 -325t235 -235.5t323.5 -86.5 q176 0 325 86.5t235.5 235.5t86.5 325t-86.5 325t-235 235.5t-323.5 86.5q-176 0 -325 -86.5t-235.5 -235.5t-86.5 -325zM393 727q0 217 124.5 350t340.5 133q92 0 166 -25t124 -68.5t82.5 -95.5t51.5 -114l-152 -30q-3 7 -10.5 26.5t-11.5 28t-11.5 23t-17.5 26.5 q-84 100 -223 100q-54 0 -103.5 -17.5t-95 -55t-73 -108.5t-27.5 -167q0 -69 16.5 -130.5t51 -113t94 -82t137.5 -30.5q111 0 185 67.5t94 196.5l163 -20q-10 -50 -30.5 -99t-58.5 -100t-87 -90t-122 -63.5t-158 -24.5q-143 0 -246.5 67t-153 174.5t-49.5 241.5z" />
<glyph unicode="&#xaa;" horiz-adv-x="641" d="M61 1020q0 47 18.5 81t48.5 55t80.5 35t101 20t122.5 10v22q0 33 -4 55.5t-15 44t-35 32.5t-61 11q-116 0 -116 -108v-12l-113 8q1 1 3 14.5t7 33.5t11 34q51 114 206 114q82 0 134.5 -33t72.5 -87q13 -32 13 -99v-202q0 -19 1 -31t5 -26.5t14 -21.5t25 -7q17 0 30 10 v-94q-32 -13 -61 -13q-78 0 -111 76q-38 -42 -81 -63t-111 -21q-77 0 -131 42t-54 120zM180 1024q0 -39 30 -58.5t69 -19.5q26 0 51 7.5t49 25t38.5 52t14.5 81.5v35l-43 -6q-153 -22 -186 -58q-23 -25 -23 -59z" />
<glyph unicode="&#xab;" horiz-adv-x="835" d="M119 512v174l276 240v-187l-159 -139l159 -137v-182zM442 520v170l275 238v-183l-164 -145l164 -135v-176z" />
<glyph unicode="&#xac;" horiz-adv-x="1193" d="M10 688v148h1174v-482h-156v334h-1018z" />
<glyph unicode="&#xad;" horiz-adv-x="598" d="M92 526v156h416v-156h-416z" />
<glyph unicode="&#xae;" horiz-adv-x="1705" d="M94 723q0 155 60 295.5t161.5 242.5t242 162t294.5 60q155 0 295.5 -60t242.5 -162t162 -242.5t60 -295.5t-60 -295.5t-161.5 -242.5t-242 -162t-294.5 -60q-155 0 -295.5 60t-242.5 162t-162 242.5t-60 295.5zM207 723q0 -176 86.5 -325t235 -235.5t323.5 -86.5 q176 0 325 86.5t235.5 235.5t86.5 325t-86.5 325t-235 235.5t-323.5 86.5q-176 0 -325 -86.5t-235.5 -235.5t-86.5 -325zM508 270v918h344h41q95 0 160.5 -19t115.5 -82q54 -69 54 -178q0 -95 -51 -163t-146 -89l250 -387h-180l-240 375h-199v-375h-149zM657 780h215 q73 0 109 8.5t61 36.5q29 31 29 88q0 74 -44.5 108t-111.5 34h-258v-275z" />
<glyph unicode="&#xaf;" d="M-12 1108v139h581v-139h-581z" />
<glyph unicode="&#xb0;" horiz-adv-x="741" d="M41 1116q0 136 96.5 233t233.5 97q136 0 232.5 -96.5t96.5 -233.5t-96.5 -233.5t-232.5 -96.5q-137 0 -233.5 97t-96.5 233zM178 1116q0 -79 56.5 -135.5t136.5 -56.5q79 0 135.5 56t56.5 136t-56.5 136.5t-135.5 56.5t-136 -56.5t-57 -136.5z" />
<glyph unicode="&#xb1;" horiz-adv-x="1193" d="M10 0v154h1174v-154h-1174zM10 756v153h512v512h154v-512h508v-153h-508v-510h-154v510h-512z" />
<glyph unicode="&#xb2;" horiz-adv-x="768" d="M80 477v137q63 35 132 85t144 117.5t123.5 147.5t48.5 152q0 15 -3 32t-13.5 39t-26.5 39t-46 28.5t-68 11.5q-73 0 -109.5 -45t-36.5 -121q0 -31 19 -113h-150q-14 61 -14 115q0 136 81 216.5t220 80.5q124 0 209.5 -76.5t85.5 -210.5q0 -120 -88 -241.5t-291 -258.5 h391v-135h-608z" />
<glyph unicode="&#xb3;" horiz-adv-x="768" d="M43 784h154q0 -188 190 -188q172 0 172 141q0 76 -41.5 104.5t-116.5 28.5h-96v138h76q65 0 111.5 29t46.5 93q0 65 -47.5 99.5t-110.5 34.5q-50 0 -83.5 -17t-50 -48.5t-22.5 -64.5t-6 -77l-147 2q0 96 20 151q70 189 287 189q57 0 110.5 -16t99 -47t73.5 -84.5 t28 -121.5q0 -127 -131 -182q76 -22 118 -77.5t42 -135.5q0 -49 -18 -96t-54 -88.5t-100.5 -66.5t-147.5 -25q-254 0 -329 178q-27 62 -27 147z" />
<glyph unicode="&#xb4;" d="M143 1067l86 295h183l-170 -295h-99z" />
<glyph unicode="&#xb5;" horiz-adv-x="1062" d="M133 -459v1424h162v-543v-16q0 -26 2.5 -52.5t16 -69.5t36.5 -74.5t69 -55t109 -23.5q45 0 83 14t63 34.5t43.5 48t28 51t14.5 45.5q10 45 10 116v525h160v-965h-160v147q-34 -60 -72 -98t-76 -52.5t-60 -18t-50 -3.5q-17 0 -33.5 2.5t-29 5.5t-27.5 9.5t-24 11 t-22.5 14.5t-19.5 14t-18 16l-15 15t-15 15.5t-13 13.5v-551h-162z" />
<glyph unicode="&#xb6;" horiz-adv-x="1099" d="M68 1030v2q0 84 26.5 159.5t89.5 139.5t156 92q70 23 174 23h6h471v-111h-69v-1677h-119v1677h-295v-1677h-119v995q-1 0 -15.5 2.5t-25.5 5t-28 7.5t-35 12.5t-35 17.5q-51 28 -88 70.5t-54.5 79.5t-27 81t-11 63.5t-1.5 37.5z" />
<glyph unicode="&#xb7;" horiz-adv-x="468" d="M133 492v229h203v-229h-203z" />
<glyph unicode="&#xb8;" d="M139 -197l150 230l59 -15l-59 -106q4 -3 30 -17t44.5 -27t35.5 -42t17 -66q0 -77 -69.5 -126.5t-190.5 -49.5v47q6 -2 14 -2q45 0 68.5 23t23.5 51q0 38 -29 58t-94 42z" />
<glyph unicode="&#xb9;" horiz-adv-x="768" d="M164 1133v108q92 7 138 37.5t60 122.5h115v-924h-147v656h-166z" />
<glyph unicode="&#xba;" horiz-adv-x="681" d="M53 1159q0 43 15 96q15 57 45.5 99t62 62.5t69.5 32.5t59 14.5t40 2.5q134 0 209.5 -91t75.5 -218q0 -132 -77 -217.5t-210 -85.5q-132 0 -210.5 85t-78.5 220zM170 1157q0 -37 10 -82q6 -21 15.5 -40t27.5 -41.5t50 -36t73 -13.5q71 0 118.5 51.5t47.5 165.5 q0 53 -15 98.5t-56 80t-103 34.5q-72 0 -120 -53.5t-48 -163.5z" />
<glyph unicode="&#xbb;" horiz-adv-x="833" d="M119 274v185l164 143l-164 137v174l274 -231v-170zM438 279v184l162 141l-162 135v183l277 -232v-172z" />
<glyph unicode="&#xbc;" horiz-adv-x="1792" d="M72 1133v108q92 7 138 37.5t60 122.5h115v-924h-147v656h-166zM412 -2l643 1403l127 -62l-641 -1402zM977 219v129l430 574h121v-572h127v-131h-129v-219h-146v219h-403zM1139 350h243l4 342z" />
<glyph unicode="&#xbd;" horiz-adv-x="1792" d="M61 1133v108q92 7 138.5 37.5t60.5 122.5h115v-924h-148v656h-166zM352 -2l643 1403l127 -62l-641 -1402zM1012 0v137q63 35 132 85t144 117.5t123.5 147.5t48.5 152q0 15 -3 32t-13.5 39t-26.5 38.5t-46 28t-68 11.5q-73 0 -109.5 -44.5t-36.5 -120.5q0 -31 19 -113 h-150q-14 61 -14 115q0 136 81 216.5t220 80.5q124 0 209.5 -76.5t85.5 -210.5q0 -120 -88 -241.5t-291 -258.5h391v-135h-608z" />
<glyph unicode="&#xbe;" horiz-adv-x="1792" d="M53 784h154q0 -188 190 -188q172 0 172 141q0 76 -41 104.5t-116 28.5h-97v138h76q65 0 111.5 29t46.5 93q0 65 -47.5 99.5t-110.5 34.5q-50 0 -83.5 -17t-50 -48.5t-22.5 -64.5t-6 -77l-147 2q0 96 20 151q70 189 287 189q57 0 110.5 -16t99 -47t73.5 -84.5t28 -121.5 q0 -127 -131 -182q76 -22 118 -77.5t42 -135.5q0 -39 -10.5 -77t-35 -74.5t-60.5 -63.5t-91 -44t-122 -17q-255 0 -330 178q-27 62 -27 147zM602 -2l643 1403l127 -62l-641 -1402zM1079 219v129l430 574h121v-572h127v-131h-129v-219h-145v219h-404zM1241 350h244l4 342z " />
<glyph unicode="&#xbf;" horiz-adv-x="1034" d="M61 430q0 130 64.5 221t155.5 135q19 9 42 16t44 11.5t38.5 7t31 4.5t14.5 2v312h161v-484h-28q-115 0 -185 -21t-114 -73q-54 -65 -54 -153q0 -53 18.5 -97.5t49 -75.5t70.5 -52.5t83 -31.5t87 -10q57 0 102 15.5t73.5 38t49 56.5t30 61.5t15 64t6 52t0.5 36.5v16h178 v-14v-16q0 -32 -3 -63t-18 -85.5t-41 -100.5t-78.5 -95t-123.5 -80q-90 -39 -194 -39q-90 0 -174.5 30.5t-151.5 85.5t-107.5 140t-40.5 186zM442 1247v199h183v-199h-183z" />
<glyph unicode="&#xc0;" horiz-adv-x="1277" d="M0 0l551 1446h201l526 -1446h-203l-157 442h-551l-162 -442h-205zM428 604h432l-211 604zM432 1833h203l96 -254h-123z" />
<glyph unicode="&#xc1;" horiz-adv-x="1277" d="M0 0l551 1446h201l526 -1446h-203l-157 442h-551l-162 -442h-205zM428 604h432l-211 604zM553 1579l98 254h203l-178 -254h-123z" />
<glyph unicode="&#xc2;" horiz-adv-x="1277" d="M0 0l551 1446h201l526 -1446h-203l-157 442h-551l-162 -442h-205zM373 1579l205 254h133l219 -254h-156l-127 152l-123 -152h-151zM428 604h432l-211 604z" />
<glyph unicode="&#xc3;" horiz-adv-x="1277" d="M0 0l551 1446h201l526 -1446h-203l-157 442h-551l-162 -442h-205zM352 1610l2 12q2 12 4 22t6.5 27t11.5 31.5t16.5 31.5t23 30t30 24.5t38.5 17.5t48 6q31 0 60.5 -8.5t68.5 -25t62 -23.5q37 -12 63 -12q8 0 15 1.5t12.5 3.5t10.5 6t8.5 7t6.5 8.5t5 8.5t4 8.5t2.5 7.5 t1.5 7l2 5h96q-33 -204 -170 -204q-28 0 -56 7t-70.5 23.5t-55.5 20.5q-58 20 -78 20q-33 0 -48.5 -22t-18.5 -41h-101zM428 604h432l-211 604z" />
<glyph unicode="&#xc4;" horiz-adv-x="1277" d="M0 0l551 1446h201l526 -1446h-203l-157 442h-551l-162 -442h-205zM360 1599v209h179v-209h-179zM428 604h432l-211 604zM762 1599v209h178v-209h-178z" />
<glyph unicode="&#xc5;" horiz-adv-x="1277" d="M0 0l551 1446h201l526 -1446h-203l-157 442h-551l-162 -442h-205zM428 604h432l-211 604zM453 1753q0 80 57.5 137.5t136.5 57.5t137 -58t58 -137t-57.5 -136.5t-137.5 -57.5q-79 0 -136.5 57.5t-57.5 136.5zM543 1753q0 -43 30.5 -73.5t73.5 -30.5t74 30.5t31 73.5 t-31 74t-74 31t-73.5 -31t-30.5 -74z" />
<glyph unicode="&#xc6;" horiz-adv-x="2095" d="M-20 0l989 1446h1067v-170h-809v-473h653v-162h-653v-473h833v-168h-1024v475h-516l-315 -475h-225zM633 641h403v619z" />
<glyph unicode="&#xc7;" horiz-adv-x="1568" d="M102 727q0 223 86.5 393.5t254 266.5t393.5 96q116 0 215.5 -26t170.5 -68.5t126.5 -101t89.5 -119.5t55 -128l-195 -41q-35 102 -79 156q-62 77 -159 125.5t-226 48.5q-73 0 -143 -17.5t-139.5 -61.5t-121 -110t-83.5 -171.5t-32 -237.5q0 -91 17 -175.5t56 -164 t97 -138.5t147 -94.5t199 -35.5q191 0 320.5 112.5t161.5 313.5l209 -25q-13 -66 -43 -135.5t-86 -144.5t-128.5 -134t-180.5 -100t-234 -47l-29 -51q4 -3 30 -17t44.5 -27t35.5 -42t17 -66q0 -77 -69.5 -126.5t-190.5 -49.5v47q6 -2 14 -2q45 0 69 23.5t24 50.5 q0 38 -29 58t-94 42l104 160q-162 6 -291.5 68.5t-212 166t-126.5 239t-44 290.5z" />
<glyph unicode="&#xc8;" horiz-adv-x="1214" d="M160 0v1446h995v-170h-811v-447h705v-167h-705v-494h836v-168h-1020zM481 1833h203l96 -254h-123z" />
<glyph unicode="&#xc9;" horiz-adv-x="1214" d="M160 0v1446h995v-170h-811v-447h705v-167h-705v-494h836v-168h-1020zM573 1579l99 254h202l-178 -254h-123z" />
<glyph unicode="&#xca;" horiz-adv-x="1214" d="M160 0v1446h995v-170h-811v-447h705v-167h-705v-494h836v-168h-1020zM383 1579l205 254h133l219 -254h-156l-127 152l-122 -152h-152z" />
<glyph unicode="&#xcb;" horiz-adv-x="1214" d="M160 0v1446h995v-170h-811v-447h705v-167h-705v-494h836v-168h-1020zM365 1599v209h178v-209h-178zM766 1599v209h178v-209h-178z" />
<glyph unicode="&#xcc;" horiz-adv-x="514" d="M68 1833h202l97 -254h-123zM160 0v1446h194v-1446h-194z" />
<glyph unicode="&#xcd;" horiz-adv-x="514" d="M147 1579l99 254h203l-179 -254h-123zM160 0v1446h194v-1446h-194z" />
<glyph unicode="&#xce;" horiz-adv-x="514" d="M-23 1579l205 254h133l220 -254h-156l-127 152l-123 -152h-152zM160 0v1446h194v-1446h-194z" />
<glyph unicode="&#xcf;" horiz-adv-x="514" d="M-29 1599v209h179v-209h-179zM160 0v1446h194v-1446h-194zM373 1599v209h178v-209h-178z" />
<glyph unicode="&#xd0;" horiz-adv-x="1449" d="M27 698v123h133v625h508h4q60 0 92.5 -1t83 -8.5t92.5 -21.5q89 -30 161.5 -86t128.5 -140t87 -204.5t31 -267.5q0 -110 -18.5 -208t-66 -193t-120 -163.5t-189 -110.5t-264.5 -42h-530v698h-133zM358 168h256q102 0 156 6.5t104 24.5q69 26 121.5 74t81 101t46.5 118.5 t23 117t5 105.5q0 51 -4.5 97.5t-15.5 105t-33.5 108t-55.5 96t-85.5 81.5t-118.5 52q-83 21 -222 21h-258v-455h344v-123h-344v-530z" />
<glyph unicode="&#xd1;" horiz-adv-x="1449" d="M160 0v1446h182l782 -1159l-8 1159h174v-1446h-174l-792 1176l18 -1176h-182zM430 1610l2 12q2 12 4 22t6.5 27t11.5 31.5t16.5 31.5t23 30t30 24.5t38.5 17.5t48 6q31 0 60.5 -8.5t68.5 -25t62 -23.5q37 -12 63 -12q8 0 15 1.5t12.5 3.5t10.5 6t8.5 7t6.5 8.5t5 8.5 t4 8.5t2.5 7.5t1.5 7l2 5h96q-33 -204 -170 -204q-28 0 -56 7t-70.5 23.5t-55.5 20.5q-58 20 -78 20q-23 0 -39.5 -14t-21.5 -26.5t-7 -22.5h-100z" />
<glyph unicode="&#xd2;" horiz-adv-x="1660" d="M102 723v16q0 29 1.5 57.5t9.5 82.5t22 103t42 110.5t66 113.5t98 104.5t134 90.5q160 82 361 82q215 0 387 -103q68 -40 122.5 -92.5t88.5 -103.5t59.5 -111.5t37.5 -106t19 -96.5t8 -75.5t1 -49.5v-8q0 -166 -48 -305q-43 -123 -115.5 -214.5t-164 -146.5t-193.5 -81.5 t-215 -26.5q-218 0 -383 98.5t-251.5 270t-86.5 391.5zM311 719q0 -89 17.5 -173t57.5 -163.5t99 -138t149 -94t200 -35.5q115 0 206 37.5t148 97.5t94.5 141.5t52.5 164t15 171.5q0 114 -23 209q-51 195 -182.5 293t-310.5 98q-110 0 -199.5 -33t-149 -90t-99.5 -135.5 t-57.5 -165.5t-17.5 -184zM633 1833h203l96 -254h-123z" />
<glyph unicode="&#xd3;" horiz-adv-x="1660" d="M102 723v16q0 29 1.5 57.5t9.5 82.5t22 103t42 110.5t66 113.5t98 104.5t134 90.5q160 82 361 82q215 0 387 -103q68 -40 122.5 -92.5t88.5 -103.5t59.5 -111.5t37.5 -106t19 -96.5t8 -75.5t1 -49.5v-8q0 -166 -48 -305q-43 -123 -115.5 -214.5t-164 -146.5t-193.5 -81.5 t-215 -26.5q-218 0 -383 98.5t-251.5 270t-86.5 391.5zM311 719q0 -89 17.5 -173t57.5 -163.5t99 -138t149 -94t200 -35.5q115 0 206 37.5t148 97.5t94.5 141.5t52.5 164t15 171.5q0 114 -23 209q-51 195 -182.5 293t-310.5 98q-110 0 -199.5 -33t-149 -90t-99.5 -135.5 t-57.5 -165.5t-17.5 -184zM750 1579l98 254h203l-179 -254h-122z" />
<glyph unicode="&#xd4;" horiz-adv-x="1660" d="M102 723v16q0 29 1.5 57.5t9.5 82.5t22 103t42 110.5t66 113.5t98 104.5t134 90.5q160 82 361 82q215 0 387 -103q68 -40 122.5 -92.5t88.5 -103.5t59.5 -111.5t37.5 -106t19 -96.5t8 -75.5t1 -49.5v-8q0 -166 -48 -305q-43 -123 -115.5 -214.5t-164 -146.5t-193.5 -81.5 t-215 -26.5q-218 0 -383 98.5t-251.5 270t-86.5 391.5zM311 719q0 -89 17.5 -173t57.5 -163.5t99 -138t149 -94t200 -35.5q115 0 206 37.5t148 97.5t94.5 141.5t52.5 164t15 171.5q0 114 -23 209q-51 195 -182.5 293t-310.5 98q-110 0 -199.5 -33t-149 -90t-99.5 -135.5 t-57.5 -165.5t-17.5 -184zM549 1579l205 254h133l219 -254h-156l-127 152l-123 -152h-151z" />
<glyph unicode="&#xd5;" horiz-adv-x="1660" d="M102 723v16q0 29 1.5 57.5t9.5 82.5t22 103t42 110.5t66 113.5t98 104.5t134 90.5q160 82 361 82q215 0 387 -103q68 -40 122.5 -92.5t88.5 -103.5t59.5 -111.5t37.5 -106t19 -96.5t8 -75.5t1 -49.5v-8q0 -166 -48 -305q-43 -123 -115.5 -214.5t-164 -146.5t-193.5 -81.5 t-215 -26.5q-218 0 -383 98.5t-251.5 270t-86.5 391.5zM311 719q0 -89 17.5 -173t57.5 -163.5t99 -138t149 -94t200 -35.5q115 0 206 37.5t148 97.5t94.5 141.5t52.5 164t15 171.5q0 114 -23 209q-51 195 -182.5 293t-310.5 98q-110 0 -199.5 -33t-149 -90t-99.5 -135.5 t-57.5 -165.5t-17.5 -184zM547 1610l2 12q2 12 4 22t6.5 27t11.5 31.5t16.5 31.5t23 30t30 24.5t38.5 17.5t48 6q31 0 60.5 -8.5t68.5 -25t62 -23.5q37 -12 63 -12q8 0 15 1.5t12.5 3.5t10.5 6t8.5 7t6.5 8.5t5 8.5t4 8.5t2.5 7.5t2.5 7l1 5h96q-33 -204 -170 -204 q-28 0 -56 7t-70.5 23.5t-55.5 20.5q-58 20 -78 20q-23 0 -39.5 -14t-21.5 -26.5t-7 -22.5h-100z" />
<glyph unicode="&#xd6;" horiz-adv-x="1660" d="M102 723v16q0 29 1.5 57.5t9.5 82.5t22 103t42 110.5t66 113.5t98 104.5t134 90.5q160 82 361 82q215 0 387 -103q68 -40 122.5 -92.5t88.5 -103.5t59.5 -111.5t37.5 -106t19 -96.5t8 -75.5t1 -49.5v-8q0 -166 -48 -305q-43 -123 -115.5 -214.5t-164 -146.5t-193.5 -81.5 t-215 -26.5q-218 0 -383 98.5t-251.5 270t-86.5 391.5zM311 719q0 -89 17.5 -173t57.5 -163.5t99 -138t149 -94t200 -35.5q115 0 206 37.5t148 97.5t94.5 141.5t52.5 164t15 171.5q0 114 -23 209q-51 195 -182.5 293t-310.5 98q-110 0 -199.5 -33t-149 -90t-99.5 -135.5 t-57.5 -165.5t-17.5 -184zM537 1599v209h178v-209h-178zM938 1599v209h178v-209h-178z" />
<glyph unicode="&#xd7;" horiz-adv-x="1193" d="M80 184l409 412l-409 408l108 108l410 -410l410 410l106 -108l-409 -408l409 -412l-106 -106l-410 409l-410 -409z" />
<glyph unicode="&#xd8;" horiz-adv-x="1660" d="M94 121l142 135q-134 195 -134 467v16q0 29 1.5 57.5t9.5 82.5t22 103t42 110.5t66 113.5t98 104.5t134 90.5q160 82 361 82q215 0 387 -103q62 -36 106 -75l133 127l99 -105l-138 -131q46 -64 76 -137.5t41.5 -139.5t15 -103t3.5 -71v-8q0 -166 -48 -305 q-43 -123 -115.5 -214.5t-164 -146.5t-193.5 -81.5t-215 -26.5q-300 0 -495 182l-133 -127zM311 719q0 -178 68 -326l819 787q-135 147 -364 147q-110 0 -199.5 -33t-149 -90t-99.5 -135.5t-57.5 -165.5t-17.5 -184zM459 272q137 -157 375 -157q115 0 206 37.5t148 97.5 t94.5 141.5t52.5 164t15 171.5q0 114 -23 209q-18 68 -45 123z" />
<glyph unicode="&#xd9;" horiz-adv-x="1376" d="M139 496v49v901h195v-924v-12q0 -29 1 -52t8.5 -65t20 -74.5t38.5 -70.5t61.5 -62.5t91 -41.5t125.5 -17q136 0 221 61q33 23 58 52t39.5 62.5t24 63.5t13.5 69t5 64.5t1 63.5v19v864h195v-924q0 -135 -27 -221q-46 -145 -183 -241.5t-347 -96.5q-113 0 -206 29 t-155 78.5t-102 109t-59 127.5t-19 189zM475 1833h203l96 -254h-123z" />
<glyph unicode="&#xda;" horiz-adv-x="1376" d="M139 496v49v901h195v-924v-12q0 -29 1 -52t8.5 -65t20 -74.5t38.5 -70.5t61.5 -62.5t91 -41.5t125.5 -17q136 0 221 61q33 23 58 52t39.5 62.5t24 63.5t13.5 69t5 64.5t1 63.5v19v864h195v-924q0 -135 -27 -221q-46 -145 -183 -241.5t-347 -96.5q-113 0 -206 29 t-155 78.5t-102 109t-59 127.5t-19 189zM610 1579l99 254h202l-178 -254h-123z" />
<glyph unicode="&#xdb;" horiz-adv-x="1376" d="M139 496v49v901h195v-924v-12q0 -29 1 -52t8.5 -65t20 -74.5t38.5 -70.5t61.5 -62.5t91 -41.5t125.5 -17q136 0 221 61q33 23 58 52t39.5 62.5t24 63.5t13.5 69t5 64.5t1 63.5v19v864h195v-924q0 -135 -27 -221q-46 -145 -183 -241.5t-347 -96.5q-113 0 -206 29 t-155 78.5t-102 109t-59 127.5t-19 189zM399 1579l205 254h133l219 -254h-155l-127 152l-123 -152h-152z" />
<glyph unicode="&#xdc;" horiz-adv-x="1376" d="M139 496v49v901h195v-924v-12q0 -29 1 -52t8.5 -65t20 -74.5t38.5 -70.5t61.5 -62.5t91 -41.5t125.5 -17q136 0 221 61q33 23 58 52t39.5 62.5t24 63.5t13.5 69t5 64.5t1 63.5v19v864h195v-924q0 -135 -27 -221q-46 -145 -183 -241.5t-347 -96.5q-113 0 -206 29 t-155 78.5t-102 109t-59 127.5t-19 189zM420 1599v209h178v-209h-178zM821 1599v209h178v-209h-178z" />
<glyph unicode="&#xdd;" horiz-adv-x="1222" d="M0 1446h227l381 -612l385 612h230l-521 -784v-662h-194v662zM561 1579l98 254h203l-178 -254h-123z" />
<glyph unicode="&#xde;" horiz-adv-x="1304" d="M160 0v1446h186v-264h471h19q100 0 172 -23q68 -23 119 -65.5t79.5 -96.5t42 -110.5t13.5 -116.5q0 -58 -14.5 -116t-44.5 -115t-84.5 -102.5t-127.5 -67.5q-71 -21 -180 -21h-23h-442v-348h-186zM346 518h404h47q36 0 63 3t60 13t61.5 33t50.5 58q39 62 39 153v4 q0 46 -12 83.5t-30 61t-44 41t-49.5 26t-52.5 13.5t-45 6t-35 1h-10h-447v-496z" />
<glyph unicode="&#xdf;" horiz-adv-x="1114" d="M133 0v1018v31q0 47 1.5 79t10.5 79.5t24.5 82t46.5 71.5t75 64q93 58 235 58h9q77 0 145 -19t123.5 -57.5t88 -104t32.5 -151.5q0 -206 -185 -281q58 -8 105 -30.5t77 -51t52 -66.5t33 -70.5t17.5 -70t7.5 -58t1 -40.5v-12q0 -174 -54 -279t-161 -163q-98 -52 -227 -52 q-100 0 -195 31v172l21 -8q89 -35 182 -35q71 0 124.5 24.5t84 69t45 99.5t14.5 121v14q0 20 -1.5 40t-10.5 54t-24 63t-44.5 61t-70.5 54q-87 47 -303 47v162q62 -4 82 -4q132 0 199 58.5t67 144.5q0 50 -21 88t-54.5 58.5t-69 30t-72.5 9.5q-93 0 -152 -35 q-53 -36 -74.5 -90.5t-21.5 -161.5v-1044h-162z" />
<glyph unicode="&#xe0;" horiz-adv-x="1024" d="M66 248q0 82 49 153q54 74 158.5 112t267.5 52q91 7 168 15v16q0 50 -3.5 85t-16.5 73.5t-36 61.5t-64.5 38.5t-99.5 15.5q-20 0 -39 -2t-51.5 -12.5t-55.5 -28t-40.5 -54t-17.5 -85.5v-20l-170 10q3 43 14 84t38.5 84.5t67.5 75.5t105 52.5t147 20.5q51 0 101.5 -9 t105.5 -30.5t98.5 -65t63.5 -104.5q16 -51 16 -133v-26v-391q0 -52 17 -76.5t55 -24.5q27 0 51 8v-137q-54 -18 -102 -18h-4q-143 0 -166 143q-141 -158 -324 -158q-85 0 -158.5 28t-124 92.5t-50.5 154.5zM246 254q0 -60 45.5 -101.5t136.5 -41.5q31 0 63.5 5.5t73 23 t71.5 46.5t52 81.5t21 121.5v82q-7 -1 -55.5 -8.5t-79 -12.5t-75.5 -13.5t-78.5 -17.5t-55.5 -18q-16 -6 -32 -15.5t-38 -26.5t-35.5 -44.5t-13.5 -60.5zM328 1362h182l86 -295h-98z" />
<glyph unicode="&#xe1;" horiz-adv-x="1024" d="M66 248q0 82 49 153q54 74 158.5 112t267.5 52q91 7 168 15v16q0 50 -3.5 85t-16.5 73.5t-36 61.5t-64.5 38.5t-99.5 15.5q-20 0 -39 -2t-51.5 -12.5t-55.5 -28t-40.5 -54t-17.5 -85.5v-20l-170 10q3 43 14 84t38.5 84.5t67.5 75.5t105 52.5t147 20.5q51 0 101.5 -9 t105.5 -30.5t98.5 -65t63.5 -104.5q16 -51 16 -133v-26v-391q0 -52 17 -76.5t55 -24.5q27 0 51 8v-137q-54 -18 -102 -18h-4q-143 0 -166 143q-141 -158 -324 -158q-85 0 -158.5 28t-124 92.5t-50.5 154.5zM246 254q0 -60 45.5 -101.5t136.5 -41.5q31 0 63.5 5.5t73 23 t71.5 46.5t52 81.5t21 121.5v82q-7 -1 -55.5 -8.5t-79 -12.5t-75.5 -13.5t-78.5 -17.5t-55.5 -18q-16 -6 -32 -15.5t-38 -26.5t-35.5 -44.5t-13.5 -60.5zM459 1067l86 295h182l-170 -295h-98z" />
<glyph unicode="&#xe2;" horiz-adv-x="1024" d="M66 248q0 82 49 153q54 74 158.5 112t267.5 52q91 7 168 15v16q0 50 -3.5 85t-16.5 73.5t-36 61.5t-64.5 38.5t-99.5 15.5q-20 0 -39 -2t-51.5 -12.5t-55.5 -28t-40.5 -54t-17.5 -85.5v-20l-170 10q3 43 14 84t38.5 84.5t67.5 75.5t105 52.5t147 20.5q51 0 101.5 -9 t105.5 -30.5t98.5 -65t63.5 -104.5q16 -51 16 -133v-26v-391q0 -52 17 -76.5t55 -24.5q27 0 51 8v-137q-54 -18 -102 -18h-4q-143 0 -166 143q-141 -158 -324 -158q-85 0 -158.5 28t-124 92.5t-50.5 154.5zM244 1071l192 309h137l213 -309h-153l-125 195l-121 -195h-143z M246 254q0 -60 45.5 -101.5t136.5 -41.5q31 0 63.5 5.5t73 23t71.5 46.5t52 81.5t21 121.5v82q-7 -1 -55.5 -8.5t-79 -12.5t-75.5 -13.5t-78.5 -17.5t-55.5 -18q-16 -6 -32 -15.5t-38 -26.5t-35.5 -44.5t-13.5 -60.5z" />
<glyph unicode="&#xe3;" horiz-adv-x="1024" d="M66 248q0 82 49 153q54 74 158.5 112t267.5 52q91 7 168 15v16q0 50 -3.5 85t-16.5 73.5t-36 61.5t-64.5 38.5t-99.5 15.5q-20 0 -39 -2t-51.5 -12.5t-55.5 -28t-40.5 -54t-17.5 -85.5v-20l-170 10q3 43 14 84t38.5 84.5t67.5 75.5t105 52.5t147 20.5q51 0 101.5 -9 t105.5 -30.5t98.5 -65t63.5 -104.5q16 -51 16 -133v-26v-391q0 -52 17 -76.5t55 -24.5q27 0 51 8v-137q-54 -18 -102 -18h-4q-143 0 -166 143q-141 -158 -324 -158q-85 0 -158.5 28t-124 92.5t-50.5 154.5zM215 1104q7 53 24.5 95.5t58 75t97.5 32.5q31 0 56.5 -7t62 -23 t55.5 -22q51 -18 82 -18q53 0 64 63h98l-2 -12q-2 -13 -6.5 -30.5t-12 -39.5t-20.5 -43t-30.5 -39t-43.5 -29t-57 -11q-18 0 -42.5 5.5t-42.5 11.5t-48 17t-41 15q-59 22 -84 22q-24 0 -40.5 -14.5t-21 -26t-6.5 -22.5h-100zM246 254q0 -60 45.5 -101.5t136.5 -41.5 q31 0 63.5 5.5t73 23t71.5 46.5t52 81.5t21 121.5v82q-7 -1 -55.5 -8.5t-79 -12.5t-75.5 -13.5t-78.5 -17.5t-55.5 -18q-16 -6 -32 -15.5t-38 -26.5t-35.5 -44.5t-13.5 -60.5z" />
<glyph unicode="&#xe4;" horiz-adv-x="1024" d="M66 248q0 82 49 153q54 74 158.5 112t267.5 52q91 7 168 15v16q0 50 -3.5 85t-16.5 73.5t-36 61.5t-64.5 38.5t-99.5 15.5q-20 0 -39 -2t-51.5 -12.5t-55.5 -28t-40.5 -54t-17.5 -85.5v-20l-170 10q3 43 14 84t38.5 84.5t67.5 75.5t105 52.5t147 20.5q51 0 101.5 -9 t105.5 -30.5t98.5 -65t63.5 -104.5q16 -51 16 -133v-26v-391q0 -52 17 -76.5t55 -24.5q27 0 51 8v-137q-54 -18 -102 -18h-4q-143 0 -166 143q-141 -158 -324 -158q-85 0 -158.5 28t-124 92.5t-50.5 154.5zM233 1108v211h179v-211h-179zM246 254q0 -60 45.5 -101.5 t136.5 -41.5q31 0 63.5 5.5t73 23t71.5 46.5t52 81.5t21 121.5v82q-7 -1 -55.5 -8.5t-79 -12.5t-75.5 -13.5t-78.5 -17.5t-55.5 -18q-16 -6 -32 -15.5t-38 -26.5t-35.5 -44.5t-13.5 -60.5zM635 1108v211h182v-211h-182z" />
<glyph unicode="&#xe5;" horiz-adv-x="1024" d="M66 248q0 82 49 153q54 74 158.5 112t267.5 52q91 7 168 15v16q0 50 -3.5 85t-16.5 73.5t-36 61.5t-64.5 38.5t-99.5 15.5q-20 0 -39 -2t-51.5 -12.5t-55.5 -28t-40.5 -54t-17.5 -85.5v-20l-170 10q3 43 14 84t38.5 84.5t67.5 75.5t105 52.5t147 20.5q51 0 101.5 -9 t105.5 -30.5t98.5 -65t63.5 -104.5q16 -51 16 -133v-26v-391q0 -52 17 -76.5t55 -24.5q27 0 51 8v-137q-54 -18 -102 -18h-4q-143 0 -166 143q-141 -158 -324 -158q-85 0 -158.5 28t-124 92.5t-50.5 154.5zM246 254q0 -60 45.5 -101.5t136.5 -41.5q31 0 63.5 5.5t73 23 t71.5 46.5t52 81.5t21 121.5v82q-7 -1 -55.5 -8.5t-79 -12.5t-75.5 -13.5t-78.5 -17.5t-55.5 -18q-16 -6 -32 -15.5t-38 -26.5t-35.5 -44.5t-13.5 -60.5zM326 1245q0 80 57.5 137.5t136.5 57.5q80 0 137.5 -58t57.5 -137t-57.5 -136.5t-137.5 -57.5t-137 57.5t-57 136.5z M416 1245q0 -43 30.5 -73.5t73.5 -30.5t74 30.5t31 73.5t-31 74t-74 31t-73.5 -31t-30.5 -74z" />
<glyph unicode="&#xe6;" horiz-adv-x="1665" d="M66 242q0 27 6.5 56.5t24 68.5t56.5 76.5t95 64.5q63 31 140.5 39t229.5 8h93h18v16q0 150 -68.5 224.5t-168.5 74.5q-46 0 -83 -14.5t-59 -36t-37 -49t-20.5 -51t-5.5 -43.5l-172 10q10 104 65.5 175.5t133.5 102.5t171 31q233 0 330 -172q126 172 334 172 q64 0 125 -18.5t119.5 -60t102.5 -102.5t70.5 -153t26.5 -204v-19h-700q0 -90 25 -157.5t66 -105t87.5 -55.5t97.5 -18q47 0 87 16t65 39.5t44 53t28 53t12 43.5l172 -26q-12 -53 -44.5 -105.5t-83 -100t-128 -77t-168.5 -29.5h-6q-246 0 -361 203q-158 -203 -391 -203 q-88 0 -155 26t-103 68t-53.5 87t-17.5 92zM236 248q0 -56 48 -103t142 -47q98 0 168.5 50.5t102.5 125.5t32 164h-94q-280 0 -365 -102q-34 -43 -34 -88zM891 557h528q0 72 -32.5 140.5t-96 115.5t-141.5 47q-60 0 -110.5 -28t-82 -73t-48.5 -97.5t-17 -104.5z" />
<glyph unicode="&#xe7;" horiz-adv-x="1064" d="M82 473q0 105 29 197.5t84.5 166t145.5 116t204 42.5q105 0 189.5 -29t136.5 -78t82 -103t42 -113l-180 -19q-12 61 -39.5 106t-56 67t-66 34.5t-59 14.5t-45.5 2h-4q-124 0 -203 -100t-80 -290v-14q0 -26 3 -53t11.5 -75t29.5 -88t52.5 -78t86 -60.5t124.5 -22.5 q47 0 86 11t65 27.5t46.5 42.5t32 47.5t20.5 52t12 47.5t7 41l176 -17q-7 -40 -18.5 -77.5t-32.5 -82t-54 -80.5t-77 -67.5t-107.5 -50.5t-140.5 -21l-33 -57q4 -3 30 -17t44.5 -27t35.5 -42t17 -66q0 -77 -69.5 -126.5t-190.5 -49.5v47q6 -2 14 -2q45 0 68.5 23t23.5 51 q0 38 -29 58t-94 42l109 168q-80 6 -146 32.5t-109 63t-76.5 84t-51 92t-28.5 93t-14 79.5t-3 58z" />
<glyph unicode="&#xe8;" horiz-adv-x="1062" d="M82 489q0 113 33 203.5t83 145.5t114 92t122.5 51t112.5 14q64 0 124.5 -16t119.5 -54.5t102.5 -96.5t70.5 -149.5t27 -205.5v-18h-733v-17q0 -101 41 -179.5t96 -117.5q69 -49 164 -49h10q161 0 232 150q6 14 11.5 30.5t9.5 30.5l3 14l166 -22q-1 -3 -7 -19.5t-11.5 -30 t-16 -35t-22.5 -40.5q-35 -55 -81.5 -95.5t-86 -60t-85.5 -30.5t-69.5 -13t-48.5 -2h-10q-116 0 -207 40.5t-148 112t-86.5 165t-29.5 202.5zM262 571h551q0 120 -76 208.5t-200 88.5q-83 0 -144.5 -43.5t-92.5 -108.5t-38 -145zM360 1362h183l86 -295h-99z" />
<glyph unicode="&#xe9;" horiz-adv-x="1062" d="M82 489q0 113 33 203.5t83 145.5t114 92t122.5 51t112.5 14q64 0 124.5 -16t119.5 -54.5t102.5 -96.5t70.5 -149.5t27 -205.5v-18h-733v-17q0 -101 41 -179.5t96 -117.5q69 -49 164 -49h10q161 0 232 150q6 14 11.5 30.5t9.5 30.5l3 14l166 -22q-1 -3 -7 -19.5t-11.5 -30 t-16 -35t-22.5 -40.5q-35 -55 -81.5 -95.5t-86 -60t-85.5 -30.5t-69.5 -13t-48.5 -2h-10q-116 0 -207 40.5t-148 112t-86.5 165t-29.5 202.5zM262 571h551q0 120 -76 208.5t-200 88.5q-83 0 -144.5 -43.5t-92.5 -108.5t-38 -145zM467 1067l86 295h182l-170 -295h-98z" />
<glyph unicode="&#xea;" horiz-adv-x="1062" d="M82 489q0 113 33 203.5t83 145.5t114 92t122.5 51t112.5 14q64 0 124.5 -16t119.5 -54.5t102.5 -96.5t70.5 -149.5t27 -205.5v-18h-733v-17q0 -101 41 -179.5t96 -117.5q69 -49 164 -49h10q161 0 232 150q6 14 11.5 30.5t9.5 30.5l3 14l166 -22q-1 -3 -7 -19.5t-11.5 -30 t-16 -35t-22.5 -40.5q-35 -55 -81.5 -95.5t-86 -60t-85.5 -30.5t-69.5 -13t-48.5 -2h-10q-116 0 -207 40.5t-148 112t-86.5 165t-29.5 202.5zM262 571h551q0 120 -76 208.5t-200 88.5q-83 0 -144.5 -43.5t-92.5 -108.5t-38 -145zM287 1071l192 309h137l213 -309h-153 l-125 195l-121 -195h-143z" />
<glyph unicode="&#xeb;" horiz-adv-x="1062" d="M82 489q0 113 33 203.5t83 145.5t114 92t122.5 51t112.5 14q64 0 124.5 -16t119.5 -54.5t102.5 -96.5t70.5 -149.5t27 -205.5v-18h-733v-17q0 -101 41 -179.5t96 -117.5q69 -49 164 -49h10q161 0 232 150q6 14 11.5 30.5t9.5 30.5l3 14l166 -22q-1 -3 -7 -19.5t-11.5 -30 t-16 -35t-22.5 -40.5q-35 -55 -81.5 -95.5t-86 -60t-85.5 -30.5t-69.5 -13t-48.5 -2h-10q-116 0 -207 40.5t-148 112t-86.5 165t-29.5 202.5zM244 1108v211h178v-211h-178zM262 571h551q0 120 -76 208.5t-200 88.5q-83 0 -144.5 -43.5t-92.5 -108.5t-38 -145zM645 1108v211 h182v-211h-182z" />
<glyph unicode="&#xec;" horiz-adv-x="423" d="M20 1362h183l86 -295h-99zM133 0v965h158v-965h-158z" />
<glyph unicode="&#xed;" horiz-adv-x="423" d="M123 1067l86 295h182l-170 -295h-98zM133 0v965h158v-965h-158z" />
<glyph unicode="&#xee;" horiz-adv-x="423" d="M-57 1071l192 309h137l213 -309h-153l-125 195l-121 -195h-143zM133 0v965h158v-965h-158z" />
<glyph unicode="&#xef;" horiz-adv-x="423" d="M-78 1108v211h178v-211h-178zM133 0v965h158v-965h-158zM324 1108v211h182v-211h-182z" />
<glyph unicode="&#xf0;" horiz-adv-x="1110" d="M82 481q0 144 47 248q32 72 81.5 125.5t106.5 83t113.5 43.5t114.5 14q98 0 160 -31t116 -85l-3 12q-3 12 -6.5 24.5t-10 33t-13.5 41t-17 45t-20.5 47t-24.5 46t-28 43.5l-364 -118l-37 92l338 112q-18 24 -42 50.5t-41 43t-37.5 36t-25.5 24.5l127 59q19 -17 31 -28.5 t26 -27t22 -25l32 -38t43 -51.5l174 60l39 -96l-152 -50q105 -171 151 -337.5t46 -350.5q0 -129 -24 -211q-13 -48 -33.5 -92t-57.5 -92t-84 -82.5t-117.5 -57t-154.5 -22.5q-90 0 -164.5 23t-122.5 58.5t-84.5 85t-55.5 96t-30.5 99t-14.5 86t-3 64.5zM260 473q0 -20 1 -40 t7.5 -59.5t17.5 -73t33 -72t52.5 -65.5t78.5 -45t107 -18q132 0 213.5 94.5t81.5 297.5q0 102 -23.5 177t-65 116t-89.5 60t-105 19q-71 0 -127 -24.5t-89.5 -62.5t-55 -90t-29.5 -102t-8 -104v-8z" />
<glyph unicode="&#xf1;" horiz-adv-x="1067" d="M133 0v965h164v-142q28 48 67.5 83t72.5 51.5t71.5 25.5t56 10.5t35.5 1.5q103 0 192.5 -53.5t125.5 -161.5q16 -47 16 -155v-15v-610h-162v592q0 33 -0.5 50.5t-5.5 46t-14.5 47t-28.5 40t-47 37.5q-52 29 -127 29q-91 0 -152 -49.5t-84 -110.5q-16 -47 -16 -152v-26 v-504h-164zM252 1104q7 53 24.5 95.5t58 75t97.5 32.5q31 0 56.5 -7t62 -23t55.5 -22q51 -18 82 -18q54 0 64 63h98l-2 -12q-2 -13 -6.5 -30.5t-12 -39.5t-20.5 -43t-30.5 -39t-43.5 -29t-57 -11q-18 0 -42.5 5.5t-42.5 11.5t-48 17t-41 15q-59 22 -84 22q-24 0 -40.5 -14.5 t-21 -26t-6.5 -22.5h-100z" />
<glyph unicode="&#xf2;" horiz-adv-x="1110" d="M82 477q0 172 71.5 292t176.5 175q98 51 233 51q114 0 204 -41.5t146.5 -113t85.5 -162.5t29 -195q0 -95 -27 -184q-17 -58 -48.5 -111t-83 -105t-132.5 -83t-180 -31q-151 0 -260.5 69.5t-162 183t-52.5 255.5zM260 471q0 -18 1 -37.5t7.5 -58.5t17.5 -72.5t33 -72.5 t52.5 -66t78.5 -45.5t107 -18.5q132 0 213.5 94.5t81.5 297.5q0 102 -23 176t-64 116t-90 61t-108 19q-71 0 -126.5 -24.5t-89 -63.5t-54.5 -91.5t-29 -103t-8 -104.5v-6zM401 1362h183l86 -295h-99z" />
<glyph unicode="&#xf3;" horiz-adv-x="1110" d="M82 477q0 172 71.5 292t176.5 175q98 51 233 51q114 0 204 -41.5t146.5 -113t85.5 -162.5t29 -195q0 -95 -27 -184q-17 -58 -48.5 -111t-83 -105t-132.5 -83t-180 -31q-151 0 -260.5 69.5t-162 183t-52.5 255.5zM260 471q0 -18 1 -37.5t7.5 -58.5t17.5 -72.5t33 -72.5 t52.5 -66t78.5 -45.5t107 -18.5q132 0 213.5 94.5t81.5 297.5q0 102 -23 176t-64 116t-90 61t-108 19q-71 0 -126.5 -24.5t-89 -63.5t-54.5 -91.5t-29 -103t-8 -104.5v-6zM492 1067l86 295h182l-170 -295h-98z" />
<glyph unicode="&#xf4;" horiz-adv-x="1110" d="M82 477q0 172 71.5 292t176.5 175q98 51 233 51q114 0 204 -41.5t146.5 -113t85.5 -162.5t29 -195q0 -95 -27 -184q-17 -58 -48.5 -111t-83 -105t-132.5 -83t-180 -31q-151 0 -260.5 69.5t-162 183t-52.5 255.5zM260 471q0 -18 1 -37.5t7.5 -58.5t17.5 -72.5t33 -72.5 t52.5 -66t78.5 -45.5t107 -18.5q132 0 213.5 94.5t81.5 297.5q0 102 -23 176t-64 116t-90 61t-108 19q-71 0 -126.5 -24.5t-89 -63.5t-54.5 -91.5t-29 -103t-8 -104.5v-6zM289 1071l192 309h137l213 -309h-153l-125 195l-121 -195h-143z" />
<glyph unicode="&#xf5;" horiz-adv-x="1110" d="M82 477q0 172 71.5 292t176.5 175q98 51 233 51q114 0 204 -41.5t146.5 -113t85.5 -162.5t29 -195q0 -95 -27 -184q-17 -58 -48.5 -111t-83 -105t-132.5 -83t-180 -31q-151 0 -260.5 69.5t-162 183t-52.5 255.5zM248 1104q7 53 24.5 95.5t58 75t97.5 32.5q31 0 56.5 -7 t62 -23t55.5 -22q51 -18 82 -18q54 0 64 63h98l-2 -12q-2 -13 -6.5 -30.5t-12 -39.5t-20.5 -43t-30.5 -39t-43.5 -29t-57 -11q-18 0 -42.5 5.5t-42.5 11.5t-48 17t-41 15q-59 22 -84 22q-24 0 -40.5 -14.5t-21 -26t-6.5 -22.5h-100zM260 471q0 -18 1 -37.5t7.5 -58.5 t17.5 -72.5t33 -72.5t52.5 -66t78.5 -45.5t107 -18.5q132 0 213.5 94.5t81.5 297.5q0 102 -23 176t-64 116t-90 61t-108 19q-71 0 -126.5 -24.5t-89 -63.5t-54.5 -91.5t-29 -103t-8 -104.5v-6z" />
<glyph unicode="&#xf6;" horiz-adv-x="1110" d="M82 477q0 172 71.5 292t176.5 175q98 51 233 51q114 0 204 -41.5t146.5 -113t85.5 -162.5t29 -195q0 -95 -27 -184q-17 -58 -48.5 -111t-83 -105t-132.5 -83t-180 -31q-151 0 -260.5 69.5t-162 183t-52.5 255.5zM260 471q0 -18 1 -37.5t7.5 -58.5t17.5 -72.5t33 -72.5 t52.5 -66t78.5 -45.5t107 -18.5q132 0 213.5 94.5t81.5 297.5q0 102 -23 176t-64 116t-90 61t-108 19q-71 0 -126.5 -24.5t-89 -63.5t-54.5 -91.5t-29 -103t-8 -104.5v-6zM266 1108v211h178v-211h-178zM668 1108v211h182v-211h-182z" />
<glyph unicode="&#xf7;" horiz-adv-x="1193" d="M10 510v152h1174v-152h-1174zM489 332q0 44 31.5 75t75.5 31t75 -31t31 -75t-31 -75.5t-75 -31.5t-75.5 31.5t-31.5 75.5zM489 840q0 44 31.5 75t75.5 31t75 -31t31 -75t-31 -75.5t-75 -31.5t-75.5 31.5t-31.5 75.5z" />
<glyph unicode="&#xf8;" horiz-adv-x="1110" d="M78 92l84 82q-80 127 -80 303q0 172 71.5 292t176.5 175q98 51 233 51q196 0 320 -118l82 81l71 -73l-90 -88q82 -131 82 -314q0 -95 -27 -184q-17 -58 -48.5 -111t-83 -105t-132.5 -83t-180 -31q-203 0 -332 123l-75 -74zM260 469q0 -90 27 -172l487 477q-72 90 -207 90 q-71 0 -126.5 -24.5t-89 -63.5t-54.5 -91.5t-29 -103t-8 -104.5v-8zM338 201q80 -101 219 -101q132 0 213.5 94.5t81.5 297.5q0 105 -27 188z" />
<glyph unicode="&#xf9;" horiz-adv-x="1062" d="M133 332v633h162v-613v-8q0 -18 0.5 -32t5 -38t12 -41.5t22.5 -38.5t35.5 -34t53.5 -22t74 -9q92 0 157 45q39 26 63.5 58.5t35 70.5t13.5 67t3 70v41v484h160v-965h-160v147q-4 -5 -13 -16t-19.5 -22.5t-26.5 -26.5q-116 -107 -275 -107q-95 0 -166 43q-38 23 -65 54.5 t-41 60.5t-21 69t-8.5 65.5t-1.5 64.5zM328 1362h182l86 -295h-98z" />
<glyph unicode="&#xfa;" horiz-adv-x="1062" d="M133 332v633h162v-613v-8q0 -18 0.5 -32t5 -38t12 -41.5t22.5 -38.5t35.5 -34t53.5 -22t74 -9q92 0 157 45q39 26 63.5 58.5t35 70.5t13.5 67t3 70v41v484h160v-965h-160v147q-4 -5 -13 -16t-19.5 -22.5t-26.5 -26.5q-116 -107 -275 -107q-95 0 -166 43q-38 23 -65 54.5 t-41 60.5t-21 69t-8.5 65.5t-1.5 64.5zM473 1067l86 295h182l-170 -295h-98z" />
<glyph unicode="&#xfb;" horiz-adv-x="1062" d="M133 332v633h162v-613v-8q0 -18 0.5 -32t5 -38t12 -41.5t22.5 -38.5t35.5 -34t53.5 -22t74 -9q92 0 157 45q39 26 63.5 58.5t35 70.5t13.5 67t3 70v41v484h160v-965h-160v147q-4 -5 -13 -16t-19.5 -22.5t-26.5 -26.5q-116 -107 -275 -107q-95 0 -166 43q-38 23 -65 54.5 t-41 60.5t-21 69t-8.5 65.5t-1.5 64.5zM262 1071l193 309h137l213 -309h-154l-125 195l-120 -195h-144z" />
<glyph unicode="&#xfc;" horiz-adv-x="1062" d="M133 332v633h162v-613v-8q0 -18 0.5 -32t5 -38t12 -41.5t22.5 -38.5t35.5 -34t53.5 -22t74 -9q92 0 157 45q39 26 63.5 58.5t35 70.5t13.5 67t3 70v41v484h160v-965h-160v147q-4 -5 -13 -16t-19.5 -22.5t-26.5 -26.5q-116 -107 -275 -107q-95 0 -166 43q-38 23 -65 54.5 t-41 60.5t-21 69t-8.5 65.5t-1.5 64.5zM238 1108v211h178v-211h-178zM639 1108v211h182v-211h-182z" />
<glyph unicode="&#xfd;" horiz-adv-x="841" d="M-10 -309q51 -17 104 -17q75 0 111.5 39t68.5 127l13 35l41 119l-328 971h174l242 -766l256 766h170l-406 -1141q-63 -179 -123 -240t-174 -61q-75 0 -135 16l-14 4v148zM373 1067l86 295h182l-170 -295h-98z" />
<glyph unicode="&#xfe;" horiz-adv-x="1153" d="M133 -459v1905h160v-621q46 56 100.5 94t105 52.5t80.5 19t56 4.5q75 0 139 -24t105 -56q88 -64 140 -172t52 -258q0 -105 -28 -197t-82.5 -164t-141.5 -113.5t-196 -41.5q-214 0 -330 144v-572h-160zM293 465q0 -71 18.5 -133t54.5 -111.5t95 -78.5t135 -29q95 0 166 41 q63 40 102 124t39 199q0 71 -17 134.5t-51 116t-93 83.5t-136 31q-99 0 -170 -49q-66 -43 -104.5 -127t-38.5 -201z" />
<glyph unicode="&#xff;" horiz-adv-x="841" d="M-10 -309q51 -17 104 -17q75 0 111.5 39t68.5 127l13 35l41 119l-328 971h174l242 -766l256 766h170l-406 -1141q-63 -179 -123 -240t-174 -61q-75 0 -135 16l-14 4v148zM135 1108v211h178v-211h-178zM537 1108v211h182v-211h-182z" />
<glyph unicode="&#x152;" horiz-adv-x="2326" d="M102 729q0 124 29.5 236.5t89.5 207t145 163.5t201 108t252 39q241 0 402 -144l45 -45v152h1003v-172h-819v-449h661v-168h-661v-489h842v-168h-1026v168q-77 -89 -196.5 -147t-278.5 -58q-107 0 -201.5 28t-161.5 72t-122.5 104.5t-89.5 119t-58 121.5q-56 149 -56 321z M307 719q0 -142 37 -252q14 -40 34 -80.5t58.5 -90t86 -86t119 -62t153.5 -25.5q159 0 277 92.5t167 263.5q27 102 27 250q0 169 -31 270q-49 161 -163.5 247.5t-274.5 86.5q-122 0 -224 -57q-120 -68 -192.5 -208t-73.5 -341v-8z" />
<glyph unicode="&#x153;" horiz-adv-x="1783" d="M82 479v2q0 138 41 234q16 40 40 76.5t61.5 74.5t83.5 66t109.5 45.5t135.5 17.5q210 0 348 -178q57 85 148 131.5t204 46.5q100 0 180 -34t131 -89.5t85.5 -129.5t48.5 -149.5t14 -154.5h-727q0 -49 11 -96t35 -91t58.5 -77.5t85.5 -53.5t113 -20q19 0 39 3t51.5 15.5 t58 33.5t53.5 62.5t44 96.5l166 -22q-25 -62 -33 -78q-25 -46 -57.5 -85.5t-80 -76.5t-115 -58.5t-146.5 -21.5q-44 0 -91 9.5t-97.5 30.5t-97.5 60t-81 93q-129 -193 -356 -193q-75 0 -140 19t-111 49t-83 70.5t-59 79t-37 79.5q-33 90 -33 213zM256 477q0 -49 7.5 -96.5 t28 -98.5t51.5 -89t82 -62.5t116 -24.5q55 0 103.5 22t89 66t64 120t23.5 175q0 91 -26 168q-21 63 -55 106t-72.5 62t-69 26t-59.5 7q-117 0 -200 -98t-83 -283zM985 561h547q-6 56 -24.5 107.5t-50.5 96.5t-83.5 72t-116.5 27q-62 0 -112.5 -26.5t-83 -71t-52 -96.5 t-24.5 -109z" />
<glyph unicode="&#x178;" horiz-adv-x="1222" d="M0 1446h227l381 -612l385 612h230l-521 -784v-662h-194v662zM319 1599v209h179v-209h-179zM721 1599v209h178v-209h-178z" />
<glyph unicode="&#x2c6;" d="M6 1071l193 309h137l213 -309h-154l-125 195l-120 -195h-144z" />
<glyph unicode="&#x2dc;" d="M-23 1104q5 38 17 72t32.5 64.5t54.5 48.5t77 18q31 0 56.5 -7t62 -23t55.5 -22q51 -18 82 -18q52 0 63 63h98l-2 -12q-2 -13 -6.5 -30.5t-12 -39.5t-20.5 -43t-30.5 -39t-43.5 -29t-57 -11q-18 0 -42.5 5.5t-42.5 11.5t-48 17t-41 15q-59 22 -84 22q-18 0 -32 -7.5 t-21 -19.5t-10 -20.5t-4 -15.5h-101z" />
<glyph unicode="&#x2000;" horiz-adv-x="974" />
<glyph unicode="&#x2001;" horiz-adv-x="1948" />
<glyph unicode="&#x2002;" horiz-adv-x="974" />
<glyph unicode="&#x2003;" horiz-adv-x="1948" />
<glyph unicode="&#x2004;" horiz-adv-x="649" />
<glyph unicode="&#x2005;" horiz-adv-x="487" />
<glyph unicode="&#x2006;" horiz-adv-x="324" />
<glyph unicode="&#x2007;" horiz-adv-x="324" />
<glyph unicode="&#x2008;" horiz-adv-x="243" />
<glyph unicode="&#x2009;" horiz-adv-x="389" />
<glyph unicode="&#x200a;" horiz-adv-x="108" />
<glyph unicode="&#x2010;" horiz-adv-x="598" d="M92 526v156h416v-156h-416z" />
<glyph unicode="&#x2011;" horiz-adv-x="598" d="M92 526v156h416v-156h-416z" />
<glyph unicode="&#x2012;" horiz-adv-x="598" d="M92 526v156h416v-156h-416z" />
<glyph unicode="&#x2013;" horiz-adv-x="1024" d="M88 522v160h848v-160h-848z" />
<glyph unicode="&#x2014;" horiz-adv-x="2048" d="M88 522v160h1872v-160h-1872z" />
<glyph unicode="&#x2018;" horiz-adv-x="468" d="M133 901v105q0 116 12.5 193t51.5 187q4 12 11 30.5t11 29.5h96q-33 -100 -45.5 -159.5t-21.5 -162.5h88v-223h-203z" />
<glyph unicode="&#x2019;" horiz-adv-x="468" d="M133 1221v225h203v-107q0 -247 -84 -438h-96q67 195 67 320h-90z" />
<glyph unicode="&#x201a;" horiz-adv-x="468" d="M133 0v223h203v-104v-10q0 -237 -84 -428h-96q67 195 67 319h-90z" />
<glyph unicode="&#x201c;" horiz-adv-x="768" d="M129 901v105q0 245 86 440h96q-67 -194 -67 -322h88v-223h-203zM434 901v105q0 247 86 440h94q-24 -54 -40 -133.5t-20.5 -125.5t-4.5 -63h88v-223h-203z" />
<glyph unicode="&#x201d;" horiz-adv-x="768" d="M129 1221v225h203v-107v-10q0 -237 -84 -428h-96q67 195 67 320h-90zM434 1221v225h203v-107v-14q0 -187 -62 -364q-4 -11 -12 -29.5t-12 -30.5h-94q38 113 47 167t18 153h-88z" />
<glyph unicode="&#x201e;" horiz-adv-x="768" d="M129 0v223h203v-104v-10q0 -237 -84 -428h-96q67 195 67 319h-90zM434 0v223h203v-104v-17q0 -183 -62 -362q-4 -12 -12 -29.5t-12 -29.5h-94q23 67 30.5 92.5t17.5 83t17 143.5h-88z" />
<glyph unicode="&#x2022;" horiz-adv-x="681" d="M76 723q0 110 78 188t188 78t188 -78t78 -188t-78 -188t-188 -78t-188 78t-78 188z" />
<glyph unicode="&#x2026;" horiz-adv-x="2048" d="M225 104q0 47 35 81t82 34t81 -34t34 -81t-34 -81.5t-81 -34.5t-82 34.5t-35 81.5zM909 104q0 47 35 81t82 34t81 -34t34 -81t-34 -81.5t-81 -34.5t-82 34.5t-35 81.5zM1591 104q0 47 35 81t82 34t81 -34t34 -81t-34 -81.5t-81 -34.5t-82 34.5t-35 81.5z" />
<glyph unicode="&#x202f;" horiz-adv-x="389" />
<glyph unicode="&#x2039;" horiz-adv-x="512" d="M119 520v170l274 238v-183l-164 -145l164 -135v-176z" />
<glyph unicode="&#x203a;" horiz-adv-x="512" d="M119 274v185l164 143l-164 137v174l274 -231v-170z" />
<glyph unicode="&#x205f;" horiz-adv-x="487" />
<glyph unicode="&#x20ac;" horiz-adv-x="1232" d="M20 504l56 129h110q0 14 -1 44t-1 46q0 53 2 80h-166l56 129h129q25 116 80 211t125 157t156 104t170 60.5t169 18.5q164 0 287 -58l-66 -149q-99 41 -221 41q-178 0 -306.5 -98.5t-176.5 -286.5h569l-53 -129h-537q-4 -50 -4 -80q0 -32 4 -90h467l-53 -129h-395 q41 -184 156.5 -279.5t295.5 -95.5q181 0 297 86v-197q-123 -55 -305 -55q-74 0 -147 13t-157 50t-151.5 95t-124 157t-81.5 226h-183z" />
<glyph unicode="&#x2122;" horiz-adv-x="1406" d="M23 1346v100h552v-100h-213v-580h-120v580h-219zM633 766v680h162l170 -537l165 537h162v-680h-116l4 422q0 60 6 137q-6 -26 -35 -115l-137 -444h-105l-139 444q-5 14 -15.5 52t-19.5 61q8 -40 8 -135l7 -422h-117z" />
<glyph unicode="&#xe000;" horiz-adv-x="962" d="M0 0v963h963v-963h-963z" />
</font>
</defs>
</svg>
