<?xml version="1.0" standalone="no"?>
<!DOCTYPE svg PUBLIC "-//W3C//DTD SVG 1.1//EN" "http://www.w3.org/Graphics/SVG/1.1/DTD/svg11.dtd" >
<svg xmlns="http://www.w3.org/2000/svg">
<metadata></metadata>
<defs>
<font id="volvo_sans_probold" horiz-adv-x="1445" >
<font-face units-per-em="2048" ascent="1495" descent="-553" />
<missing-glyph horiz-adv-x="555" />
<glyph unicode="&#xfb01;" horiz-adv-x="1296" d="M20 852v192h168v132q0 104 35 163q29 49 84 80t103.5 40t99.5 9t188 -18v-238h-75q-77 0 -100 -23t-23 -99v-46h211v-192h-209v-852h-314v852h-168zM868 0v1069h312v-1069h-312zM868 1202v244h312v-244h-312z" />
<glyph unicode="&#xfb02;" horiz-adv-x="1296" d="M20 852v192h168v132q0 104 35 163q29 49 84 80t103.5 40t99.5 9t188 -18v-238h-75q-77 0 -100 -23t-23 -99v-46h211v-192h-209v-852h-314v852h-168zM866 0v1446h314v-1446h-314z" />
<glyph horiz-adv-x="2048" />
<glyph horiz-adv-x="2048" />
<glyph unicode="&#xd;" horiz-adv-x="2048" />
<glyph unicode=" "  horiz-adv-x="555" />
<glyph unicode="&#x09;" horiz-adv-x="555" />
<glyph unicode="&#xa0;" horiz-adv-x="555" />
<glyph unicode="!" horiz-adv-x="598" d="M135 0v348h328v-348h-328zM135 1014v432h328v-418l-98 -530h-138z" />
<glyph unicode="&#x22;" horiz-adv-x="942" d="M102 1446h301l-36 -686h-226zM537 1446h303l-39 -686h-226z" />
<glyph unicode="#" horiz-adv-x="1366" d="M86 438v205h276l27 193h-258v204h285l55 406h213l-57 -406h200l56 406h207l-56 -406h242v-204h-268l-29 -193h252v-205h-277l-63 -438h-207l64 438h-203l-62 -438h-209l62 438h-250zM569 643h205l27 193h-203z" />
<glyph unicode="$" horiz-adv-x="1366" d="M43 168l188 213q108 -59 188.5 -87.5t176.5 -35.5v315q-188 36 -282.5 75.5t-153.5 123.5q-58 84 -58 199q0 92 28.5 166t76.5 121.5t96 76.5t103 47q58 19 188 33v234h166v-236q78 -8 147.5 -25.5t130.5 -45.5t93.5 -45.5t85.5 -49.5l-181 -209q-76 38 -123.5 57.5 t-72.5 26t-80 17.5v-273q86 -19 135 -32t107 -33.5t93.5 -43t68.5 -56.5t57 -78q45 -83 45 -172q0 -71 -24.5 -152.5t-72.5 -138.5q-20 -25 -44.5 -46.5t-49 -37.5t-52 -29.5t-53 -22.5t-51.5 -16.5t-47.5 -12t-42.5 -8t-33.5 -4.5t-23.5 -2l-12 -1v-246h-164v246 q-194 20 -314 65t-239 123zM430 1008q0 -16 5.5 -30t13 -24t21.5 -19t24 -13.5t28.5 -10t26.5 -7.5t26.5 -5.5t20.5 -3.5v246q-32 -4 -50.5 -8t-45.5 -18.5t-45 -39.5q-25 -36 -25 -67zM760 262l17 4q17 3 35 7.5t41.5 16t41.5 27t30.5 42t12.5 59.5q0 56 -44 84t-134 41 v-281z" />
<glyph unicode="%" horiz-adv-x="1835" d="M55 932q0 40 3.5 79.5t13.5 88t26 91t43 83.5t61.5 70t85 47t111.5 18q58 0 119 -25q54 -24 94 -68t61.5 -91.5t35 -105.5t17 -100.5t3.5 -86.5q0 -57 -7.5 -113.5t-30 -122t-58.5 -114.5t-99 -82t-145 -33q-81 0 -143 33.5t-97 83t-57.5 115.5t-29.5 121.5t-7 111.5z M285 922q0 -265 110 -265q105 0 105 277q0 183 -45 244q-25 36 -62 36q-25 0 -47 -18q-61 -53 -61 -274zM449 4l761 1477l179 -95l-764 -1476zM1104 453q0 40 3.5 79.5t13.5 88t26 91t43 83.5t61.5 70t85 47t111.5 18q58 0 119 -25q54 -24 94 -68t61.5 -91.5t35 -105.5 t17 -100.5t3.5 -86.5q0 -57 -7.5 -113.5t-30 -122t-58.5 -114.5t-99 -82t-145 -33q-81 0 -143 33.5t-97 83t-57.5 115.5t-29.5 121.5t-7 111.5zM1333 442q0 -264 111 -264q104 0 104 277q0 182 -45 243q-26 37 -61 37q-25 0 -47 -18q-62 -54 -62 -275z" />
<glyph unicode="&#x26;" horiz-adv-x="1409" d="M59 436v4q0 69 20.5 131.5t55 109t67 78t68.5 56.5q31 21 144 74q-46 73 -70.5 132t-24.5 116q0 42 10.5 83.5t37 84.5t67 75.5t106.5 53t148 20.5h2q20 0 40 -1.5t62.5 -10.5t78 -25.5t75 -51.5t64.5 -83q32 -61 32 -141q0 -58 -21.5 -111t-52 -88.5t-70 -65.5 t-69.5 -45.5t-57 -25.5q168 -247 197 -287q32 69 44 106t27 109l256 -94q-37 -113 -65 -176t-92 -168q33 -36 65.5 -52t89.5 -16q22 0 62 4v-231h-162q-100 0 -148.5 20.5t-105.5 75.5q-53 -31 -95 -51t-120.5 -39.5t-161.5 -19.5q-181 0 -298 74t-169 190q-37 80 -37 186z M373 444q0 -86 62 -150.5t151 -64.5q50 0 92 16.5t110 53.5l-247 379q-67 -42 -97 -72q-70 -72 -71 -162zM582 1149q0 -11 2 -22t6.5 -23.5t8 -21t12 -23t12 -21t14.5 -23.5t14 -22q3 2 22.5 13t28.5 18q37 25 59.5 58.5t22.5 66.5t-24.5 59.5t-75.5 26.5q-39 0 -70.5 -23 t-31.5 -63z" />
<glyph unicode="'" horiz-adv-x="505" d="M102 1446h301l-36 -686h-226z" />
<glyph unicode="(" horiz-adv-x="724" d="M78 596q0 34 1.5 63.5t9.5 88.5t22.5 112.5t43.5 127.5t69.5 142t104 146.5t142.5 150.5q54 49 117 95l108 -103q-72 -68 -106 -112q-94 -121 -157.5 -295t-63.5 -396q0 -36 1 -68t12 -114t30.5 -153.5t62 -164t100.5 -167.5q44 -55 119 -125l-104 -121q-54 41 -96 76 t-98 89.5t-98 106.5t-85 123t-71 144.5t-46 165t-18 188.5z" />
<glyph unicode=")" horiz-adv-x="724" d="M29 -180q78 78 106 114q94 120 158.5 293.5t64.5 395.5q0 34 -1.5 67.5t-12.5 114.5t-31 153.5t-62.5 164.5t-100.5 167q-44 55 -119 125l106 121q53 -41 95 -76t97.5 -89.5t97.5 -106.5t85.5 -123t71 -144.5t45.5 -165t18 -188.5q0 -35 -1 -63.5t-9 -88.5t-22.5 -113.5 t-43.5 -127.5t-69.5 -142t-104 -146.5t-143.5 -149.5q-54 -49 -117 -95z" />
<glyph unicode="*" horiz-adv-x="724" d="M29 1137l47 159l174 -51l67 -59l-41 74v186h164v-184l-34 -78l59 61l178 60l51 -154l-178 -55l-84 8l78 -43l111 -150l-134 -96l-106 152l-19 86l-14 -86l-108 -152l-131 94l108 154l70 41l-78 -19z" />
<glyph unicode="+" horiz-adv-x="1150" d="M12 459v209h461v456h207v-456h459v-209h-459v-459h-207v459h-461z" />
<glyph unicode="," horiz-adv-x="512" d="M92 0v344h328v-262q0 -53 -2 -84q-13 -218 -201 -309q-20 -10 -50.5 -21t-50.5 -16.5t-22 -5.5v145q64 24 89.5 69t33.5 140h-125z" />
<glyph unicode="-" horiz-adv-x="722" d="M109 457v293h505v-293h-505z" />
<glyph unicode="." horiz-adv-x="512" d="M94 0v342h324v-342h-324z" />
<glyph unicode="/" horiz-adv-x="980" d="M33 0l622 1446h291l-622 -1446h-291z" />
<glyph unicode="0" horiz-adv-x="1382" d="M98 705q0 189 46 341t127 249t188 148.5t231 51.5q115 0 211 -37t161 -100.5t114 -142.5t76 -169.5t40 -173t13 -161.5q0 -59 -8 -123t-28 -139t-50.5 -143.5t-79.5 -133t-110.5 -111.5t-147.5 -75.5t-187 -28.5q-95 0 -177 26.5t-141.5 71.5t-107.5 106.5t-79.5 128.5 t-52 141t-29.5 142t-9 132zM401 719q0 -59 9 -123.5t31.5 -134.5t55.5 -124.5t86 -90t119 -35.5q89 0 158 69.5t103 176t34 227.5q0 82 -8 157t-29.5 150t-54 129t-85.5 87.5t-120 33.5q-58 0 -105 -22.5t-78.5 -62t-55 -89.5t-36 -110.5t-18.5 -118.5t-6 -119z" />
<glyph unicode="1" horiz-adv-x="1167" d="M180 1028v211q57 4 91 9t90 19t100 43.5t76 73.5q6 8 12 19t12.5 24l9.5 19h250v-1446h-332v1071q-63 -26 -122 -33.5t-187 -9.5z" />
<glyph unicode="2" horiz-adv-x="1359" d="M121 973v51q0 54 16 113t57.5 124t104 116t164.5 84.5t229 33.5q107 0 195 -20.5t146.5 -55.5t102 -78.5t67 -94t34 -96.5t10.5 -91q0 -88 -45 -183t-114 -176t-166.5 -165t-187 -147t-191.5 -126h708v-262h-1120v242q160 94 296 195.5t244.5 207t170 211.5t61.5 197 q0 35 -12 68.5t-36.5 65t-70 51t-106.5 19.5q-93 0 -166.5 -54.5t-73.5 -139.5q0 -86 6 -107z" />
<glyph unicode="3" horiz-adv-x="1345" d="M63 428v21l320 26q-2 -18 -2 -59q0 -94 79 -149.5t187 -55.5q115 0 199 57.5t84 149.5q0 56 -23 97.5t-55 63.5t-76.5 35t-77 16t-67.5 3q-54 0 -72 -2v235q16 -2 66 -2q127 0 199.5 57t72.5 154q0 46 -23.5 81t-61 54t-78.5 28t-83 9q-108 0 -172.5 -52.5t-64.5 -123.5 v-24l-324 28q58 420 580 420q91 0 171 -13t151 -42t121.5 -72.5t80 -109t29.5 -146.5q0 -131 -78.5 -229t-226.5 -131q148 -18 243.5 -111t95.5 -246q0 -90 -35.5 -166.5t-108 -138.5t-195 -97.5t-283.5 -35.5q-140 0 -250 35.5t-180 99t-106 149t-36 187.5z" />
<glyph unicode="4" horiz-adv-x="1263" d="M37 344v250l686 852h309v-875h185v-225h-185v-346h-323v344h-672zM268 571h443v236q0 72 5.5 188t6.5 142q-30 -50 -217.5 -273.5t-237.5 -292.5z" />
<glyph unicode="5" horiz-adv-x="1329" d="M74 436l323 13q8 -54 30 -96t48.5 -66.5t60 -40t61 -20.5t54.5 -5q67 0 119.5 24.5t81.5 64t44 83t15 86.5q0 61 -17 109t-43.5 77t-62.5 48.5t-70.5 27t-70.5 7.5q-80 0 -143.5 -31t-83.5 -80l-291 49l84 760h975l-19 -262h-702l-35 -305q37 38 122.5 65t186.5 27 q217 0 361.5 -141t144.5 -349q0 -155 -81 -275.5t-219 -184.5t-308 -64q-124 0 -220 27t-156 70.5t-101.5 108t-60.5 129.5t-27 144z" />
<glyph unicode="6" horiz-adv-x="1339" d="M90 711q0 381 161 582.5t474 201.5q219 0 363.5 -105.5t158.5 -269.5l-329 -37q-7 44 -27.5 76.5t-44.5 49t-54.5 26.5t-51 12t-42.5 2q-59 0 -106 -18.5t-78 -54t-52.5 -78t-33.5 -99t-17.5 -108t-7.5 -113.5q31 44 77 76.5t87.5 48t90.5 25t75 11t53 1.5 q91 0 177.5 -33.5t156 -93.5t112 -153.5t42.5 -204.5q0 -144 -88.5 -260.5t-222.5 -177t-281 -60.5q-310 0 -451 188t-141 566zM442 444q0 -110 74.5 -177.5t181.5 -67.5q103 0 183 73.5t80 173.5q0 113 -71.5 187t-178.5 74q-73 0 -128.5 -26.5t-84.5 -68.5t-42.5 -84.5 t-13.5 -83.5z" />
<glyph unicode="7" horiz-adv-x="1236" d="M70 1178v268h1067v-252q-242 -288 -385.5 -591.5t-182.5 -602.5h-381q3 74 50 206.5t126 291.5t199 342.5t254 337.5h-747z" />
<glyph unicode="8" horiz-adv-x="1355" d="M84 399q0 105 72.5 212.5t191.5 140.5q-90 46 -148.5 136t-58.5 210q0 66 35 134.5t99.5 128t169.5 97t231 37.5q152 0 271.5 -45.5t193 -140t73.5 -226.5q0 -66 -17.5 -122.5t-47.5 -96t-62 -67t-69 -45.5q58 -16 103 -44t71.5 -62.5t44 -67.5t24.5 -70.5t9 -59t2 -45.5 q0 -111 -51 -198.5t-136 -140.5t-189 -80t-218 -27q-165 0 -300 55t-214.5 156.5t-79.5 230.5zM416 424q0 -104 73.5 -162.5t186.5 -58.5q66 0 116 16.5t77 40.5t44 56.5t22 57.5t5 50q0 102 -69.5 160.5t-190.5 58.5q-113 0 -188.5 -55t-75.5 -164zM446 1065q0 -35 14 -70 t41 -67t74.5 -52t106.5 -20q84 0 157.5 51t73.5 140q0 77 -63 142.5t-166 65.5q-102 0 -170 -55t-68 -135z" />
<glyph unicode="9" horiz-adv-x="1417" d="M127 997q0 229 155 363.5t439 134.5q114 0 210.5 -36t166.5 -101t119 -153t73.5 -193t24.5 -221q0 -147 -18.5 -267.5t-64 -228t-117 -180.5t-181 -115.5t-252.5 -42.5q-128 0 -229 33.5t-162 89t-94.5 120.5t-40.5 136l327 33q9 -50 30 -84t54 -50.5t68 -23t82 -6.5 q54 0 98 24.5t73.5 67t50.5 92.5t33 109.5t17.5 109t7.5 99.5q-40 -68 -137.5 -108t-224.5 -40q-68 0 -134.5 12.5t-135.5 44.5t-120.5 79.5t-84.5 125.5t-33 176zM436 1014q0 -109 73.5 -165t195.5 -56q120 0 189 69.5t69 153.5q0 109 -77 174t-181 65q-119 0 -194 -68 t-75 -173z" />
<glyph unicode=":" horiz-adv-x="598" d="M135 0v348h328v-348h-328zM135 725v344h328v-344h-328z" />
<glyph unicode=";" horiz-adv-x="598" d="M133 -209q69 25 94 67t33 142h-125v350h328v-325q-10 -79 -19 -111q-14 -45 -35.5 -83t-42.5 -62.5t-52.5 -46t-50 -31.5t-52.5 -20.5t-42.5 -12.5t-35.5 -8v141zM135 725v348h328v-348h-328z" />
<glyph unicode="&#x3c;" horiz-adv-x="1150" d="M12 477v172l1127 502v-225l-813 -363l813 -364v-226z" />
<glyph unicode="=" horiz-adv-x="1150" d="M12 297v207h1127v-207h-1127zM12 641v207h1127v-207h-1127z" />
<glyph unicode="&#x3e;" horiz-adv-x="1150" d="M12 -27v226l813 364l-813 363v225l1127 -502v-172z" />
<glyph unicode="?" horiz-adv-x="1175" d="M43 1096q40 113 76 164q148 215 487 215q251 0 380.5 -108t129.5 -275q0 -62 -24 -134q-14 -37 -30.5 -64t-48.5 -56.5t-53 -45.5t-81.5 -58t-96.5 -68q-7 -5 -22 -16.5t-21.5 -16t-18 -13.5t-17 -13.5t-14 -12t-13.5 -12.5t-10 -11t-9 -12q-13 -24 -20 -61h-260 q1 55 4 81.5t22 67.5t58 80q30 30 90.5 72.5t104.5 73.5t79 80.5t35 105.5q0 21 -4 42t-16 48t-32 46.5t-55.5 33.5t-82.5 14q-107 0 -174 -68t-70 -176zM348 0v348h324v-348h-324z" />
<glyph unicode="@" horiz-adv-x="1835" d="M119 483q0 187 70 362.5t193.5 311.5t306.5 218.5t394 82.5q128 0 241 -38t201 -110t139.5 -189t51.5 -265q0 -88 -24 -205q-28 -121 -82 -221t-120 -164.5t-140 -99.5t-146 -35q-22 0 -44 4.5t-49.5 17t-51 39.5t-35.5 66q-122 -127 -264 -127q-55 0 -106.5 20 t-95.5 60.5t-70.5 111t-26.5 160.5q0 29 4 65t18.5 105.5t53.5 146t98 138.5q130 137 289 137q137 0 215 -108l16 65h209q-52 -225 -74 -325q-57 -267 -57 -338q0 -52 29 -52q34 0 90 58q67 67 120.5 197t53.5 280q0 82 -20.5 149t-52.5 110.5t-76 76t-85 49.5t-87 27.5 t-74.5 13t-53.5 2.5q-197 0 -358 -90q-109 -61 -192 -149t-129.5 -183t-69.5 -186.5t-23 -177.5q0 -141 48.5 -251t135 -179t199.5 -104.5t246 -35.5q105 0 208.5 27t188.5 73.5t152 96.5t123 106l110 -137q-170 -165 -370 -254.5t-414 -89.5q-169 0 -340 61 q-95 35 -171 85.5t-124.5 102.5t-84 115.5t-53 114t-27.5 108t-11.5 87.5t-1.5 63zM692 496q0 -114 72 -154q24 -12 49 -12h8q64 0 133 69q54 55 83.5 148t29.5 166q0 33 -10 69q-13 48 -45 72.5t-72 24.5q-63 0 -117 -45q-64 -56 -97.5 -155.5t-33.5 -182.5z" />
<glyph unicode="A" d="M0 0l537 1446h376l533 -1446h-385l-72 231h-532l-72 -231h-385zM541 492h366l-188 610q-60 -230 -178 -610z" />
<glyph unicode="B" horiz-adv-x="1460" d="M139 0v1446h594h25q74 0 117.5 -1.5t108 -10t107.5 -24.5t89 -47.5t80 -76.5q65 -86 65 -219q0 -26 -4.5 -52.5t-19.5 -71.5t-54.5 -87.5t-99.5 -71.5q-41 -21 -131 -41q44 -6 74 -12t74.5 -21t76.5 -35.5t63.5 -56.5t51.5 -83q24 -60 24 -129q0 -133 -86 -240 q-47 -56 -108 -92t-132 -50.5t-122 -19t-121 -4.5h-672zM483 262h252q102 0 158.5 15t91.5 59q29 39 29 100q0 176 -197 176h-20h-314v-350zM483 874h273q34 0 59 2t56.5 11t51.5 25t34 46t14 72q0 48 -20 80.5t-52 45t-53.5 16.5t-44.5 4h-6h-312v-302z" />
<glyph unicode="C" horiz-adv-x="1421" d="M86 723q0 219 88 385q26 52 61 101t90 102t119.5 91.5t153.5 63.5t188 25q29 0 55.5 -1.5t90.5 -14t119.5 -35t125.5 -70.5t126 -115q48 -54 94 -139l-285 -143q-30 61 -47 84q-41 55 -107.5 96t-154.5 41q-78 0 -141 -30.5t-102.5 -78.5t-66 -110.5t-37 -122.5 t-10.5 -119q0 -118 29.5 -210.5t79.5 -149t113 -85t135 -28.5q53 0 99 15t75.5 34t59.5 52.5t44 55t35 56.5l287 -143q-2 -2 -16.5 -25.5t-35.5 -53.5t-40 -52q-108 -124 -251 -183t-280 -59q-26 0 -55.5 2t-84 12.5t-105 28t-111.5 52.5t-112 82t-99 120.5t-78 163.5 q-49 147 -49 305z" />
<glyph unicode="D" horiz-adv-x="1519" d="M139 0v1446h461q61 0 105 -1.5t112 -8t119 -18.5t114 -36t112 -56.5t97.5 -83t83.5 -114.5q91 -163 91 -405q0 -92 -14 -176t-49.5 -168.5t-90 -152t-140.5 -121t-196 -80.5q-105 -25 -237 -25h-568zM504 291h108q65 0 112 3.5t114.5 24t111.5 58.5q121 102 121 350v25 q0 38 -6 77t-23 95.5t-59.5 106.5t-105.5 79q-65 31 -195 31h-178v-850z" />
<glyph unicode="E" horiz-adv-x="1312" d="M139 0v1446h1069v-279h-708v-264h661v-274h-661v-344h774v-285h-1135z" />
<glyph unicode="F" horiz-adv-x="1271" d="M139 0v1446h1110v-277h-749v-305h690v-278h-690v-586h-361z" />
<glyph unicode="G" horiz-adv-x="1540" d="M86 707v16v10q0 26 1.5 53.5t10 84.5t23 108.5t44 118t70 122t105 110.5t143.5 93q149 72 328 72q94 0 180 -21.5t149 -53.5t122 -79.5t97.5 -88.5t76.5 -91l-275 -166q-28 43 -54 73.5t-66.5 63t-95 49.5t-120.5 17q-85 0 -152.5 -29t-109 -75.5t-69 -110t-38 -127 t-10.5 -131.5q0 -114 28.5 -204t72.5 -142q52 -64 137 -96q66 -25 141 -25q38 0 76 7.5t78.5 24t75.5 48t57 74.5q20 41 29 116h-324v275h629v-803h-283v133q-81 -75 -181.5 -120.5t-244.5 -45.5q-180 0 -329 88q-87 52 -151 132t-95.5 153t-50 156.5t-22 128t-3.5 82.5z " />
<glyph unicode="H" horiz-adv-x="1533" d="M139 0v1446h367v-522h526v522h363v-1446h-363v616h-528v-616h-365z" />
<glyph unicode="I" horiz-adv-x="638" d="M139 0v1446h361v-1446h-361z" />
<glyph unicode="J" horiz-adv-x="788" d="M20 0v293h62q52 0 82 2t60.5 8.5t45.5 20.5t24 38t9 60v1024h363v-1069v-21q0 -44 -2.5 -74.5t-12 -72t-33 -76.5t-59.5 -63q-54 -42 -117 -56t-180 -14h-242z" />
<glyph unicode="K" horiz-adv-x="1458" d="M139 0v1446h344v-590l541 590h436l-512 -537l551 -909h-407l-385 655l-224 -231v-424h-344z" />
<glyph unicode="L" horiz-adv-x="1079" d="M139 0v1446h361v-1141h565v-305h-926z" />
<glyph unicode="M" horiz-adv-x="1875" d="M139 0v1446h529l221 -811q10 -38 51 -232q13 74 39 181l229 862h529v-1446h-348l22 1030q4 110 4 148q-30 -142 -47 -207l-272 -971h-312l-262 930q-13 47 -31 128.5t-32 129.5q10 -168 12 -277l21 -911h-353z" />
<glyph unicode="N" horiz-adv-x="1492" d="M139 0v1446h355l313 -531q38 -65 72 -127t76.5 -142t68.5 -128l-16 928h346v-1446h-355l-270 457q-20 34 -66 110t-73 125q-49 84 -115 217l12 -909h-348z" />
<glyph unicode="O" horiz-adv-x="1619" d="M86 729q0 83 16.5 167.5t52 174t102.5 172t159 141.5q165 107 395 107h10q178 0 340 -86q75 -40 136.5 -99t99 -117.5t66 -128t41.5 -121.5t20.5 -107.5t8.5 -77.5t1 -39q0 -73 -15 -151t-46 -159.5t-86 -159t-127 -136.5q-76 -64 -183 -105q-126 -47 -272 -47 q-168 0 -305.5 61.5t-227 167t-138 245.5t-48.5 298zM442 733q0 -117 30 -209.5t81.5 -148.5t115 -84.5t134.5 -28.5q51 0 100.5 13.5t98.5 46t86 80.5t60 123.5t23 168.5q0 136 -30 228q-22 69 -58 121t-72 78.5t-79.5 42.5t-72.5 20t-58 4q-117 0 -199 -64 q-71 -55 -115.5 -156t-44.5 -235z" />
<glyph unicode="P" horiz-adv-x="1431" d="M139 0v1446h619q134 0 210.5 -8t135.5 -29q65 -24 115 -63.5t79 -84t48 -97.5t25.5 -99t6.5 -94q0 -194 -100 -314q-35 -44 -78 -77t-93 -52.5t-91.5 -31.5t-99 -16.5t-88.5 -5.5t-85 -1h-241v-473h-363zM502 741h219q38 0 64.5 1.5t60 6.5t56.5 14t47 26t38.5 40.5 t23.5 59t9 80.5v2q0 77 -39 129q-37 49 -92 64.5t-156 15.5h-231v-439z" />
<glyph unicode="Q" horiz-adv-x="1622" d="M86 729q0 125 31.5 239t93.5 208.5t148 164.5t201 109t247 39q215 0 382.5 -100t257 -271t89.5 -383q0 -204 -80 -370q-15 -32 -63 -111q68 -60 118.5 -85t161.5 -44l-104 -258q-126 24 -197 59t-201 133q-119 -56 -192 -78t-172 -22q-25 0 -50.5 1.5t-81.5 10.5 t-106.5 24.5t-115 48.5t-118 77.5t-106 116t-86.5 159.5q-57 148 -57 332zM446 729q0 -122 33 -215.5t88 -146.5t118 -79t132 -26q70 0 133 27.5t115 81.5t82.5 146t30.5 210q0 90 -31 191q-29 90 -78.5 150.5t-134.5 92.5q-58 21 -137 21q-54 0 -117 -23q-69 -27 -118 -80 t-72.5 -117.5t-33.5 -121t-10 -111.5z" />
<glyph unicode="R" horiz-adv-x="1462" d="M139 0v1446h652q43 0 67 -0.5t70 -3t76.5 -9.5t73.5 -18t74.5 -29.5t66 -44t62.5 -62t50 -81.5q47 -98 47 -213v-6q0 -79 -20 -143.5t-47.5 -104t-71.5 -72.5t-78 -48.5t-80 -32.5l334 -578h-397l-289 516h-225v-516h-365zM502 784h299q23 0 43 2t54.5 13t58.5 30.5 t42.5 59t18.5 94.5q0 195 -209 195h-307v-394z" />
<glyph unicode="S" horiz-adv-x="1427" d="M18 262l275 174q31 -35 40.5 -44.5t35.5 -29.5q56 -43 146 -76.5t196 -33.5q113 0 189.5 48t76.5 116q0 31 -14 55.5t-26.5 34t-33.5 20.5q-37 20 -97 30t-156 21t-177 29q-27 6 -47 11.5t-61.5 21t-73 33t-70 49t-63.5 68.5t-42.5 91t-17.5 117q0 105 35.5 190t93 138.5 t135 89.5t156.5 51t162 15q92 0 177 -17.5t146.5 -42.5t125 -65t102.5 -71.5t88 -76.5l-264 -190q-39 36 -68 59t-79 54.5t-109 48t-123 16.5q-98 0 -157.5 -45.5t-59.5 -106.5q0 -40 20 -65q10 -13 25.5 -23.5t30.5 -17t42 -13t44 -9t54 -8.5t56 -9q188 -30 270 -51 q29 -7 52.5 -14.5t59.5 -23t64.5 -34t59 -48.5t51 -65t34 -84.5t13.5 -107.5q0 -126 -63 -235q-156 -269 -594 -269q-333 0 -549 180q-33 28 -51 46.5t-60 68.5z" />
<glyph unicode="T" horiz-adv-x="1148" d="M16 1161v285h1117v-285h-375v-1161h-365v1161h-377z" />
<glyph unicode="U" horiz-adv-x="1480" d="M123 594v852h364v-901q0 -131 27 -176q59 -103 236 -103q76 0 126.5 20.5t75.5 61.5t34 87t9 112v899h363v-807q0 -212 -43 -324q-27 -70 -71.5 -126.5t-92 -91.5t-105 -61.5t-103 -39t-94.5 -20t-71 -8.5t-41 -1h-4h-2q-15 0 -35 1t-66.5 7.5t-90 17.5t-99.5 34.5 t-102.5 54.5t-91 81.5t-72.5 112.5q-51 111 -51 318z" />
<glyph unicode="V" horiz-adv-x="1366" d="M0 1446h385l299 -1028l297 1028h385l-502 -1446h-368z" />
<glyph unicode="W" horiz-adv-x="2000" d="M0 1446h360q12 -55 49.5 -216.5t51.5 -225t39.5 -186.5t42.5 -227t32 -220q27 143 61.5 293.5t56.5 236t74 279t71 266.5h319q31 -114 125 -445q9 -30 26 -85.5t26 -86t21.5 -78t22.5 -92.5q25 -102 52 -284q40 263 51 321t71 332q23 100 90 418h359l-367 -1446h-372 q-116 412 -121 430q-6 20 -26.5 90t-27 92t-22 77.5t-23.5 88.5t-19.5 81.5t-21.5 96.5q-33 -156 -122 -469l-140 -487h-372z" />
<glyph unicode="X" horiz-adv-x="1574" d="M0 0l559 784l-481 662h428l278 -436l283 436h420l-477 -662l565 -784h-416l-371 547l-374 -547h-414z" />
<glyph unicode="Y" d="M0 1446h414l311 -496q37 72 61 109l248 387h412l-547 -762v-684h-356v674z" />
<glyph unicode="Z" horiz-adv-x="1320" d="M35 0v272l801 893h-734v281h1168v-283l-789 -878h785v-285h-1231z" />
<glyph unicode="[" horiz-adv-x="724" d="M139 -213v1659h543v-162h-276v-1329h276v-168h-543z" />
<glyph unicode="\" horiz-adv-x="980" d="M33 1446h291l622 -1446h-291z" />
<glyph unicode="]" horiz-adv-x="724" d="M43 -47h279v1327h-279v166h545v-1659h-545v166z" />
<glyph unicode="^" horiz-adv-x="1050" d="M41 662l399 784h187l383 -784h-242l-240 503l-247 -503h-240z" />
<glyph unicode="_" horiz-adv-x="1024" d="M-20 -256h1064v-211h-1064v211z" />
<glyph unicode="`" horiz-adv-x="555" d="M12 1475h379l152 -273h-207z" />
<glyph unicode="a" horiz-adv-x="1130" d="M61 297q0 63 23 117t60 91t70 59.5t67 37.5q79 34 211 60q81 16 217 40v58q0 131 -121 131q-102 0 -148 -70q-7 -10 -18 -55h-316q0 76 27 131q93 201 436 201q52 0 102 -6t114 -22t118 -53.5t84 -92.5q31 -57 31 -129v-4v-650q0 -59 5.5 -86t25.5 -55h-310v96 q-40 -30 -61.5 -43.5t-65.5 -37t-93.5 -34t-106.5 -10.5q-81 0 -145 24t-101.5 60t-62 82t-33.5 85t-9 75zM371 311q0 -36 29.5 -72t88.5 -36q62 0 123 45q57 41 76 97.5t21 166.5l-203 -68l-12 -4q-13 -5 -26.5 -11t-31.5 -17t-32 -24.5t-23.5 -33.5t-9.5 -43z" />
<glyph unicode="b" horiz-adv-x="1249" d="M117 0v1446h307v-475q58 62 128 95.5t177 33.5q64 0 125.5 -18t122 -59.5t106 -102.5t73.5 -154.5t28 -208.5q0 -327 -180 -483q-115 -103 -285 -103h-8q-154 3 -254 90q-3 3 -49 52l12 -113h-303zM416 543q0 -158 45 -232q25 -38 51 -57q57 -49 139 -49q76 0 129 45 q97 83 97 297q0 56 -9 107t-30.5 102.5t-66.5 82.5t-109 31q-89 0 -152 -53q-94 -79 -94 -274z" />
<glyph unicode="c" horiz-adv-x="1093" d="M66 526q0 164 60 292t183 205t293 77q20 0 35 -0.5t52 -5.5t68 -14t74.5 -28.5t80 -45.5t76 -68.5t71.5 -95.5l-234 -133q-22 43 -37 63q-69 86 -170 86q-50 0 -91 -21.5t-66 -55t-42 -76.5t-23.5 -82t-6.5 -76q0 -38 6.5 -79t23.5 -87.5t42.5 -82t68 -59.5t95.5 -24 q21 0 44.5 5.5t56 20.5t61.5 49.5t47 84.5l237 -123q-180 -287 -475 -287q-40 0 -83.5 6.5t-96.5 24t-101 44.5t-94.5 71.5t-80 100.5t-54 137t-20.5 177z" />
<glyph unicode="d" horiz-adv-x="1216" d="M66 535q0 113 25 207.5t68 159t100 109.5t120.5 66t130.5 21q64 0 123 -19.5t88.5 -38.5t71.5 -51v457h307v-1446h-287v100q-135 -129 -283 -129q-68 0 -132 19t-125 62t-106.5 106.5t-73 160.5t-27.5 216zM385 528q0 -149 52 -236t149 -87q68 0 119 45q96 83 96 289 q0 149 -51 235t-148 86q-52 0 -98 -26q-119 -74 -119 -306z" />
<glyph unicode="e" horiz-adv-x="1202" d="M66 510q0 126 34.5 232.5t101.5 187.5t173.5 126.5t242.5 45.5q168 0 289 -76q63 -40 109 -97t70 -110.5t39 -123.5t19.5 -116t6.5 -108h-764v-14q0 -21 4.5 -48t20.5 -65t41 -68t71.5 -51.5t106.5 -21.5q49 0 89.5 13t66 29t50 46.5t35.5 49t29 52.5l238 -123 q-1 -1 -9 -13t-19 -27t-25 -34t-31.5 -39t-34.5 -36q-70 -68 -175 -114t-239 -46q-253 0 -396.5 152.5t-143.5 396.5zM389 666h436q-12 84 -39 125.5t-84 66.5q-38 19 -90 19q-126 0 -192 -115q-20 -34 -31 -96z" />
<glyph unicode="f" horiz-adv-x="724" d="M20 852v192h168v132q0 104 35 163q29 49 84 80t103.5 40t99.5 9t188 -18v-238h-75q-77 0 -100 -23t-23 -99v-46h211v-192h-209v-852h-314v852h-168z" />
<glyph unicode="g" horiz-adv-x="1218" d="M66 563q0 173 68.5 298.5t176.5 180.5q86 45 209 45q169 0 285 -116v100h297v-1028q0 -128 -35 -205q-26 -57 -75 -99.5t-101 -65t-116.5 -36t-109.5 -17t-92 -3.5q-140 0 -247.5 37t-165.5 98q-78 85 -78 228v20h326q5 -59 18 -84q52 -90 174 -90q50 0 86.5 11.5 t56 28.5t31 42.5t14.5 47.5t3 50v135q-41 -27 -72 -43t-88.5 -31.5t-122.5 -15.5q-62 0 -120.5 14.5t-118 51.5t-103.5 93t-72 147t-28 206zM391 561q0 -41 3.5 -74.5t16 -72t33.5 -64.5t59 -43.5t89 -17.5q44 0 77.5 12t54 35t34.5 48.5t20 61t8 63t2 62.5q0 51 -9 112.5 t-31 92.5q-26 37 -64 53q-40 23 -96 23h-10q-55 -3 -95 -27q-92 -62 -92 -264z" />
<glyph unicode="h" horiz-adv-x="1189" d="M117 0v1446h315v-490q137 142 305 142q118 0 201 -56q34 -22 58.5 -47.5t39.5 -56.5t23.5 -56.5t12 -62.5t4.5 -58t1 -59v-702h-313v559q0 100 -12.5 153t-55.5 87q-39 30 -94 30q-57 0 -98 -32q-33 -26 -49.5 -66.5t-19.5 -73.5t-3 -90v-16v-551h-315z" />
<glyph unicode="i" horiz-adv-x="546" d="M117 0v1069h313v-1069h-313zM117 1202v244h313v-244h-313z" />
<glyph unicode="j" horiz-adv-x="538" d="M-31 -111q10 -2 33 -2q68 0 88.5 27.5t20.5 83.5v41v1030h311v-1057v-6q0 -135 -14 -186q-25 -90 -93 -137.5t-200 -47.5q-13 0 -146 5v249zM111 1204v242h311v-242h-311z" />
<glyph unicode="k" horiz-adv-x="1167" d="M117 0v1446h309v-744l346 367h379l-369 -381l416 -688h-364l-275 461l-135 -129v-332h-307z" />
<glyph unicode="l" horiz-adv-x="546" d="M117 0v1446h313v-1446h-313z" />
<glyph unicode="m" horiz-adv-x="1787" d="M117 0v1069h311v-113q113 142 303 142q147 0 234 -66q18 -11 65 -61q34 31 72 57q106 70 246 70q120 0 206 -56q80 -52 100.5 -118t20.5 -215v-709h-313v590q0 45 -0.5 65.5t-4 51.5t-10.5 47t-20 34t-33 31q-32 23 -80 23q-32 0 -60.5 -11t-41.5 -22q-36 -29 -47.5 -70 t-11.5 -100v-57v-582h-314v635q0 82 -14 121.5t-61 64.5q-29 19 -76 19q-44 0 -76 -18t-48 -41.5t-24.5 -57t-10 -53t-1.5 -41.5v-629h-311z" />
<glyph unicode="n" horiz-adv-x="1181" d="M117 0v1067h319v-92q31 36 53 51q35 28 102 49t146 21q122 0 205 -52q77 -49 102 -115.5t25 -197.5v-731h-315v604v27q0 75 -8 112.5t-39 65.5q-40 35 -107 35q-45 0 -78 -15t-50 -36t-26.5 -54.5t-11.5 -59.5t-2 -63v-38v-578h-315z" />
<glyph unicode="o" horiz-adv-x="1280" d="M66 530q0 181 73 311.5t199.5 195.5t292.5 65q167 0 278 -51q84 -37 146.5 -99t95.5 -134.5t48 -142t15 -138.5q0 -41 -5.5 -85.5t-22 -101.5t-42 -109t-70.5 -103t-103 -88t-143 -60t-187 -23q-73 0 -144 14.5t-143.5 47t-134.5 94t-100 145.5q-53 117 -53 262zM383 539 q0 -83 22 -147t59.5 -100.5t82 -54.5t94.5 -18q67 0 118.5 27.5t79.5 73t42 97t14 107.5q0 165 -68 246.5t-184 81.5q-86 0 -139 -35q-54 -33 -87.5 -106.5t-33.5 -171.5z" />
<glyph unicode="p" horiz-adv-x="1228" d="M117 -371v1436h280v-100q30 33 45 45q40 35 107.5 59.5t144.5 24.5q174 0 291 -103q52 -45 89 -104.5t55.5 -122t26 -117t7.5 -108.5q0 -81 -15 -157.5t-50.5 -150.5t-87.5 -129t-132 -88.5t-178 -33.5q-74 0 -128 19.5t-136 70.5v-441h-319zM422 532q0 -155 57 -240 t160 -85q52 0 93 25t64.5 61.5t38.5 84.5t20 87.5t5 75.5q0 74 -14 136.5t-53.5 116t-100.5 70.5q-21 6 -45 6q-103 0 -164 -91t-61 -247z" />
<glyph unicode="q" horiz-adv-x="1216" d="M66 522q0 147 40 261t107 181t146 100.5t165 33.5q67 0 126 -20.5t89.5 -42t73.5 -58.5v90h287v-1436h-316v445q-127 -99 -272 -99q-63 0 -124.5 18.5t-120 60.5t-103 103t-71.5 155t-27 208zM377 526q1 -74 24.5 -144t73.5 -120.5t117 -50.5q96 0 155.5 90.5t59.5 245.5 q0 143 -55.5 234t-153.5 91q-54 0 -102 -32q-119 -82 -119 -301v-13z" />
<glyph unicode="r" horiz-adv-x="741" d="M117 0v1071h305v-113q62 54 130 83t179 40v-278l-104 -17q-33 -5 -50.5 -8.5t-42.5 -10.5t-37.5 -15t-27.5 -21t-22 -30.5t-12 -42t-5 -56.5v-602h-313z" />
<glyph unicode="s" horiz-adv-x="1067" d="M-14 178l198 180q34 -34 70 -59q118 -88 244 -88q79 0 133.5 28.5t54.5 77.5q0 6 -1 11.5t-3 10t-3.5 8t-5 7.5t-5 5.5l-5 5l-4.5 4.5q-17 16 -59.5 26t-114.5 21.5t-116 21.5q-111 25 -171 62q-137 84 -137 245q0 63 27.5 124t80 115t142.5 87t203 33q247 0 475 -160 l-194 -180q-53 43 -113 68.5t-94 31.5t-60 6q-66 0 -108.5 -20t-42.5 -62q0 -28 29 -51q11 -11 55 -21t114 -23t113 -25q55 -14 98 -30.5t86 -43t71.5 -59.5t46.5 -81.5t18 -107.5q0 -86 -37 -154t-92.5 -108.5t-126 -67t-130.5 -36t-114 -9.5q-97 0 -178.5 17t-146 51 t-106 64t-91.5 75z" />
<glyph unicode="t" horiz-adv-x="718" d="M16 852v192h156v334h311v-336h209v-192h-209v-528q0 -10 2.5 -20t9.5 -23t25 -21t45 -8q70 0 111 2v-244q-72 -16 -166 -16q-111 0 -168 16q-41 12 -71 31.5t-48 46.5t-29 51t-15.5 60t-5.5 58t-1 60v537h-156z" />
<glyph unicode="u" horiz-adv-x="1191" d="M113 379v690h317v-666q0 -71 11.5 -101.5t52.5 -55.5q37 -21 86 -21h2q12 0 27 2t42.5 9t52.5 26.5t41 48.5q17 33 17 92v666h313v-1069h-315v102q-29 -34 -43 -45q-41 -34 -112.5 -61t-153.5 -27q-72 0 -127.5 14.5t-91.5 43t-60.5 64t-37 84.5t-17 96t-4.5 108z" />
<glyph unicode="v" horiz-adv-x="1024" d="M0 1069h334q8 -28 31.5 -114.5t31.5 -116t27 -100.5t28 -110.5t23 -101t25 -118t22 -117.5q18 103 41 210t39.5 175t49 197t48.5 196h324l-346 -1069h-330z" />
<glyph unicode="w" horiz-adv-x="1617" d="M0 1069h332l149 -747l162 747h336l147 -754l166 754h326l-320 -1069h-342l-157 713l-160 -713h-346z" />
<glyph unicode="x" horiz-adv-x="1064" d="M0 0l362 580l-323 489h356l142 -272l151 272h338l-324 -500l363 -569h-336l-203 332l-178 -332h-348z" />
<glyph unicode="y" horiz-adv-x="1024" d="M0 1069h336l176 -766l176 766h336l-377 -1155q-27 -88 -55 -133q-55 -92 -118 -121t-155 -29h-227v252h111h6q23 0 39.5 2t39 8.5t34.5 23.5t12 44q0 35 -53 203z" />
<glyph unicode="z" horiz-adv-x="1091" d="M51 0v236l578 591h-516v242h915v-242l-569 -583h569v-244h-977z" />
<glyph unicode="{" horiz-adv-x="739" d="M55 500v118q92 24 126 90t34 201v269q0 155 31 227q17 39 40.5 67t54.5 45.5t63.5 27.5t79.5 14.5t90 6t106 1.5h29v-131q-125 -15 -173.5 -79t-48.5 -231v-102v-117q0 -68 -2.5 -108t-12.5 -83.5t-30 -69.5t-54.5 -49t-86.5 -38q52 -15 86.5 -38t54.5 -49t30 -69.5 t12.5 -83.5t2.5 -108v-117v-102q0 -114 22.5 -178t68.5 -92.5t131 -38.5v-132q-194 2 -255 11q-122 20 -179 99q-16 24 -29 52q-31 72 -31 228v268q0 135 -34 201t-126 90z" />
<glyph unicode="|" horiz-adv-x="468" d="M129 -512v2044h211v-2044h-211z" />
<glyph unicode="}" horiz-adv-x="739" d="M31 -317q125 15 173 78.5t48 230.5v102v117q0 68 2.5 108t12.5 83.5t30 69.5t54.5 49t86.5 38q-52 15 -86.5 38t-54.5 49t-30 69.5t-12.5 83.5t-2.5 108v117v102q0 167 -48 231t-173 79v131q194 -2 255 -11q122 -20 179 -99q16 -24 29 -52q30 -70 30 -227v-269 q0 -135 34 -201t126 -90v-118q-92 -24 -126 -90t-34 -201v-268q0 -158 -30 -228q-17 -39 -40.5 -67t-54.5 -45.5t-63.5 -27.5t-79.5 -14.5t-90 -6t-106 -1.5h-29v132z" />
<glyph unicode="~" horiz-adv-x="1112" d="M41 604q119 182 297 182q46 0 90 -13t129 -52l70 -33q88 -43 151 -43q20 0 40 5.5t38 15.5t33 20t30.5 25t24 24t20 22t13.5 15l94 -182q-66 -68 -103 -96q-94 -70 -192 -70q-53 0 -99 15.5t-118 49.5l-59 29q-96 47 -158 47q-17 0 -33 -3.5t-27.5 -6.5t-26.5 -13.5 t-22 -15.5t-23.5 -22t-21.5 -22t-24.5 -27.5t-24.5 -28.5z" />
<glyph unicode="&#xa1;" horiz-adv-x="585" d="M125 0v420l96 532h137l93 -518v-434h-326zM125 1102v344h326v-344h-326z" />
<glyph unicode="&#xa2;" horiz-adv-x="1107" d="M66 514q0 210 87.5 347t227.5 196q68 28 166 35v229h158v-231q75 -12 136 -38.5t106 -65t72 -69.5t58 -75l-233 -135q-39 69 -68 95.5t-71 39.5v-619q47 12 79 44t68 106l233 -121q-19 -32 -31 -50t-41.5 -54.5t-58.5 -61t-74 -51.5t-96 -43q-30 -9 -82 -19v-243h-155 v239q-88 9 -162 38.5t-123 67.5t-87 87.5t-58.5 94.5t-32.5 93q-18 71 -18 164zM391 524q1 -81 25.5 -144t60.5 -99q31 -31 70 -50v611q-69 -28 -112.5 -112.5t-43.5 -197.5v-8z" />
<glyph unicode="&#xa3;" horiz-adv-x="1409" d="M33 217q0 104 89.5 182t250.5 78q47 0 129 -10q-46 91 -86 145h-297v201h157q-26 36 -49.5 101t-23.5 133q0 118 80 213q74 87 193 126t300 39q284 0 404 -129q45 -48 69 -125q35 -98 35 -215l-313 -22q-3 61 -11 99t-29.5 73.5t-63.5 51.5t-107 16q-107 0 -160 -46 t-53 -120q0 -24 7 -49.5t20 -49t22 -39t24.5 -35.5t16.5 -22h319v-201h-184q53 -90 53 -196q0 -15 -2 -35t-4 -35t-2 -16q59 -46 84 -61t51 -15q17 0 30.5 4.5t23.5 15.5t17.5 21t12.5 30t8 33.5t5.5 40t3 41t2.5 45.5l297 -22q-8 -172 -35 -267t-100 -155q-64 -53 -158 -53 q-59 0 -120 22t-101 46.5t-119 78.5q-46 -49 -66 -67q-40 -34 -89.5 -56.5t-96 -30.5t-70 -10t-43.5 -2q-52 0 -105 13t-103 40.5t-81.5 78t-31.5 116.5zM256 227q0 -38 30 -59t66 -21q12 0 29 3.5t46 19t50 41.5q19 26 33 63q-42 19 -55 23q-47 14 -82 14q-54 0 -85.5 -25 t-31.5 -59z" />
<glyph unicode="&#xa4;" horiz-adv-x="1138" d="M41 305l117 119q-99 116 -99 291q0 89 25 167.5t74 127.5l-117 118l117 117l116 -115q51 43 132 69t167 26q81 0 158 -25.5t123 -66.5l119 116l125 -125l-115 -112q43 -49 67.5 -128t24.5 -165q0 -182 -94 -299l113 -115l-113 -112l-117 118q-50 -49 -128.5 -75.5 t-164.5 -26.5q-192 0 -301 100l-114 -119zM313 715q0 -119 69 -203t189 -84q119 0 184.5 86t65.5 205q0 116 -65.5 201.5t-182.5 85.5q-123 0 -191.5 -84.5t-68.5 -206.5z" />
<glyph unicode="&#xa5;" d="M0 1417h414l311 -483l309 483h412l-354 -483h174v-221h-336l-31 -43v-99h367v-221h-367v-350h-356v350h-369v221h369v88l-39 54h-330v221h172z" />
<glyph unicode="&#xa6;" horiz-adv-x="468" d="M129 389h211v-780h-211v780zM129 631v780h211v-780h-211z" />
<glyph unicode="&#xa7;" horiz-adv-x="1236" d="M39 606q0 34 8.5 70t29.5 79.5t64.5 87t104.5 77.5q-27 33 -38 48t-25.5 53t-14.5 81q0 95 61 176q109 135 340 135q143 0 268.5 -42t288.5 -134l-198 -162q-1 1 -17.5 9.5t-23.5 12.5t-26.5 13.5t-32 15t-34 14t-38.5 14t-40 12t-43 10t-43.5 6t-45.5 2.5q-43 0 -77 -14 t-34 -46q0 -17 8 -31t25 -25.5t28 -17.5t33.5 -15.5t24.5 -10.5q52 -24 144 -67t132.5 -62.5t91.5 -47.5t84 -52q82 -62 118 -127t36 -146q0 -50 -14.5 -97t-34.5 -80t-51 -66t-52 -50.5t-49 -38.5q23 -31 32.5 -45t23.5 -52t14 -77q0 -51 -24 -103.5t-69 -99t-122 -76.5 t-172 -30q-79 0 -202.5 26.5t-256.5 94.5q-47 24 -117 68l199 163q33 -22 76.5 -45t124.5 -50t149 -27q43 0 78 16.5t35 50.5q0 20 -26 42t-57 38.5t-78 38.5q-9 4 -13 6q-35 17 -93 43t-97 43.5t-91.5 44.5t-87.5 50.5t-72.5 56.5t-60 67t-37 78.5t-14.5 93.5zM322 659 q0 -60 51 -104q30 -29 235 -121q95 -44 221 -115l9 9l11 11t10.5 11t11.5 13.5t10.5 14t10.5 16t8 16.5t7 18.5t4 19t2 21.5q0 33 -14.5 59t-58.5 55t-68 41.5t-99 47.5q-9 5 -14.5 7t-13 6t-14.5 7q-60 29 -217 109q-15 -10 -45 -35q-47 -43 -47 -107z" />
<glyph unicode="&#xa8;" horiz-adv-x="555" d="M-139 1223v254h321v-254h-321zM375 1223v254h321v-254h-321z" />
<glyph unicode="&#xa9;" horiz-adv-x="1615" d="M41 723q0 208 103 384.5t279 279t384 102.5q209 0 385.5 -102.5t279.5 -279t103 -384.5t-103 -384.5t-279.5 -279t-385.5 -102.5q-208 0 -384 102.5t-279 279t-103 384.5zM203 723q0 -164 80.5 -303.5t220 -221t303.5 -81.5q165 0 304.5 81.5t220.5 221t81 303.5 t-81 303.5t-220.5 221t-304.5 81.5q-164 0 -303.5 -81.5t-220 -221t-80.5 -303.5zM395 723q0 132 54 233q21 41 50.5 78t74.5 74t109 59.5t138 22.5q23 0 48 -3t73.5 -15t100 -44t92.5 -81q39 -49 59 -86l-176 -91q-1 3 -4.5 10.5t-5.5 12.5q-2 3 -19 31q-63 82 -158 82 q-58 0 -102 -27t-67.5 -70t-34.5 -88.5t-11 -91.5q0 -138 62 -210.5t153 -72.5q39 0 71 11.5t55 34t35 39.5t28 44l178 -88q-1 -2 -4 -6t-4 -6q-32 -50 -49 -69q-66 -76 -153 -112t-171 -36q-24 0 -52.5 3t-81 19.5t-97.5 44t-91 83.5t-71 131q-29 88 -29 184z" />
<glyph unicode="&#xaa;" horiz-adv-x="681" d="M76 1047q0 69 49 118q15 15 34.5 27t33 19t40.5 14t35 8.5t39 6.5l31 5q25 5 51.5 11.5t32.5 7.5v14q0 28 -16.5 49t-57.5 21q-66 0 -76 -66h-174q0 43 19 82q51 102 223 102q170 0 227 -90q19 -30 19 -78v-356q0 -20 3 -28t17 -29h-174q-2 14 -2 35v14q-78 -60 -160 -60 q-54 0 -94 17.5t-60.5 45t-30 55t-9.5 55.5zM248 1055q0 -19 13.5 -35t43.5 -16q38 0 63.5 16t35.5 41.5t13 44t3 37.5v8q-18 -5 -52 -15.5t-51 -15.5q-20 -7 -32.5 -12.5t-24.5 -19.5t-12 -33z" />
<glyph unicode="&#xab;" horiz-adv-x="851" d="M66 473v254l327 274v-282l-133 -117l133 -117v-280zM451 471v256l323 274v-282l-139 -117l139 -117v-280z" />
<glyph unicode="&#xac;" horiz-adv-x="1150" d="M12 641v207h1127v-551h-207v344h-920z" />
<glyph unicode="&#xad;" horiz-adv-x="722" d="M109 457v293h505v-293h-505z" />
<glyph unicode="&#xae;" horiz-adv-x="1615" d="M41 723q0 156 61 298.5t163.5 245t244.5 163.5t297 61q209 0 385.5 -103t279.5 -279.5t103 -385.5q0 -208 -103 -384.5t-279.5 -279t-385.5 -102.5q-208 0 -384 102.5t-279 279t-103 384.5zM203 723q0 -164 80.5 -303.5t220 -221t303.5 -81.5q165 0 304.5 81.5t220.5 221 t81 303.5t-81 303.5t-220.5 221t-304.5 81.5q-164 0 -303.5 -81.5t-220 -221t-80.5 -303.5zM459 285v876h372q36 0 55.5 -1t57.5 -4.5t63.5 -13t56 -25t54.5 -42.5t41 -63q29 -59 29 -140q0 -176 -178 -237l200 -350h-239l-176 313h-115v-313h-221zM678 760h160 q133 0 133 121q0 118 -127 118h-166v-239z" />
<glyph unicode="&#xaf;" horiz-adv-x="555" d="M-139 1223v207h835v-207h-835z" />
<glyph unicode="&#xb0;" horiz-adv-x="724" d="M10 1094q0 146 103 249t249 103t249.5 -103t103.5 -249t-103.5 -249.5t-249.5 -103.5t-249 103.5t-103 249.5zM203 1094q0 -66 46.5 -113t112.5 -47t113 47t47 113t-47 112.5t-113 46.5t-112.5 -46.5t-46.5 -112.5z" />
<glyph unicode="&#xb1;" horiz-adv-x="1150" d="M12 0v209h1127v-209h-1127zM12 690v209h463v424h205v-424h459v-209h-459v-426h-205v426h-463z" />
<glyph unicode="&#xb2;" horiz-adv-x="768" d="M39 1047q0 134 39 210q73 150 278 150q77 0 138 -20t98 -51t60.5 -72.5t32.5 -80t9 -77.5q0 -67 -23.5 -127t-71.5 -114t-96 -94.5t-120 -92.5h315v-197h-649v181q141 107 170 131q124 105 160 151q65 85 65 172q0 50 -23 76.5t-56 26.5q-35 0 -62 -29.5t-27 -81.5 q0 -40 17 -74z" />
<glyph unicode="&#xb3;" horiz-adv-x="768" d="M37 768v41l237 16q-6 -35 -6 -49q0 -61 32 -92t71 -31q48 0 78 32.5t30 78.5q0 45 -30 79t-99 34h-37v172h49q13 0 26 3t30 11t28 27t11 47q0 49 -29 69.5t-57 20.5q-80 0 -80 -105v-8l-236 23q5 30 12 55.5t21.5 59t38.5 59.5t58.5 49.5t86.5 36t117 12.5 q149 0 225 -72.5t76 -169.5q0 -58 -27.5 -113t-91.5 -83q73 -23 111.5 -79.5t38.5 -131.5q0 -52 -19 -101t-57.5 -93.5t-108.5 -71.5t-161 -27q-83 0 -145.5 19.5t-98.5 49t-58 71.5t-29 80t-7 81z" />
<glyph unicode="&#xb4;" horiz-adv-x="555" d="M16 1200l150 273h373l-314 -273h-209z" />
<glyph unicode="&#xb5;" horiz-adv-x="1196" d="M117 -434v1503h317v-649q0 -73 17 -110.5t63 -63.5q42 -21 80 -21q46 0 80 16t51 37.5t27 51.5t12 49.5t2 40.5v649h313v-1069h-315v102q-16 -29 -26.5 -44.5t-33.5 -39.5t-55.5 -35.5t-75.5 -11.5q-32 0 -63 11t-40.5 17t-35.5 24v-457h-317z" />
<glyph unicode="&#xb6;" horiz-adv-x="1144" d="M86 1014v4q0 87 25 159.5t67 120t86.5 77.5t93.5 46q76 25 177 25h10h489v-135h-71v-1653h-144v1653h-270v-1653h-143v969q-86 17 -134 45q-51 29 -89 72.5t-55.5 81t-28 82t-12 65.5t-1.5 41z" />
<glyph unicode="&#xb7;" horiz-adv-x="512" d="M94 428v342h324v-342h-324z" />
<glyph unicode="&#xb8;" horiz-adv-x="555" d="M78 -299l57 47q57 -65 111 -65q28 0 49.5 17.5t21.5 47.5q0 35 -30 58.5t-78 23.5q-26 0 -62 -8l-24 37l67 123h95l-43 -93q55 7 82 7q81 0 118 -40.5t37 -93.5q0 -76 -62 -120.5t-136 -44.5q-114 0 -203 104z" />
<glyph unicode="&#xb9;" horiz-adv-x="768" d="M76 1092v165q83 1 134.5 14.5t82 40t57.5 74.5h191v-905h-246v631q-75 -20 -180 -20h-39z" />
<glyph unicode="&#xba;" horiz-adv-x="724" d="M61 1169q0 133 78.5 215t216.5 82q114 0 181 -47q50 -33 85 -98t35 -152q0 -139 -79.5 -221t-219.5 -82q-34 0 -69 6t-77.5 25.5t-74.5 51t-54 88.5t-22 132zM233 1163q0 -64 31.5 -110.5t95.5 -46.5q38 0 64 15t38.5 40.5t17.5 50.5t5 53q0 81 -34.5 121.5t-88.5 40.5 q-43 0 -65 -14q-64 -37 -64 -150z" />
<glyph unicode="&#xbb;" horiz-adv-x="851" d="M78 197v282l139 119l-139 117v278l325 -264v-256zM461 197v282l131 119l-131 117v278l325 -268v-252z" />
<glyph unicode="&#xbc;" horiz-adv-x="1835" d="M57 1092v165q121 1 178.5 29.5t96.5 99.5h190v-905h-246v631q-75 -20 -180 -20h-39zM395 4l762 1477l178 -95l-764 -1476zM1008 197v180l383 526h225v-532h119v-174h-121v-197h-234v197h-372zM1202 371h178v264q-78 -130 -178 -264z" />
<glyph unicode="&#xbd;" horiz-adv-x="1835" d="M57 1092v165q121 1 178.5 29.5t96.5 99.5h190v-905h-246v631q-75 -20 -180 -20h-39zM346 4l762 1477l178 -95l-764 -1476zM1030 565q0 135 39 211q73 150 279 150q77 0 138 -20t98 -51t60.5 -72.5t32.5 -80t9 -77.5q0 -54 -17.5 -105t-44 -91.5t-70 -83.5t-83.5 -75 t-97 -73h316v-197h-650v180q141 107 170 131q122 103 160 152q66 87 66 172q0 50 -23.5 76t-56.5 26q-35 0 -61.5 -29t-26.5 -81q0 -42 16 -74z" />
<glyph unicode="&#xbe;" horiz-adv-x="1835" d="M57 768v41l238 16q-6 -35 -6 -49q0 -61 32 -92t70 -31q48 0 78.5 32.5t30.5 78.5q0 45 -30 79t-99 34h-37v172h49q13 0 26 3t30 11t27.5 27t10.5 47q0 49 -29 69.5t-57 20.5q-80 0 -80 -105v-8l-235 23q5 30 12 55.5t21.5 59t38.5 59.5t58.5 49.5t86.5 36t117 12.5 q149 0 225 -72.5t76 -169.5q0 -58 -27.5 -113t-91.5 -83q73 -23 111 -79.5t38 -131.5q0 -52 -19 -101t-57.5 -93.5t-108.5 -71.5t-161 -27q-83 0 -145.5 19.5t-98.5 49t-58 71.5t-29 80t-7 81zM506 4l762 1477l178 -95l-764 -1476zM1059 197v180l383 526h225v-532h119v-174 h-121v-197h-233v197h-373zM1253 371h179v264q-74 -123 -179 -264z" />
<glyph unicode="&#xbf;" horiz-adv-x="1175" d="M59 358q0 59 25 134q14 37 30.5 64t48.5 56.5t52 45t81.5 58.5t96.5 68q7 5 22 16.5t21.5 16t18 13.5t17 13.5t14 12t13.5 12.5t10 11t9 12q15 27 21 61h260q-1 -55 -4 -81.5t-22 -67.5t-58 -80q-30 -30 -90.5 -72.5t-104.5 -73.5t-79 -80.5t-35 -105.5q0 -21 4 -42 t16 -48t32 -46.5t55.5 -33.5t82.5 -14q107 0 174 68t70 176l293 -97q-40 -113 -76 -164q-148 -215 -488 -215q-251 0 -380.5 108t-129.5 275zM504 1102v344h323v-344h-323z" />
<glyph unicode="&#xc0;" d="M0 0l537 1446h376l533 -1446h-385l-72 231h-532l-72 -231h-385zM352 1839h377l129 -237h-207zM541 492h366l-188 610q-60 -230 -178 -610z" />
<glyph unicode="&#xc1;" d="M0 0l537 1446h376l533 -1446h-385l-72 231h-532l-72 -231h-385zM541 492h366l-188 610q-60 -230 -178 -610zM580 1602l125 235h368l-297 -235h-196z" />
<glyph unicode="&#xc2;" d="M0 0l537 1446h376l533 -1446h-385l-72 231h-532l-72 -231h-385zM418 1595l182 236h272l183 -236h-240l-82 105l-78 -105h-237zM541 492h366l-188 610q-60 -230 -178 -610z" />
<glyph unicode="&#xc3;" d="M0 0l537 1446h376l533 -1446h-385l-72 231h-532l-72 -231h-385zM354 1585q4 33 6.5 48t11 47t19 51.5t30.5 43t46 40.5q44 30 100 30q77 0 183 -53q8 -3 25.5 -10t29 -11.5t26 -8t25.5 -3.5q14 0 27 5.5t21 13.5t15.5 18.5t10.5 18t6 15.5l4 9h139q0 -4 -1 -12 q-4 -35 -7.5 -55t-12.5 -51.5t-25.5 -57t-41.5 -45.5q-49 -43 -108 -43q-26 0 -61 8.5t-60 18t-49 20t-25 10.5q-3 3 -22 12t-48 18t-49 9q-13 0 -24.5 -4.5t-19 -11.5t-13.5 -15.5t-9.5 -18t-5.5 -16.5t-3 -13l-2 -7h-138zM541 492h366l-188 610q-60 -230 -178 -610z" />
<glyph unicode="&#xc4;" d="M0 0l537 1446h376l533 -1446h-385l-72 231h-532l-72 -231h-385zM340 1599v240h330v-240h-330zM541 492h366l-188 610q-60 -230 -178 -610zM795 1602v237h329v-237h-329z" />
<glyph unicode="&#xc5;" d="M0 0l537 1446h376l533 -1446h-385l-72 231h-532l-72 -231h-385zM528 1735q0 83 59 141.5t142 58.5t142 -58.5t59 -141.5t-59 -142t-142 -59t-142 59t-59 142zM541 492h366l-188 610q-60 -230 -178 -610zM649 1735q0 -34 23 -57t57 -23t57 23t23 57t-23 57t-57 23t-57 -23 t-23 -57z" />
<glyph unicode="&#xc6;" horiz-adv-x="2283" d="M-31 0l854 1446h1352v-275h-739v-268h690v-276h-688v-344h807v-283h-1170v350h-506l-194 -350h-406zM715 616h360v648z" />
<glyph unicode="&#xc7;" horiz-adv-x="1421" d="M86 723q0 219 88 385q26 52 61 101t90 102t119.5 91.5t153.5 63.5t188 25q29 0 55.5 -1.5t90.5 -14t119.5 -35t125.5 -70.5t126 -115q48 -54 94 -139l-285 -143q-30 61 -47 84q-41 55 -107.5 96t-154.5 41q-78 0 -141 -30.5t-102.5 -78.5t-66 -110.5t-37 -122.5 t-10.5 -119q0 -118 29.5 -210.5t79.5 -149t113 -85t135 -28.5q53 0 99 15t75.5 34t59.5 52.5t44 55t35 56.5l287 -143q-2 -2 -16.5 -25.5t-35.5 -53.5t-40 -52q-108 -124 -251 -183t-280 -59q-21 0 -35 2l-32 -70q55 7 82 7q81 0 118 -40.5t37 -93.5q0 -76 -62 -120.5 t-136 -44.5q-114 0 -203 104l57 47q57 -65 111 -65q28 0 49.5 17.5t21.5 47.5q0 35 -30 58.5t-78 23.5q-26 0 -62 -8l-24 37l61 110q-54 10 -105.5 26.5t-115 51t-116 81.5t-102.5 122t-81 168q-49 147 -49 305z" />
<glyph unicode="&#xc8;" horiz-adv-x="1312" d="M139 0v1446h1069v-279h-708v-264h661v-274h-661v-344h774v-285h-1135zM385 1839h377l129 -237h-207z" />
<glyph unicode="&#xc9;" horiz-adv-x="1312" d="M139 0v1446h1069v-279h-708v-264h661v-274h-661v-344h774v-285h-1135zM588 1602l125 235h368l-297 -235h-196z" />
<glyph unicode="&#xca;" horiz-adv-x="1312" d="M139 0v1446h1069v-279h-708v-264h661v-274h-661v-344h774v-285h-1135zM373 1595l182 236h272l183 -236h-240l-82 105l-78 -105h-237z" />
<glyph unicode="&#xcb;" horiz-adv-x="1312" d="M139 0v1446h1069v-279h-708v-264h661v-274h-661v-344h774v-285h-1135zM281 1599v240h329v-240h-329zM735 1602v237h330v-237h-330z" />
<glyph unicode="&#xcc;" horiz-adv-x="638" d="M-37 1839h377l129 -237h-207zM139 0v1446h361v-1446h-361z" />
<glyph unicode="&#xcd;" horiz-adv-x="638" d="M133 1602l125 235h369l-297 -235h-197zM139 0v1446h361v-1446h-361z" />
<glyph unicode="&#xce;" horiz-adv-x="638" d="M-10 1595l182 236h272l183 -236h-240l-82 105l-78 -105h-237zM139 0v1446h361v-1446h-361z" />
<glyph unicode="&#xcf;" horiz-adv-x="638" d="M-78 1599v240h330v-240h-330zM139 0v1446h361v-1446h-361zM377 1602v237h330v-237h-330z" />
<glyph unicode="&#xd0;" horiz-adv-x="1492" d="M0 698v162h137v586h461q61 0 105 -1.5t112 -8t119 -18.5t114 -36t112 -56.5t97.5 -83t83.5 -114.5q91 -163 91 -405q0 -92 -14 -176t-49.5 -168.5t-90 -152t-140.5 -121t-196 -80.5q-105 -25 -237 -25h-568v698h-137zM502 291h108q65 0 112 3.5t114.5 24t111.5 58.5 q121 102 121 350v25q0 37 -6 76.5t-23.5 96t-60 106.5t-105.5 79q-65 31 -194 31h-178v-281h356v-162h-356v-407z" />
<glyph unicode="&#xd1;" horiz-adv-x="1492" d="M139 0v1446h355l313 -531q38 -65 72 -127t76.5 -142t68.5 -128l-16 928h346v-1446h-355l-270 457q-20 34 -66 110t-73 125q-49 84 -115 217l12 -909h-348zM391 1585q4 33 6.5 48t11 47t19 51.5t30.5 43t46 40.5q44 30 100 30q76 0 182 -53q8 -3 26 -10t29 -11t26 -8 t26 -4q14 0 27 5.5t21 13.5t15.5 18.5t10.5 18t7 15.5l3 9h139q0 -4 -1 -12q-4 -35 -7.5 -55t-12.5 -51.5t-25.5 -57t-41.5 -45.5q-49 -43 -108 -43q-26 0 -61 8.5t-60 18t-49 20t-25 10.5q-3 3 -22 12t-48 18t-49 9q-13 0 -24.5 -4.5t-19.5 -12t-14 -15.5t-9.5 -17.5 t-5.5 -16.5t-3 -13l-2 -7h-137z" />
<glyph unicode="&#xd2;" horiz-adv-x="1619" d="M86 729q0 83 16.5 167.5t52 174t102.5 172t159 141.5q165 107 395 107h10q178 0 340 -86q75 -40 136.5 -99t99 -117.5t66 -128t41.5 -121.5t20.5 -107.5t8.5 -77.5t1 -39q0 -73 -15 -151t-46 -159.5t-86 -159t-127 -136.5q-76 -64 -183 -105q-126 -47 -272 -47 q-168 0 -305.5 61.5t-227 167t-138 245.5t-48.5 298zM442 733q0 -117 30 -209.5t81.5 -148.5t115 -84.5t134.5 -28.5q51 0 100.5 13.5t98.5 46t86 80.5t60 123.5t23 168.5q0 136 -30 228q-22 69 -58 121t-72 78.5t-79.5 42.5t-72.5 20t-58 4q-117 0 -199 -64 q-71 -55 -115.5 -156t-44.5 -235zM492 1839h376l129 -237h-206z" />
<glyph unicode="&#xd3;" horiz-adv-x="1619" d="M86 729q0 83 16.5 167.5t52 174t102.5 172t159 141.5q165 107 395 107h10q178 0 340 -86q75 -40 136.5 -99t99 -117.5t66 -128t41.5 -121.5t20.5 -107.5t8.5 -77.5t1 -39q0 -73 -15 -151t-46 -159.5t-86 -159t-127 -136.5q-76 -64 -183 -105q-126 -47 -272 -47 q-168 0 -305.5 61.5t-227 167t-138 245.5t-48.5 298zM442 733q0 -117 30 -209.5t81.5 -148.5t115 -84.5t134.5 -28.5q51 0 100.5 13.5t98.5 46t86 80.5t60 123.5t23 168.5q0 136 -30 228q-22 69 -58 121t-72 78.5t-79.5 42.5t-72.5 20t-58 4q-117 0 -199 -64 q-71 -55 -115.5 -156t-44.5 -235zM645 1602l125 235h369l-297 -235h-197z" />
<glyph unicode="&#xd4;" horiz-adv-x="1619" d="M86 729q0 83 16.5 167.5t52 174t102.5 172t159 141.5q165 107 395 107h10q178 0 340 -86q75 -40 136.5 -99t99 -117.5t66 -128t41.5 -121.5t20.5 -107.5t8.5 -77.5t1 -39q0 -73 -15 -151t-46 -159.5t-86 -159t-127 -136.5q-76 -64 -183 -105q-126 -47 -272 -47 q-168 0 -305.5 61.5t-227 167t-138 245.5t-48.5 298zM442 733q0 -117 30 -209.5t81.5 -148.5t115 -84.5t134.5 -28.5q51 0 100.5 13.5t98.5 46t86 80.5t60 123.5t23 168.5q0 136 -30 228q-22 69 -58 121t-72 78.5t-79.5 42.5t-72.5 20t-58 4q-117 0 -199 -64 q-71 -55 -115.5 -156t-44.5 -235zM471 1595l182 236h273l182 -236h-240l-82 105l-77 -105h-238z" />
<glyph unicode="&#xd5;" horiz-adv-x="1619" d="M86 729q0 83 16.5 167.5t52 174t102.5 172t159 141.5q165 107 395 107h10q178 0 340 -86q75 -40 136.5 -99t99 -117.5t66 -128t41.5 -121.5t20.5 -107.5t8.5 -77.5t1 -39q0 -73 -15 -151t-46 -159.5t-86 -159t-127 -136.5q-76 -64 -183 -105q-126 -47 -272 -47 q-168 0 -305.5 61.5t-227 167t-138 245.5t-48.5 298zM442 733q0 -117 30 -209.5t81.5 -148.5t115 -84.5t134.5 -28.5q51 0 100.5 13.5t98.5 46t86 80.5t60 123.5t23 168.5q0 136 -30 228q-22 69 -58 121t-72 78.5t-79.5 42.5t-72.5 20t-58 4q-117 0 -199 -64 q-71 -55 -115.5 -156t-44.5 -235zM461 1585q4 30 5.5 40t7 38.5t13 43.5t19 37.5t28.5 39.5t39 31q44 30 101 30q76 0 182 -53q8 -3 26 -10t29 -11t26 -8t26 -4q14 0 27 5.5t21 13.5t15.5 18.5t10.5 18t7 15.5l3 9h139q0 -4 -1 -12q-4 -35 -7.5 -55t-12.5 -51.5t-25.5 -57 t-41.5 -45.5q-49 -43 -109 -43q-26 0 -61 8.5t-60 18t-48.5 20t-24.5 10.5q-3 3 -22 12t-48 18t-49 9q-13 0 -24.5 -4.5t-19.5 -12t-14 -15.5t-9.5 -17.5t-5.5 -16.5t-3 -13l-2 -7h-137z" />
<glyph unicode="&#xd6;" horiz-adv-x="1619" d="M86 729q0 83 16.5 167.5t52 174t102.5 172t159 141.5q165 107 395 107h10q178 0 340 -86q75 -40 136.5 -99t99 -117.5t66 -128t41.5 -121.5t20.5 -107.5t8.5 -77.5t1 -39q0 -73 -15 -151t-46 -159.5t-86 -159t-127 -136.5q-76 -64 -183 -105q-126 -47 -272 -47 q-168 0 -305.5 61.5t-227 167t-138 245.5t-48.5 298zM391 1599v240h330v-240h-330zM442 733q0 -117 30 -209.5t81.5 -148.5t115 -84.5t134.5 -28.5q51 0 100.5 13.5t98.5 46t86 80.5t60 123.5t23 168.5q0 136 -30 228q-22 69 -58 121t-72 78.5t-79.5 42.5t-72.5 20t-58 4 q-117 0 -199 -64q-71 -55 -115.5 -156t-44.5 -235zM846 1602v237h330v-237h-330z" />
<glyph unicode="&#xd7;" horiz-adv-x="1150" d="M63 205l367 368l-367 365l146 145l366 -366l369 366l141 -145l-366 -365l366 -368l-141 -144l-369 367l-366 -365z" />
<glyph unicode="&#xd8;" horiz-adv-x="1591" d="M2 111l199 180q-3 6 -20 36.5t-25 49.5q-70 151 -70 350q0 122 29.5 230t76.5 186.5t110 142t126.5 102.5t128.5 62q119 39 256 39q86 0 160.5 -17t134.5 -49.5t101.5 -64t86.5 -74.5l183 166l110 -121l-192 -176q51 -91 79.5 -186t28.5 -238q0 -380 -248 -602 q-91 -80 -198 -124t-264 -44q-88 0 -163 16.5t-137 50.5t-100.5 62t-91.5 74l-190 -174zM436 731q0 -74 23 -205l600 545q-115 129 -254 129q-159 0 -260 -121q-109 -129 -109 -348zM541 375q106 -119 274 -119q154 0 264 147q86 119 86 306q0 40 -4 75t-8.5 55.5 t-17.5 75.5z" />
<glyph unicode="&#xd9;" horiz-adv-x="1480" d="M123 594v852h364v-901q0 -131 27 -176q59 -103 236 -103q76 0 126.5 20.5t75.5 61.5t34 87t9 112v899h363v-807q0 -212 -43 -324q-27 -70 -71.5 -126.5t-92 -91.5t-105 -61.5t-103 -39t-94.5 -20t-71 -8.5t-41 -1h-4h-2q-15 0 -35 1t-66.5 7.5t-90 17.5t-99.5 34.5 t-102.5 54.5t-91 81.5t-72.5 112.5q-51 111 -51 318zM377 1839h377l129 -237h-207z" />
<glyph unicode="&#xda;" horiz-adv-x="1480" d="M123 594v852h364v-901q0 -131 27 -176q59 -103 236 -103q76 0 126.5 20.5t75.5 61.5t34 87t9 112v899h363v-807q0 -212 -43 -324q-27 -70 -71.5 -126.5t-92 -91.5t-105 -61.5t-103 -39t-94.5 -20t-71 -8.5t-41 -1h-4h-2q-15 0 -35 1t-66.5 7.5t-90 17.5t-99.5 34.5 t-102.5 54.5t-91 81.5t-72.5 112.5q-51 111 -51 318zM604 1602l125 235h369l-297 -235h-197z" />
<glyph unicode="&#xdb;" horiz-adv-x="1480" d="M123 594v852h364v-901q0 -131 27 -176q59 -103 236 -103q76 0 126.5 20.5t75.5 61.5t34 87t9 112v899h363v-807q0 -212 -43 -324q-27 -70 -71.5 -126.5t-92 -91.5t-105 -61.5t-103 -39t-94.5 -20t-71 -8.5t-41 -1h-4h-2q-15 0 -35 1t-66.5 7.5t-90 17.5t-99.5 34.5 t-102.5 54.5t-91 81.5t-72.5 112.5q-51 111 -51 318zM418 1595l182 236h272l183 -236h-240l-82 105l-78 -105h-237z" />
<glyph unicode="&#xdc;" horiz-adv-x="1480" d="M123 594v852h364v-901q0 -131 27 -176q59 -103 236 -103q76 0 126.5 20.5t75.5 61.5t34 87t9 112v899h363v-807q0 -212 -43 -324q-27 -70 -71.5 -126.5t-92 -91.5t-105 -61.5t-103 -39t-94.5 -20t-71 -8.5t-41 -1h-4h-2q-15 0 -35 1t-66.5 7.5t-90 17.5t-99.5 34.5 t-102.5 54.5t-91 81.5t-72.5 112.5q-51 111 -51 318zM350 1599v240h330v-240h-330zM805 1602v237h330v-237h-330z" />
<glyph unicode="&#xdd;" d="M0 1446h414l311 -496q37 72 61 109l248 387h412l-547 -762v-684h-356v674zM600 1602l125 235h369l-297 -235h-197z" />
<glyph unicode="&#xde;" horiz-adv-x="1409" d="M137 0v1446h363v-211h256q134 0 210.5 -8t135.5 -29q79 -29 135.5 -79.5t85 -113t41 -123t12.5 -124.5v-8q-3 -187 -100 -304q-35 -44 -78 -77t-93 -52.5t-91.5 -31.5t-99 -16.5t-88.5 -5.5t-85 -1h-241v-262h-363zM500 530h219q38 0 64.5 1.5t60 6.5t56.5 14t47 26 t38.5 40.5t23.5 59t9 80.5v2q0 77 -39 129q-37 49 -92 64.5t-156 15.5h-231v-439z" />
<glyph unicode="&#xdf;" horiz-adv-x="1216" d="M117 0v961q0 137 30 231q23 70 63.5 123t85 83t100 48.5t101.5 24.5t97 6q290 0 407 -177q56 -85 58 -190v-10q0 -150 -105 -219q-28 -17 -82 -31q279 -20 279 -383v-4q0 -21 -1.5 -45t-9.5 -75t-22 -95t-43 -96t-68.5 -89t-102 -61.5t-140.5 -24.5q-114 0 -201 35v234 q3 -1 15 -7.5t18.5 -9t18.5 -6.5t25 -6t28 -2q53 0 90 23.5t54.5 62.5t24.5 76.5t7 79.5q0 219 -135 276q-27 12 -99 12h-16h-55v189h51q92 0 135 33.5t43 128.5q0 19 -2.5 37.5t-12.5 44t-26.5 44t-48 31.5t-74.5 13q-75 0 -123 -52q-34 -35 -42.5 -83.5t-8.5 -145.5v-18 v-967h-313z" />
<glyph unicode="&#xe0;" horiz-adv-x="1130" d="M61 297q0 63 23 117t60 91t70 59.5t67 37.5q79 34 211 60q81 16 217 40v58q0 131 -121 131q-102 0 -148 -70q-7 -10 -18 -55h-316q0 76 27 131q93 201 436 201q52 0 102 -6t114 -22t118 -53.5t84 -92.5q31 -57 31 -129v-4v-650q0 -59 5.5 -86t25.5 -55h-310v96 q-40 -30 -61.5 -43.5t-65.5 -37t-93.5 -34t-106.5 -10.5q-81 0 -145 24t-101.5 60t-62 82t-33.5 85t-9 75zM242 1475h379l151 -273h-207zM371 311q0 -36 29.5 -72t88.5 -36q62 0 123 45q57 41 76 97.5t21 166.5l-203 -68l-12 -4q-13 -5 -26.5 -11t-31.5 -17t-32 -24.5 t-23.5 -33.5t-9.5 -43z" />
<glyph unicode="&#xe1;" horiz-adv-x="1130" d="M61 297q0 63 23 117t60 91t70 59.5t67 37.5q79 34 211 60q81 16 217 40v58q0 131 -121 131q-102 0 -148 -70q-7 -10 -18 -55h-316q0 76 27 131q93 201 436 201q52 0 102 -6t114 -22t118 -53.5t84 -92.5q31 -57 31 -129v-4v-650q0 -59 5.5 -86t25.5 -55h-310v96 q-40 -30 -61.5 -43.5t-65.5 -37t-93.5 -34t-106.5 -10.5q-81 0 -145 24t-101.5 60t-62 82t-33.5 85t-9 75zM371 311q0 -36 29.5 -72t88.5 -36q62 0 123 45q57 41 76 97.5t21 166.5l-203 -68l-12 -4q-13 -5 -26.5 -11t-31.5 -17t-32 -24.5t-23.5 -33.5t-9.5 -43zM410 1200 l149 273h373l-314 -273h-208z" />
<glyph unicode="&#xe2;" horiz-adv-x="1130" d="M61 297q0 63 23 117t60 91t70 59.5t67 37.5q79 34 211 60q81 16 217 40v58q0 131 -121 131q-102 0 -148 -70q-7 -10 -18 -55h-316q0 76 27 131q93 201 436 201q52 0 102 -6t114 -22t118 -53.5t84 -92.5q31 -57 31 -129v-4v-650q0 -59 5.5 -86t25.5 -55h-310v96 q-40 -30 -61.5 -43.5t-65.5 -37t-93.5 -34t-106.5 -10.5q-81 0 -145 24t-101.5 60t-62 82t-33.5 85t-9 75zM236 1204l206 271h260l211 -269h-241l-101 127l-94 -129h-241zM371 311q0 -36 29.5 -72t88.5 -36q62 0 123 45q57 41 76 97.5t21 166.5l-203 -68l-12 -4 q-13 -5 -26.5 -11t-31.5 -17t-32 -24.5t-23.5 -33.5t-9.5 -43z" />
<glyph unicode="&#xe3;" horiz-adv-x="1130" d="M61 297q0 63 23 117t60 91t70 59.5t67 37.5q79 34 211 60q81 16 217 40v58q0 131 -121 131q-102 0 -148 -70q-7 -10 -18 -55h-316q0 76 27 131q93 201 436 201q52 0 102 -6t114 -22t118 -53.5t84 -92.5q31 -57 31 -129v-4v-650q0 -59 5.5 -86t25.5 -55h-310v96 q-40 -30 -61.5 -43.5t-65.5 -37t-93.5 -34t-106.5 -10.5q-81 0 -145 24t-101.5 60t-62 82t-33.5 85t-9 75zM221 1192q5 44 10 73.5t19.5 74.5t35 73t58 49t86.5 21q22 0 43.5 -3.5t42.5 -11.5t33 -13t31 -14.5t20 -10.5l13 -6.5t22 -10t26 -10t31.5 -9t30.5 -3.5q70 0 82 84 h141q-1 -5 -2 -14q-2 -23 -4 -36t-6.5 -38t-9 -41t-12.5 -38.5t-17 -37t-23 -31t-30.5 -25.5t-38.5 -15.5t-47 -6.5q-28 0 -62 8.5t-57.5 18t-47.5 20.5t-28 12q-70 35 -115 35q-21 0 -37 -9t-23.5 -23t-11.5 -27t-6 -24l-1 -11h-146zM371 311q0 -36 29.5 -72t88.5 -36 q62 0 123 45q57 41 76 97.5t21 166.5l-203 -68l-12 -4q-13 -5 -26.5 -11t-31.5 -17t-32 -24.5t-23.5 -33.5t-9.5 -43z" />
<glyph unicode="&#xe4;" horiz-adv-x="1130" d="M61 297q0 63 23 117t60 91t70 59.5t67 37.5q79 34 211 60q81 16 217 40v58q0 131 -121 131q-102 0 -148 -70q-7 -10 -18 -55h-316q0 76 27 131q93 201 436 201q52 0 102 -6t114 -22t118 -53.5t84 -92.5q31 -57 31 -129v-4v-650q0 -59 5.5 -86t25.5 -55h-310v96 q-40 -30 -61.5 -43.5t-65.5 -37t-93.5 -34t-106.5 -10.5q-81 0 -145 24t-101.5 60t-62 82t-33.5 85t-9 75zM156 1223v254h321v-254h-321zM371 311q0 -36 29.5 -72t88.5 -36q62 0 123 45q57 41 76 97.5t21 166.5l-203 -68l-12 -4q-13 -5 -26.5 -11t-31.5 -17t-32 -24.5 t-23.5 -33.5t-9.5 -43zM670 1223v254h321v-254h-321z" />
<glyph unicode="&#xe5;" horiz-adv-x="1130" d="M61 297q0 63 23 117t60 91t70 59.5t67 37.5q79 34 211 60q81 16 217 40v58q0 131 -121 131q-102 0 -148 -70q-7 -10 -18 -55h-316q0 76 27 131q93 201 436 201q52 0 102 -6t114 -22t118 -53.5t84 -92.5q31 -57 31 -129v-4v-650q0 -59 5.5 -86t25.5 -55h-310v96 q-40 -30 -61.5 -43.5t-65.5 -37t-93.5 -34t-106.5 -10.5q-81 0 -145 24t-101.5 60t-62 82t-33.5 85t-9 75zM371 311q0 -36 29.5 -72t88.5 -36q62 0 123 45q57 41 76 97.5t21 166.5l-203 -68l-12 -4q-13 -5 -26.5 -11t-31.5 -17t-32 -24.5t-23.5 -33.5t-9.5 -43zM371 1343 q0 83 58.5 142t141.5 59t142 -59t59 -142t-59 -141.5t-142 -58.5t-141.5 58.5t-58.5 141.5zM492 1343q0 -34 22.5 -56.5t56.5 -22.5t57 22.5t23 56.5t-23 57t-57 23t-56.5 -23t-22.5 -57z" />
<glyph unicode="&#xe6;" horiz-adv-x="1810" d="M61 324q0 22 5.5 50.5t20.5 72.5t54 88t95 75q41 22 109 40t115.5 26t131.5 19.5t100 13.5l37 10v10q0 25 -2 42.5t-10.5 41t-24.5 37.5t-47 24.5t-74 10.5q-79 0 -110.5 -31t-34.5 -86h-322q0 6 3 29t12.5 63t23.5 64q44 84 139 131t236 47q72 0 128 -8t104.5 -27 t75.5 -33.5t77 -44.5q36 26 62 42t67.5 35t91 28.5t107.5 9.5q97 0 178 -27.5t133 -68.5t92.5 -98t61.5 -106t35 -102q19 -77 26 -217h-715q9 -72 17 -96q27 -74 90.5 -120t132.5 -46q38 0 73 13t57.5 30t44.5 43.5t32 42.5t22 38q3 6 5 9l243 -123q-48 -82 -84 -120 q-65 -72 -171.5 -126.5t-239.5 -54.5q-125 0 -226.5 49t-158.5 113q-53 -45 -99 -76q-69 -42 -157.5 -65t-163.5 -23q-93 0 -176 33q-61 23 -105.5 61t-66 73.5t-34 77.5t-14.5 63.5t-2 42.5zM373 330q0 -32 12.5 -56t28.5 -35t38.5 -17.5t34 -7.5t23.5 -1q69 0 119 39 q98 76 98 246q0 5 -1 16t-1 16q-26 -11 -43 -16q-32 -10 -82 -20q-2 -1 -23 -5.5l-28 -6t-28.5 -7.5t-31.5 -10.5t-28.5 -12.5t-28 -16t-23 -19.5t-20 -24t-11.5 -28.5t-5 -34zM1042 680h388q-32 199 -191 199q-20 0 -42 -5t-48 -19t-47.5 -35.5t-38 -57.5t-21.5 -82z" />
<glyph unicode="&#xe7;" horiz-adv-x="1093" d="M66 526q0 164 60 292t183 205t293 77q20 0 35 -0.5t52 -5.5t68 -14t74.5 -28.5t80 -45.5t76 -68.5t71.5 -95.5l-234 -133q-22 43 -37 63q-69 86 -170 86q-50 0 -91 -21.5t-66 -55t-42 -76.5t-23.5 -82t-6.5 -76q0 -38 6.5 -79t23.5 -87.5t42.5 -82t68 -59.5t95.5 -24 q21 0 44.5 5.5t56 20.5t61.5 49.5t47 84.5l237 -123q-180 -287 -475 -287q-21 0 -31 2l-37 -78q55 7 82 7q81 0 118.5 -40.5t37.5 -93.5q0 -76 -62.5 -120.5t-136.5 -44.5q-113 0 -202 104l57 47q57 -65 110 -65q29 0 50.5 17.5t21.5 47.5q0 35 -30 58.5t-78 23.5 q-26 0 -62 -8l-24 37l65 121q-59 13 -112.5 36t-109 66.5t-96 102t-66 146.5t-25.5 195z" />
<glyph unicode="&#xe8;" horiz-adv-x="1202" d="M66 510q0 126 34.5 232.5t101.5 187.5t173.5 126.5t242.5 45.5q168 0 289 -76q63 -40 109 -97t70 -110.5t39 -123.5t19.5 -116t6.5 -108h-764v-14q0 -21 4.5 -48t20.5 -65t41 -68t71.5 -51.5t106.5 -21.5q49 0 89.5 13t66 29t50 46.5t35.5 49t29 52.5l238 -123 q-1 -1 -9 -13t-19 -27t-25 -34t-31.5 -39t-34.5 -36q-70 -68 -175 -114t-239 -46q-253 0 -396.5 152.5t-143.5 396.5zM246 1475h379l151 -273h-207zM389 666h436q-12 84 -39 125.5t-84 66.5q-38 19 -90 19q-126 0 -192 -115q-20 -34 -31 -96z" />
<glyph unicode="&#xe9;" horiz-adv-x="1202" d="M66 510q0 126 34.5 232.5t101.5 187.5t173.5 126.5t242.5 45.5q168 0 289 -76q63 -40 109 -97t70 -110.5t39 -123.5t19.5 -116t6.5 -108h-764v-14q0 -21 4.5 -48t20.5 -65t41 -68t71.5 -51.5t106.5 -21.5q49 0 89.5 13t66 29t50 46.5t35.5 49t29 52.5l238 -123 q-1 -1 -9 -13t-19 -27t-25 -34t-31.5 -39t-34.5 -36q-70 -68 -175 -114t-239 -46q-253 0 -396.5 152.5t-143.5 396.5zM389 666h436q-12 84 -39 125.5t-84 66.5q-38 19 -90 19q-126 0 -192 -115q-20 -34 -31 -96zM442 1200l150 273h373l-314 -273h-209z" />
<glyph unicode="&#xea;" horiz-adv-x="1202" d="M66 510q0 126 34.5 232.5t101.5 187.5t173.5 126.5t242.5 45.5q168 0 289 -76q63 -40 109 -97t70 -110.5t39 -123.5t19.5 -116t6.5 -108h-764v-14q0 -21 4.5 -48t20.5 -65t41 -68t71.5 -51.5t106.5 -21.5q49 0 89.5 13t66 29t50 46.5t35.5 49t29 52.5l238 -123 q-1 -1 -9 -13t-19 -27t-25 -34t-31.5 -39t-34.5 -36q-70 -68 -175 -114t-239 -46q-253 0 -396.5 152.5t-143.5 396.5zM291 1204l207 271h260l211 -269h-242l-100 127l-95 -129h-241zM389 666h436q-12 84 -39 125.5t-84 66.5q-38 19 -90 19q-126 0 -192 -115q-20 -34 -31 -96 z" />
<glyph unicode="&#xeb;" horiz-adv-x="1202" d="M66 510q0 126 34.5 232.5t101.5 187.5t173.5 126.5t242.5 45.5q168 0 289 -76q63 -40 109 -97t70 -110.5t39 -123.5t19.5 -116t6.5 -108h-764v-14q0 -21 4.5 -48t20.5 -65t41 -68t71.5 -51.5t106.5 -21.5q49 0 89.5 13t66 29t50 46.5t35.5 49t29 52.5l238 -123 q-1 -1 -9 -13t-19 -27t-25 -34t-31.5 -39t-34.5 -36q-70 -68 -175 -114t-239 -46q-253 0 -396.5 152.5t-143.5 396.5zM184 1223v254h322v-254h-322zM389 666h436q-12 84 -39 125.5t-84 66.5q-38 19 -90 19q-126 0 -192 -115q-20 -34 -31 -96zM698 1223v254h322v-254h-322z " />
<glyph unicode="&#xec;" horiz-adv-x="546" d="M-111 1475h379l152 -273h-207zM117 0v1069h313v-1069h-313z" />
<glyph unicode="&#xed;" horiz-adv-x="546" d="M117 0v1069h313v-1069h-313zM119 1200l149 273h373l-313 -273h-209z" />
<glyph unicode="&#xee;" horiz-adv-x="546" d="M-61 1204l206 271h261l210 -269h-241l-101 127l-94 -129h-241zM117 0v1069h313v-1069h-313z" />
<glyph unicode="&#xef;" horiz-adv-x="546" d="M-139 1223v254h321v-254h-321zM117 0v1069h313v-1069h-313zM375 1223v254h321v-254h-321z" />
<glyph unicode="&#xf0;" horiz-adv-x="1282" d="M66 532q0 201 89 333.5t224 193.5q97 43 203 43q140 0 233 -101q-61 130 -135 218l-320 -89l-36 105l276 76q-51 51 -84 82l246 96q11 -11 31 -30t34.5 -34t28.5 -32l8 -11l189 52l45 -101l-156 -43q275 -346 275 -743q0 -188 -76.5 -318.5t-198.5 -195.5 q-123 -66 -297 -66h-4q-70 0 -135.5 12.5t-134.5 41.5t-130 84.5t-104 134.5q-71 126 -71 292zM385 539q0 -81 22 -144.5t58.5 -101.5t81 -57t92.5 -19q68 0 120 27t81 73t43 98.5t14 110.5q0 164 -69.5 245t-186.5 81q-82 0 -135 -35q-56 -35 -88.5 -107t-32.5 -171z" />
<glyph unicode="&#xf1;" horiz-adv-x="1181" d="M117 0v1067h319v-92q31 36 53 51q35 28 102 49t146 21q122 0 205 -52q77 -49 102 -115.5t25 -197.5v-731h-315v604v27q0 75 -8 112.5t-39 65.5q-40 35 -107 35q-45 0 -78 -15t-50 -36t-26.5 -54.5t-11.5 -59.5t-2 -63v-38v-578h-315zM231 1192q5 44 10 73.5t19.5 74.5 t35 73t58 49t86.5 21q22 0 43.5 -3.5t42.5 -11.5t33 -13t31 -14.5t20 -10.5l13 -6.5t22 -10t26 -10t31.5 -9t30.5 -3.5q70 0 82 84h141q-1 -5 -2 -14q-2 -23 -4 -36t-6.5 -38t-9 -41t-12.5 -38.5t-17 -37t-23 -31t-30.5 -25.5t-38.5 -15.5t-47 -6.5q-28 0 -62 8.5t-57.5 18 t-47.5 20.5t-28 12q-70 35 -114 35q-21 0 -37 -9t-23.5 -23t-12 -27t-6.5 -24l-1 -11h-146z" />
<glyph unicode="&#xf2;" horiz-adv-x="1280" d="M66 530q0 181 73 311.5t199.5 195.5t292.5 65q167 0 278 -51q84 -37 146.5 -99t95.5 -134.5t48 -142t15 -138.5q0 -41 -5.5 -85.5t-22 -101.5t-42 -109t-70.5 -103t-103 -88t-143 -60t-187 -23q-73 0 -144 14.5t-143.5 47t-134.5 94t-100 145.5q-53 117 -53 262z M279 1475h378l152 -273h-207zM383 539q0 -83 22 -147t59.5 -100.5t82 -54.5t94.5 -18q67 0 118.5 27.5t79.5 73t42 97t14 107.5q0 165 -68 246.5t-184 81.5q-86 0 -139 -35q-54 -33 -87.5 -106.5t-33.5 -171.5z" />
<glyph unicode="&#xf3;" horiz-adv-x="1280" d="M66 530q0 181 73 311.5t199.5 195.5t292.5 65q167 0 278 -51q84 -37 146.5 -99t95.5 -134.5t48 -142t15 -138.5q0 -41 -5.5 -85.5t-22 -101.5t-42 -109t-70.5 -103t-103 -88t-143 -60t-187 -23q-73 0 -144 14.5t-143.5 47t-134.5 94t-100 145.5q-53 117 -53 262zM383 539 q0 -83 22 -147t59.5 -100.5t82 -54.5t94.5 -18q67 0 118.5 27.5t79.5 73t42 97t14 107.5q0 165 -68 246.5t-184 81.5q-86 0 -139 -35q-54 -33 -87.5 -106.5t-33.5 -171.5zM471 1200l150 273h372l-313 -273h-209z" />
<glyph unicode="&#xf4;" horiz-adv-x="1280" d="M66 530q0 181 73 311.5t199.5 195.5t292.5 65q167 0 278 -51q84 -37 146.5 -99t95.5 -134.5t48 -142t15 -138.5q0 -41 -5.5 -85.5t-22 -101.5t-42 -109t-70.5 -103t-103 -88t-143 -60t-187 -23q-73 0 -144 14.5t-143.5 47t-134.5 94t-100 145.5q-53 117 -53 262z M315 1204l207 271h260l211 -269h-241l-101 127l-94 -129h-242zM383 539q0 -83 22 -147t59.5 -100.5t82 -54.5t94.5 -18q67 0 118.5 27.5t79.5 73t42 97t14 107.5q0 165 -68 246.5t-184 81.5q-86 0 -139 -35q-54 -33 -87.5 -106.5t-33.5 -171.5z" />
<glyph unicode="&#xf5;" horiz-adv-x="1280" d="M66 530q0 181 73 311.5t199.5 195.5t292.5 65q167 0 278 -51q84 -37 146.5 -99t95.5 -134.5t48 -142t15 -138.5q0 -41 -5.5 -85.5t-22 -101.5t-42 -109t-70.5 -103t-103 -88t-143 -60t-187 -23q-73 0 -144 14.5t-143.5 47t-134.5 94t-100 145.5q-53 117 -53 262z M272 1192q5 44 10 73.5t19.5 74.5t35 73t58 49t86.5 21q22 0 43.5 -3.5t42.5 -11.5t33 -13t31 -14.5t20 -10.5l13 -6.5t22 -10t26 -10t31.5 -9t30.5 -3.5q70 0 82 84h141q-1 -5 -2 -14q-2 -23 -4 -36t-6.5 -38t-9 -41t-12.5 -38.5t-17 -37t-23 -31t-30.5 -25.5t-38.5 -15.5 t-47 -6.5q-28 0 -62 8.5t-57.5 18t-47.5 20.5t-28 12q-70 35 -114 35q-21 0 -37 -9t-23.5 -23t-12 -27t-5.5 -24l-2 -11h-146zM383 539q0 -83 22 -147t59.5 -100.5t82 -54.5t94.5 -18q67 0 118.5 27.5t79.5 73t42 97t14 107.5q0 165 -68 246.5t-184 81.5q-86 0 -139 -35 q-54 -33 -87.5 -106.5t-33.5 -171.5z" />
<glyph unicode="&#xf6;" horiz-adv-x="1280" d="M66 530q0 181 73 311.5t199.5 195.5t292.5 65q167 0 278 -51q84 -37 146.5 -99t95.5 -134.5t48 -142t15 -138.5q0 -41 -5.5 -85.5t-22 -101.5t-42 -109t-70.5 -103t-103 -88t-143 -60t-187 -23q-73 0 -144 14.5t-143.5 47t-134.5 94t-100 145.5q-53 117 -53 262z M231 1223v254h322v-254h-322zM383 539q0 -83 22 -147t59.5 -100.5t82 -54.5t94.5 -18q67 0 118.5 27.5t79.5 73t42 97t14 107.5q0 165 -68 246.5t-184 81.5q-86 0 -139 -35q-54 -33 -87.5 -106.5t-33.5 -171.5zM745 1223v254h322v-254h-322z" />
<glyph unicode="&#xf7;" horiz-adv-x="1150" d="M12 463v201h1127v-201h-1127zM446 264q0 54 37.5 91.5t91.5 37.5t92 -37.5t38 -91.5t-38 -91.5t-92 -37.5t-91.5 37.5t-37.5 91.5zM446 862q0 54 37.5 91.5t91.5 37.5t92 -37.5t38 -91.5t-38 -91.5t-92 -37.5t-91.5 37.5t-37.5 91.5z" />
<glyph unicode="&#xf8;" horiz-adv-x="1275" d="M18 61l156 140q-108 155 -108 344q0 132 51 252q26 61 65.5 110t79 80t88 54t85.5 33.5t79 17t62 7.5t40 1h7q220 0 391 -131l153 139l82 -94l-151 -137q112 -162 112 -357q0 -239 -158 -394t-407 -155q-131 0 -221 37t-166 101l-156 -142zM371 545q0 -89 20 -146 l424 387q-39 35 -80.5 55.5t-101.5 20.5q-51 0 -96.5 -17.5t-83.5 -53.5t-60 -99.5t-22 -146.5zM457 289q40 -40 78.5 -58t105.5 -18q58 0 104 21t74 53.5t46 77t25 87t7 87.5q0 66 -18 137z" />
<glyph unicode="&#xf9;" horiz-adv-x="1191" d="M113 379v690h317v-666q0 -71 11.5 -101.5t52.5 -55.5q37 -21 86 -21h2q12 0 27 2t42.5 9t52.5 26.5t41 48.5q17 33 17 92v666h313v-1069h-315v102q-29 -34 -43 -45q-41 -34 -112.5 -61t-153.5 -27q-72 0 -127.5 14.5t-91.5 43t-60.5 64t-37 84.5t-17 96t-4.5 108z M221 1475h379l152 -273h-207z" />
<glyph unicode="&#xfa;" horiz-adv-x="1191" d="M113 379v690h317v-666q0 -71 11.5 -101.5t52.5 -55.5q37 -21 86 -21h2q12 0 27 2t42.5 9t52.5 26.5t41 48.5q17 33 17 92v666h313v-1069h-315v102q-29 -34 -43 -45q-41 -34 -112.5 -61t-153.5 -27q-72 0 -127.5 14.5t-91.5 43t-60.5 64t-37 84.5t-17 96t-4.5 108z M455 1200l149 273h373l-313 -273h-209z" />
<glyph unicode="&#xfb;" horiz-adv-x="1191" d="M113 379v690h317v-666q0 -71 11.5 -101.5t52.5 -55.5q37 -21 86 -21h2q12 0 27 2t42.5 9t52.5 26.5t41 48.5q17 33 17 92v666h313v-1069h-315v102q-29 -34 -43 -45q-41 -34 -112.5 -61t-153.5 -27q-72 0 -127.5 14.5t-91.5 43t-60.5 64t-37 84.5t-17 96t-4.5 108z M258 1204l207 271h260l211 -269h-242l-100 127l-94 -129h-242z" />
<glyph unicode="&#xfc;" horiz-adv-x="1191" d="M113 379v690h317v-666q0 -71 11.5 -101.5t52.5 -55.5q37 -21 86 -21h2q12 0 27 2t42.5 9t52.5 26.5t41 48.5q17 33 17 92v666h313v-1069h-315v102q-29 -34 -43 -45q-41 -34 -112.5 -61t-153.5 -27q-72 0 -127.5 14.5t-91.5 43t-60.5 64t-37 84.5t-17 96t-4.5 108z M174 1223v254h322v-254h-322zM688 1223v254h322v-254h-322z" />
<glyph unicode="&#xfd;" horiz-adv-x="1024" d="M0 1069h336l176 -766l176 766h336l-377 -1155q-27 -88 -55 -133q-55 -92 -118 -121t-155 -29h-227v252h111h6q23 0 39.5 2t39 8.5t34.5 23.5t12 44q0 35 -53 203zM385 1200l150 273h372l-313 -273h-209z" />
<glyph unicode="&#xfe;" horiz-adv-x="1236" d="M131 -371v1817h307v-465q54 56 113 85.5t151 29.5q100 0 182 -33t135.5 -87t90 -127t52.5 -150.5t16 -159.5v-7q-1 -79 -16 -154.5t-50.5 -148.5t-87 -127.5t-131.5 -88t-178 -33.5q-74 0 -128 19.5t-136 70.5v-441h-320zM436 532q0 -155 57 -240t160 -85q52 0 93 25 t64.5 61.5t38.5 84.5t20 87.5t5 75.5q0 61 -11.5 117t-35 105t-66 78t-99.5 29q-103 0 -164.5 -91t-61.5 -247z" />
<glyph unicode="&#xff;" horiz-adv-x="1024" d="M0 1069h336l176 -766l176 766h336l-377 -1155q-27 -88 -55 -133q-55 -92 -118 -121t-155 -29h-227v252h111h6q23 0 39.5 2t39 8.5t34.5 23.5t12 44q0 35 -53 203zM98 1223v254h322v-254h-322zM612 1223v254h322v-254h-322z" />
<glyph unicode="&#x152;" horiz-adv-x="2254" d="M86 731q0 62 7 123.5t26.5 136t51 139.5t84.5 130t122 112q62 42 159.5 76.5t211.5 34.5q74 0 135.5 -12.5t90.5 -24.5t81 -37v37h1091v-281h-729v-266h684v-278h-684v-334h799v-287h-1163v31q-55 -19 -82 -28t-94.5 -20.5t-139.5 -11.5q-205 0 -368 113 q-131 93 -207 253.5t-76 393.5zM451 729q0 -237 102 -359t266 -122q17 0 33.5 1.5t30 3.5t29.5 6t26.5 6.5t25 8.5t22.5 9t21.5 9.5t18 8.5t17 8.5t14.5 7.5v813q-51 35 -102.5 53.5t-129.5 18.5q-74 0 -137.5 -24t-118.5 -76.5t-86.5 -147.5t-31.5 -225z" />
<glyph unicode="&#x153;" horiz-adv-x="1935" d="M66 543q0 115 35 215t100.5 176t168 120t228.5 44t212 -39.5t157 -102.5q155 144 381 144h6q173 0 302.5 -92t188.5 -279q27 -86 39 -258h-764q8 -62 29 -109t47 -73.5t59.5 -43.5t62.5 -22.5t60 -5.5q185 0 256 178l244 -127q-1 -1 -13.5 -22.5t-31 -48t-35.5 -45.5 q-55 -62 -126.5 -103.5t-139.5 -56.5t-102.5 -19t-61.5 -4h-2q-100 0 -185.5 32t-140.5 71q-30 20 -69 59q-54 -54 -82 -72q-48 -33 -129 -59.5t-174 -26.5q-60 0 -122.5 13.5t-136 52.5t-129.5 99.5t-94 165.5t-38 239zM377 541q0 -189 90 -267q59 -51 141 -51 q95 0 154 86.5t59 231.5q0 55 -8.5 103.5t-29.5 99.5t-66.5 81.5t-110.5 30.5q-63 0 -110 -29q-50 -33 -84.5 -110.5t-34.5 -175.5zM1124 666h435q-10 48 -13 55q-48 143 -209 143q-47 0 -85 -15t-60 -36.5t-37.5 -50.5t-21.5 -51.5t-9 -44.5z" />
<glyph unicode="&#x178;" d="M0 1446h414l311 -496q37 72 61 109l248 387h412l-547 -762v-684h-356v674zM315 1599v240h330v-240h-330zM770 1602v237h330v-237h-330z" />
<glyph unicode="&#x2c6;" horiz-adv-x="555" d="M-61 1204l206 271h261l210 -269h-241l-101 127l-94 -129h-241z" />
<glyph unicode="&#x2dc;" horiz-adv-x="555" d="M-84 1192q5 44 10 73.5t19.5 74.5t35 73t58 49t86.5 21q22 0 43.5 -3.5t42.5 -11.5t33 -13t31 -14.5t20 -10.5l13 -6.5t22 -10t26 -10t31.5 -9t30.5 -3.5q70 0 82 84h141q-1 -5 -2 -14q-2 -23 -4 -36t-6.5 -38t-9 -41t-12.5 -38.5t-17 -37t-23 -31t-30.5 -25.5 t-38.5 -15.5t-47 -6.5q-28 0 -62 8.5t-57.5 18t-47.5 20.5t-28 12q-70 35 -115 35q-21 0 -37 -9t-23.5 -23t-12 -27t-6.5 -24l-1 -11h-145z" />
<glyph unicode="&#x2000;" horiz-adv-x="967" />
<glyph unicode="&#x2001;" horiz-adv-x="1935" />
<glyph unicode="&#x2002;" horiz-adv-x="967" />
<glyph unicode="&#x2003;" horiz-adv-x="1935" />
<glyph unicode="&#x2004;" horiz-adv-x="645" />
<glyph unicode="&#x2005;" horiz-adv-x="483" />
<glyph unicode="&#x2006;" horiz-adv-x="322" />
<glyph unicode="&#x2007;" horiz-adv-x="322" />
<glyph unicode="&#x2008;" horiz-adv-x="241" />
<glyph unicode="&#x2009;" horiz-adv-x="387" />
<glyph unicode="&#x200a;" horiz-adv-x="107" />
<glyph unicode="&#x2010;" horiz-adv-x="722" d="M109 457v293h505v-293h-505z" />
<glyph unicode="&#x2011;" horiz-adv-x="722" d="M109 457v293h505v-293h-505z" />
<glyph unicode="&#x2012;" horiz-adv-x="722" d="M109 457v293h505v-293h-505z" />
<glyph unicode="&#x2013;" horiz-adv-x="1024" d="M109 453v292h806v-292h-806z" />
<glyph unicode="&#x2014;" horiz-adv-x="2048" d="M109 453v292h1830v-292h-1830z" />
<glyph unicode="&#x2018;" horiz-adv-x="512" d="M94 762v319q0 64 17 125q12 36 33 71.5t56.5 73.5t92.5 67t127 40v-141q-63 -26 -90 -70.5t-37 -140.5h127v-344h-326z" />
<glyph unicode="&#x2019;" horiz-adv-x="512" d="M92 754v145q70 22 99 67t32 144h-131v336h326v-295q0 -124 -40.5 -203.5t-117.5 -134.5q-78 -52 -168 -59z" />
<glyph unicode="&#x201a;" horiz-adv-x="512" d="M92 0v344h328v-262q0 -53 -2 -84q-13 -218 -201 -309q-20 -10 -50.5 -21t-50.5 -16.5t-22 -5.5v145q64 24 89.5 69t33.5 140h-125z" />
<glyph unicode="&#x201c;" horiz-adv-x="980" d="M94 760v303q0 228 152 334q71 48 172 63v-145q-70 -22 -98 -67t-31 -146h129v-342h-324zM565 760v303q0 228 156 336q69 46 168 61v-145q-70 -22 -98 -67t-31 -146h129v-342h-324z" />
<glyph unicode="&#x201d;" horiz-adv-x="980" d="M92 748v145q70 22 98 66t31 145h-129v342h324v-303q0 -123 -40 -202.5t-118 -133.5q-75 -51 -166 -59zM563 748v145q70 22 98 66t31 145h-129v342h324v-303q0 -229 -156 -336q-74 -51 -168 -59z" />
<glyph unicode="&#x201e;" horiz-adv-x="980" d="M92 0v342h324v-303q0 -123 -40.5 -203t-117.5 -133q-15 -10 -30.5 -19t-30.5 -15t-27 -10t-26 -7t-21.5 -5t-18 -3.5t-12.5 -1.5v145q70 24 98 68.5t31 144.5h-129zM563 0v342h324v-303q0 -226 -154 -334q-69 -48 -170 -63v145q71 24 98.5 68t30.5 145h-129z" />
<glyph unicode="&#x2022;" horiz-adv-x="681" d="M51 721q0 120 85.5 205.5t205.5 85.5t205.5 -85.5t85.5 -205.5t-85.5 -205.5t-205.5 -85.5t-205.5 85.5t-85.5 205.5z" />
<glyph unicode="&#x2026;" horiz-adv-x="2048" d="M203 127q0 59 40.5 99t98.5 40t98.5 -40t40.5 -99t-40.5 -99t-98.5 -40t-98.5 40t-40.5 99zM885 127q0 59 40.5 99t98.5 40t98.5 -40t40.5 -99t-40.5 -99t-98.5 -40t-98.5 40t-40.5 99zM1569 127q0 59 40.5 99t98.5 40t98.5 -40t40.5 -99t-40.5 -99t-98.5 -40t-98.5 40 t-40.5 99z" />
<glyph unicode="&#x202f;" horiz-adv-x="387" />
<glyph unicode="&#x2039;" horiz-adv-x="468" d="M66 471v256l323 274v-282l-137 -117l139 -117v-280z" />
<glyph unicode="&#x203a;" horiz-adv-x="468" d="M78 197v282l131 119l-131 117v278l325 -268v-252z" />
<glyph unicode="&#x205f;" horiz-adv-x="483" />
<glyph unicode="&#x20ac;" horiz-adv-x="1263" d="M20 420l80 190h97q-4 54 -4 86q0 47 2 76h-175l80 191h129q24 87 68.5 159.5t100 121t117.5 85t127.5 56t123 29t111.5 9.5q48 0 91.5 -3.5t69 -7t59 -13.5t42.5 -13t41 -16l32 -14l-110 -232q-103 39 -207 39q-94 0 -177 -47t-132 -153h458l-79 -191h-426q-4 -46 -4 -76 q0 -32 4 -86h360l-80 -190h-235q83 -187 317 -187q74 0 153 25.5t132 65.5v-295q-114 -60 -330 -60q-48 0 -96 6t-102 21t-104 37.5t-100 58.5t-91.5 81.5t-76.5 109t-57 137.5h-209z" />
<glyph unicode="&#x2122;" horiz-adv-x="1406" d="M6 1327v119h569v-119h-208v-561h-146v561h-215zM633 766v680h188l164 -514l156 514h190v-680h-141l4 391q0 54 10 139l-6 -24q-11 -44 -24 -88l-127 -418h-129l-132 420q-6 19 -15 54t-15 54q10 -72 10 -137l8 -391h-141z" />
<glyph unicode="&#xe000;" horiz-adv-x="1064" d="M0 0v1065h1065v-1065h-1065z" />
</font>
</defs>
</svg>
